<svg width="36" height="36" viewBox="0 0 36 36" fill="currentColor" xmlns="http://www.w3.org/2000/svg">
<path fill-rule="evenodd" clip-rule="evenodd" d="M5 0C2.23858 0 0 2.23858 0 5V31C0 33.7614 2.23858 36 5 36H31C33.7614 36 36 33.7614 36 31V5C36 2.23858 33.7614 0 31 0H5ZM16 8C16 7.44772 16.4477 7 17 7H19C19.5523 7 20 7.44772 20 8V28C20 28.5523 19.5523 29 19 29H17C16.4477 29 16 28.5523 16 28V8ZM8 14C8 13.4477 8.44772 13 9 13H11C11.5523 13 12 13.4477 12 14V28C12 28.5523 11.5523 29 11 29H9C8.44772 29 8 28.5523 8 28V14ZM24 20C24 19.4477 24.4477 19 25 19H27C27.5523 19 28 19.4477 28 20V28C28 28.5523 27.5523 29 27 29H25C24.4477 29 24 28.5523 24 28V20Z" fill="currentColor"/>
</svg>
