<svg width="36" height="36" viewBox="0 0 36 36" fill="currentColor" xmlns="http://www.w3.org/2000/svg">
<path d="M0 2C0 0.89543 0.895431 0 2 0H34C35.1046 0 36 0.895431 36 2V8C36 9.10457 35.1046 10 34 10H2C0.895432 10 0 9.10457 0 8V2Z" fill="currentColor"/>
<path d="M0 15C0 13.8954 0.895431 13 2 13H8C9.10457 13 10 13.8954 10 15V34C10 35.1046 9.10457 36 8 36H2C0.89543 36 0 35.1046 0 34V15Z" fill="currentColor"/>
<path d="M15 13C13.8954 13 13 13.8954 13 15V34C13 35.1046 13.8954 36 15 36H34C35.1046 36 36 35.1046 36 34V15C36 13.8954 35.1046 13 34 13H15Z" fill="currentColor"/>
</svg>
