<svg width="36" height="36" viewBox="0 0 36 36" fill="currentColor" xmlns="http://www.w3.org/2000/svg">
<path d="M0 4C0 1.79086 1.79086 0 4 0H32C34.2091 0 36 1.79086 36 4V8C36 9.10457 35.1046 10 34 10H2C0.895432 10 0 9.10457 0 8V4Z" fill="currentColor"/>
<path d="M0 15C0 13.8954 0.895431 13 2 13H8C9.10457 13 10 13.8954 10 15V21C10 22.1046 9.10457 23 8 23H2C0.89543 23 0 22.1046 0 21V15Z" fill="currentColor"/>
<path d="M2 26C0.895431 26 0 26.8954 0 28V34C0 35.1046 0.89543 36 2 36H8C9.10457 36 10 35.1046 10 34V28C10 26.8954 9.10457 26 8 26H2Z" fill="currentColor"/>
<path d="M13 15C13 13.8954 13.8954 13 15 13H21C22.1046 13 23 13.8954 23 15V21C23 22.1046 22.1046 23 21 23H15C13.8954 23 13 22.1046 13 21V15Z" fill="currentColor"/>
<path d="M15 26C13.8954 26 13 26.8954 13 28V34C13 35.1046 13.8954 36 15 36H21C22.1046 36 23 35.1046 23 34V28C23 26.8954 22.1046 26 21 26H15Z" fill="currentColor"/>
<path d="M26 15C26 13.8954 26.8954 13 28 13H34C35.1046 13 36 13.8954 36 15V21C36 22.1046 35.1046 23 34 23H28C26.8954 23 26 22.1046 26 21V15Z" fill="currentColor"/>
<path d="M28 26C26.8954 26 26 26.8954 26 28V34C26 35.1046 26.8954 36 28 36H34C35.1046 36 36 35.1046 36 34V28C36 26.8954 35.1046 26 34 26H28Z" fill="currentColor"/>
</svg>
