<svg width="36" height="36" viewBox="0 0 36 36" fill="none" xmlns="http://www.w3.org/2000/svg">
<g clip-path="url(#clip0_613_1041)">
<path fill-rule="evenodd" clip-rule="evenodd" d="M17.9998 4.89551C9.36286 4.89551 2.36121 11.8585 2.36121 20.4477C2.36121 29.0369 9.36286 35.9999 17.9998 35.9999C26.6368 35.9999 33.6385 29.0369 33.6385 20.4477C33.6385 11.8585 26.6368 4.89551 17.9998 4.89551ZM5.0627 20.4477C5.0627 13.3422 10.8549 7.58207 17.9998 7.58207C25.1448 7.58207 30.937 13.3422 30.937 20.4477C30.937 27.5532 25.1448 33.3133 17.9998 33.3133C10.8549 33.3133 5.0627 27.5532 5.0627 20.4477Z" fill="black"/>
<path d="M9.36057 0.393438C9.88807 -0.131146 10.7433 -0.131146 11.2708 0.393438C11.7983 0.918021 11.7983 1.76854 11.2708 2.29312L2.30587 11.2085C1.77837 11.7331 0.923123 11.7331 0.395624 11.2085C-0.131875 10.6839 -0.131875 9.83342 0.395624 9.30883L9.36057 0.393438Z" fill="black"/>
<path d="M26.6394 0.393438C26.1119 -0.131146 25.2567 -0.131146 24.7292 0.393438C24.2017 0.918021 24.2017 1.76854 24.7292 2.29312L33.6941 11.2085C34.2216 11.7331 35.0769 11.7331 35.6044 11.2085C36.1319 10.6839 36.1319 9.83342 35.6044 9.30883L26.6394 0.393438Z" fill="black"/>
<path d="M17.9298 12.8057C17.9298 12.0638 18.5345 11.4624 19.2805 11.4624C20.0265 11.4624 20.6313 12.0638 20.6313 12.8057V22.113C20.6313 22.4944 20.4682 22.8579 20.1827 23.1127L16.3406 26.5417C15.7854 27.0372 14.9314 26.9913 14.4331 26.4391C13.9349 25.887 13.981 25.0377 14.5362 24.5422L17.9298 21.5136V12.8057Z" fill="black"/>
</g>
<defs>
<clipPath id="clip0_613_1041">
<rect width="36" height="36" fill="white"/>
</clipPath>
</defs>
</svg>
