<svg width="36" height="36" viewBox="0 0 36 36" fill="none" xmlns="http://www.w3.org/2000/svg">
<g clip-path="url(#clip0_505_1355)">
<path d="M11.6985 24.7472C11.5774 23.9921 10.8672 23.4782 10.1121 23.5993C9.16064 23.7519 8.25604 23.9319 7.4091 24.1369C6.66586 24.3168 6.2092 25.0652 6.38911 25.8084C6.56903 26.5516 7.31739 27.0083 8.06063 26.8284C8.83046 26.642 9.66355 26.4758 10.5506 26.3336C11.3057 26.2125 11.8196 25.5022 11.6985 24.7472Z" fill="black"/>
<path d="M25.8879 23.5993C25.1329 23.4782 24.4226 23.9921 24.3015 24.7472C24.1804 25.5022 24.6944 26.2125 25.4494 26.3336C26.3365 26.4758 27.1696 26.642 27.9394 26.8284C28.6826 27.0083 29.431 26.5516 29.6109 25.8084C29.7908 25.0652 29.3342 24.3168 28.5909 24.1369C27.744 23.9319 26.8394 23.7519 25.8879 23.5993Z" fill="black"/>
<path d="M3.97651 26.6285C3.54419 25.9977 2.68239 25.8368 2.05162 26.2692C0.990089 26.9967 0 28.0669 0 29.503C0 30.7827 0.792436 31.7738 1.69035 32.4731C2.29367 32.9429 3.16366 32.8348 3.63353 32.2314C4.10339 31.6281 3.9952 30.7581 3.39188 30.2883C2.79949 29.8269 2.76923 29.5511 2.76923 29.503C2.76923 29.4463 2.81861 29.1007 3.61718 28.5534C4.24795 28.1211 4.40883 27.2593 3.97651 26.6285Z" fill="black"/>
<path d="M33.9484 26.2692C33.3176 25.8368 32.4558 25.9977 32.0235 26.6285C31.5912 27.2593 31.7521 28.1211 32.3829 28.5534C33.1814 29.1007 33.2308 29.4463 33.2308 29.503C33.2308 29.5511 33.2006 29.8269 32.6082 30.2883C32.0048 30.7581 31.8966 31.6281 32.3665 32.2314C32.8364 32.8348 33.7064 32.9429 34.3097 32.4731C35.2076 31.7738 36 30.7827 36 29.503C36 28.0669 35.0099 26.9967 33.9484 26.2692Z" fill="black"/>
<path d="M30.644 32.8664C30.4337 32.1312 29.6671 31.7058 28.9319 31.9162C27.6931 32.2707 26.2487 32.5695 24.6476 32.7923C23.8902 32.8977 23.3617 33.5971 23.467 34.3545C23.5724 35.1119 24.2718 35.6405 25.0292 35.5351C26.7351 35.2978 28.3092 34.9748 29.6938 34.5786C30.429 34.3682 30.8544 33.6016 30.644 32.8664Z" fill="black"/>
<path d="M7.06812 31.9162C6.33293 31.7058 5.56638 32.1312 5.356 32.8664C5.14561 33.6016 5.57105 34.3682 6.30624 34.5786C7.69085 34.9748 9.26492 35.2978 10.9708 35.5351C11.7282 35.6405 12.4276 35.1119 12.533 34.3545C12.6384 33.5971 12.1098 32.8977 11.3524 32.7923C9.75132 32.5695 8.30695 32.2707 7.06812 31.9162Z" fill="black"/>
<path d="M15.7725 33.184C15.0085 33.1517 14.3629 33.7448 14.3305 34.5088C14.2982 35.2728 14.8913 35.9184 15.6553 35.9508C16.4223 35.9832 17.205 36 18 36C18.795 36 19.5778 35.9832 20.3447 35.9508C21.1087 35.9184 21.7019 35.2728 21.6695 34.5088C21.6372 33.7448 20.9916 33.1517 20.2276 33.184C19.4999 33.2148 18.7562 33.2308 18 33.2308C17.2438 33.2308 16.5002 33.2148 15.7725 33.184Z" fill="black"/>
<path fill-rule="evenodd" clip-rule="evenodd" d="M12.781 10.3313C12.781 7.44896 15.1176 5.11237 18 5.11237C20.8823 5.11237 23.2189 7.44896 23.2189 10.3313C23.2189 13.2136 20.8823 15.5502 18 15.5502C15.1176 15.5502 12.781 13.2136 12.781 10.3313ZM18 7.8816C16.647 7.8816 15.5503 8.97837 15.5503 10.3313C15.5503 11.6842 16.647 12.781 18 12.781C19.3529 12.781 20.4497 11.6842 20.4497 10.3313C20.4497 8.97837 19.3529 7.8816 18 7.8816Z" fill="black"/>
<path fill-rule="evenodd" clip-rule="evenodd" d="M7.66864 10.3314C7.66864 4.62551 12.2942 0 18 0C23.7059 0 28.3314 4.62551 28.3314 10.3314C28.3314 11.9134 27.9749 13.416 27.3365 14.7598L27.332 14.7693L27.3309 14.7716L19.245 31.387C19.0132 31.8634 18.5298 32.1658 18 32.1658C17.4702 32.1657 16.9868 31.8634 16.755 31.387L8.6635 14.7598C8.02511 13.416 7.66864 11.9134 7.66864 10.3314ZM18 2.76923C13.8236 2.76923 10.4379 6.15492 10.4379 10.3314C10.4379 11.4915 10.6982 12.587 11.1622 13.566L11.1628 13.5672L18 27.6169L24.8372 13.5672L24.8378 13.566C25.3019 12.587 25.5622 11.4915 25.5622 10.3314C25.5622 6.15492 22.1765 2.76923 18 2.76923Z" fill="black"/>
</g>
<defs>
<clipPath id="clip0_505_1355">
<rect width="36" height="36" fill="white"/>
</clipPath>
</defs>
</svg>
