<svg width="36" height="36" viewBox="0 0 36 36" fill="none" xmlns="http://www.w3.org/2000/svg">
<path d="M17.5 34.0001C18.2037 34.0001 18.7742 33.4196 18.7742 32.7036L18.7742 3.29647C18.7742 2.58048 18.2037 2.00006 17.5 2.00006C16.7963 2.00006 16.2258 2.58048 16.2258 3.29647L16.2258 32.7036C16.2258 33.4196 16.7963 34.0001 17.5 34.0001Z" fill="black"/>
<path d="M25.6847 25.1554C26.1481 24.6165 26.0945 23.7975 25.5649 23.326C25.0353 22.8545 24.2303 22.9091 23.7669 23.448L17.5 30.735L11.2332 23.448C10.7698 22.9091 9.96478 22.8545 9.43518 23.326C8.90558 23.7975 8.85191 24.6165 9.31531 25.1554L16.5411 33.5574C16.7831 33.8388 17.1326 34.0001 17.5 34.0001C17.8675 34.0001 18.217 33.8388 18.459 33.5574L25.6847 25.1554Z" fill="black"/>
</svg>
