<svg width="36" height="36" viewBox="0 0 36 36" fill="none" xmlns="http://www.w3.org/2000/svg">
<path d="M17.5 2C18.2037 2 18.7742 2.58042 18.7742 3.29641L18.7742 32.7036C18.7742 33.4196 18.2037 34 17.5 34C16.7962 34 16.2258 33.4196 16.2258 32.7036L16.2258 3.29641C16.2258 2.58042 16.7962 2 17.5 2Z" fill="black"/>
<path d="M25.6847 10.8447C26.1481 11.3835 26.0944 12.2026 25.5648 12.674C25.0352 13.1455 24.2302 13.0909 23.7668 12.5521L17.4999 5.26507L11.2331 12.5521C10.7697 13.0909 9.96469 13.1455 9.43509 12.674C8.90549 12.2026 8.85182 11.3835 9.31522 10.8447L16.541 2.44266C16.783 2.16132 17.1325 1.99994 17.4999 1.99994C17.8674 1.99994 18.2169 2.16132 18.4589 2.44266L25.6847 10.8447Z" fill="black"/>
</svg>
