<svg width="36" height="36" viewBox="0 0 36 36" fill="none" xmlns="http://www.w3.org/2000/svg">
<path d="M2 18.5C2 17.7962 2.58042 17.2258 3.29641 17.2258H32.7036C33.4196 17.2258 34 17.7962 34 18.5C34 19.2037 33.4196 19.7742 32.7036 19.7742L3.29641 19.7742C2.58042 19.7742 2 19.2037 2 18.5Z" fill="black"/>
<path d="M10.8448 10.3153C11.3836 9.85188 12.2026 9.90555 12.6741 10.4351C13.1456 10.9647 13.091 11.7697 12.5522 12.2331L5.26513 18.5L12.5522 24.7669C13.091 25.2303 13.1456 26.0353 12.6741 26.5649C12.2026 27.0945 11.3836 27.1481 10.8448 26.6847L2.44272 19.4589C2.16138 19.217 2 18.8674 2 18.5C2 18.1326 2.16138 17.783 2.44272 17.5411L10.8448 10.3153Z" fill="black"/>
</svg>
