<svg width="36" height="36" viewBox="0 0 36 36" fill="none" xmlns="http://www.w3.org/2000/svg">
<path d="M4.74418 0C2.12404 0 0 2.10771 0 4.70769V27.9692C0 32.4045 3.62337 36 8.09302 36H18.1395C18.9102 36 19.5349 35.3801 19.5349 34.6154C19.5349 33.8507 18.9102 33.2308 18.1395 33.2308H8.09302C5.16463 33.2308 2.7907 30.8751 2.7907 27.9692V14.123H5.43118C6.20181 14.123 6.82653 13.5031 6.82653 12.7384C6.82653 11.9737 6.20181 11.3538 5.43118 11.3538H2.7907V4.70769C2.7907 3.63711 3.6653 2.76923 4.74418 2.76923H6.58907C7.22846 5.69224 9.8503 7.88166 12.9875 7.88166C16.1246 7.88166 18.7465 5.69224 19.3859 2.76923H21.2308C22.3097 2.76923 23.1843 3.63707 23.1843 4.70769V11.3538H20.3023C19.5317 11.3538 18.907 11.9737 18.907 12.7384C18.907 13.5031 19.5317 14.123 20.3023 14.123H23.9489C24.1383 14.2184 24.3526 14.2722 24.5796 14.2722C25.3502 14.2722 25.975 13.6523 25.975 12.8876V4.70769C25.975 2.10775 23.851 0 21.2308 0H18.1395C17.7542 0 17.4054 0.154978 17.1529 0.405545C16.9004 0.656111 16.7442 1.00226 16.7442 1.38462C16.7442 3.44343 15.0622 5.11243 12.9875 5.11243C10.9137 5.11243 9.23234 3.445 9.23077 1.38752L9.23077 1.38462C9.23077 0.619913 8.60605 0 7.83542 0H4.74418Z" fill="black"/>
<path d="M9.83724 11.3538C9.06661 11.3538 8.44189 11.9737 8.44189 12.7384C8.44189 13.5031 9.06661 14.123 9.83724 14.123H15.3328C16.1034 14.123 16.7281 13.5031 16.7281 12.7384C16.7281 11.9737 16.1034 11.3538 15.3328 11.3538H9.83724Z" fill="black"/>
<path fill-rule="evenodd" clip-rule="evenodd" d="M20.4224 31.2497L20.3705 31.2497C19.7518 31.2501 18.5608 31.2508 17.5033 30.8311C16.9238 30.6011 16.3186 30.222 15.864 29.5973C15.403 28.964 15.1772 28.1884 15.1772 27.3089C15.1772 26.4293 15.403 25.6537 15.864 25.0204C16.3186 24.3957 16.9238 24.0166 17.5033 23.7866C18.0113 23.585 18.55 23.4804 19.0413 23.4262C19.0675 19.8602 21.9888 16.9775 25.5886 16.9775C29.1883 16.9775 32.1096 19.8602 32.1358 23.4262C32.6271 23.4804 33.1659 23.585 33.6738 23.7866C34.2533 24.0166 34.8585 24.3957 35.3132 25.0204C35.7741 25.6537 36 26.4293 36 27.3089C36 28.1884 35.7741 28.964 35.3132 29.5973C34.8585 30.222 34.2533 30.6011 33.6738 30.8311C33.1601 31.035 32.6149 31.1397 32.1191 31.1934C32.018 31.9226 31.7642 32.7133 31.2665 33.4396C30.3254 34.8129 28.6739 35.7231 26.2325 35.7231C25.4619 35.7231 24.8372 35.1032 24.8372 34.3385C24.8372 33.5738 25.4619 32.9539 26.2325 32.9539C27.912 32.9539 28.6222 32.3736 28.9588 31.8824C29.3491 31.3128 29.4293 30.5767 29.3616 30.0778C29.3561 30.0426 29.352 30.0069 29.3492 29.9709C29.3458 29.9265 29.3445 29.8824 29.3453 29.8387V24.7627L29.3452 24.7526L29.3453 24.7426V23.4746C29.3453 21.4158 27.6633 19.7468 25.5886 19.7468C23.5138 19.7468 21.8318 21.4158 21.8318 23.4746V24.7382L21.8319 24.7526L21.8318 24.7671V29.8506L21.8319 29.865C21.8319 30.2399 21.6818 30.58 21.4379 30.8294C21.1843 31.0886 20.8294 31.2497 20.4365 31.2497L20.4224 31.2497ZM19.0411 28.3968V26.2209C18.8614 26.2529 18.6928 26.297 18.5398 26.3578C18.3147 26.4471 18.1951 26.5472 18.1263 26.6417C18.0638 26.7276 17.9679 26.9107 17.9679 27.3089C17.9679 27.707 18.0638 27.8901 18.1263 27.976C18.1951 28.0705 18.3147 28.1706 18.5398 28.2599C18.6928 28.3207 18.8614 28.3648 19.0411 28.3968ZM32.136 26.2209C32.3157 26.2529 32.4844 26.297 32.6374 26.3578C32.8625 26.4471 32.982 26.5472 33.0508 26.6417C33.1133 26.7276 33.2093 26.9107 33.2093 27.3089C33.2093 27.707 33.1133 27.8901 33.0508 27.976C32.982 28.0705 32.8625 28.1706 32.6374 28.2599C32.4844 28.3207 32.3157 28.3648 32.136 28.3968V26.2209Z" fill="black"/>
</svg>
