<svg id="cancelled-project" width="36" height="36" viewBox="0 0 36 36" fill="currentColor" xmlns="http://www.w3.org/2000/svg">
<g clip-path="url(#clip0_505_988)">
<path d="M8.36016 3.05176e-05C3.74086 3.05176e-05 6.10352e-05 3.80293 6.10352e-05 8.48919V27.5109C6.10352e-05 32.1971 3.74086 36 8.36016 36H20.0648C24.6841 36 28.4249 32.1971 28.4249 27.5109V16.3356C28.4249 15.5889 27.8283 14.9796 27.0876 14.9796C26.3468 14.9796 25.7502 15.5889 25.7502 16.3356V27.5109C25.7502 30.7036 23.2026 33.288 20.0648 33.288H8.36016C5.22233 33.288 2.67472 30.7036 2.67472 27.5109V8.48919C2.67472 5.29643 5.22233 2.7121 8.36016 2.7121H15.8219C16.5626 2.7121 17.1592 2.10282 17.1592 1.35607C17.1592 0.609318 16.5626 3.05176e-05 15.8219 3.05176e-05H8.36016Z" fill="currentColor"/>
<path d="M7.18963 5.94424C6.44889 5.94424 5.85229 6.55353 5.85229 7.30028C5.85229 8.04703 6.44889 8.65632 7.18963 8.65632H17.7238C18.4645 8.65632 19.0611 8.04703 19.0611 7.30028C19.0611 6.55353 18.4645 5.94424 17.7238 5.94424H7.18963Z" fill="currentColor"/>
<path d="M5.85229 14.4334C5.85229 13.6867 6.44889 13.0774 7.18963 13.0774H15.3829C16.1236 13.0774 16.7202 13.6867 16.7202 14.4334C16.7202 15.1802 16.1236 15.7895 15.3829 15.7895H7.18963C6.44889 15.7895 5.85229 15.1802 5.85229 14.4334Z" fill="currentColor"/>
<path d="M7.18963 20.2106C6.44889 20.2106 5.85229 20.8199 5.85229 21.5666C5.85229 22.3134 6.44889 22.9226 7.18963 22.9226H21.2352C21.9759 22.9226 22.5725 22.3134 22.5725 21.5666C22.5725 20.8199 21.9759 20.2106 21.2352 20.2106H7.18963Z" fill="currentColor"/>
<path d="M5.85229 28.6997C5.85229 27.953 6.44889 27.3437 7.18963 27.3437H21.2352C21.9759 27.3437 22.5725 27.953 22.5725 28.6997C22.5725 29.4465 21.9759 30.0558 21.2352 30.0558H7.18963C6.44889 30.0558 5.85229 29.4465 5.85229 28.6997Z" fill="currentColor"/>
<path d="M19.1201 15.6227C18.5982 16.1527 18.5982 17.012 19.1201 17.5421C19.6419 18.0721 20.4879 18.0721 21.0097 17.5421L27.0876 11.3687L33.1655 17.5421C33.6873 18.0721 34.5333 18.0721 35.0551 17.5421C35.5769 17.0121 35.5769 16.1528 35.0551 15.6228L28.9772 9.44936L35.0553 3.2758C35.5771 2.74579 35.5771 1.88647 35.0553 1.35646C34.5334 0.826451 33.6874 0.826452 33.1656 1.35646L27.0876 7.53002L21.0096 1.35654C20.4878 0.826527 19.6417 0.826527 19.1199 1.35654C18.5981 1.88655 18.5981 2.74587 19.1199 3.27588L25.1979 9.44936L19.1201 15.6227Z" fill="currentColor"/>
</g>
<defs>
<clipPath id="clip0_505_988">
<rect width="36" height="36" fill="currentColor"/>
</clipPath>
</defs>
</svg>
