<svg width="36" height="36" viewBox="0 0 36 36" fill="none" xmlns="http://www.w3.org/2000/svg">
<path fill-rule="evenodd" clip-rule="evenodd" d="M5.96277 22.4037C5.96277 20.6954 7.34763 19.3105 9.05594 19.3105C10.7642 19.3105 12.1491 20.6954 12.1491 22.4037C12.1491 24.112 10.7642 25.4969 9.05594 25.4969C7.34763 25.4969 5.96277 24.112 5.96277 22.4037ZM9.05594 21.9192C8.78837 21.9192 8.57146 22.1361 8.57146 22.4037C8.57146 22.6713 8.78837 22.8882 9.05594 22.8882C9.3235 22.8882 9.54041 22.6713 9.54041 22.4037C9.54041 22.1361 9.3235 21.9192 9.05594 21.9192Z" fill="black"/>
<path d="M20.2733 21.8076C20.2733 21.0872 20.8573 20.5032 21.5777 20.5032H29.9255C30.6459 20.5032 31.2298 21.0872 31.2298 21.8076C31.2298 22.528 30.6459 23.1119 29.9255 23.1119H21.5777C20.8573 23.1119 20.2733 22.528 20.2733 21.8076Z" fill="black"/>
<path fill-rule="evenodd" clip-rule="evenodd" d="M0 11.5217C0 7.91989 2.91988 5 6.52174 5H29.4783C33.0801 5 36 7.91988 36 11.5217V24.9379C36 28.5397 33.0801 31.4596 29.4783 31.4596H6.52174C2.91988 31.4596 0 28.5397 0 24.9379V11.5217ZM6.52174 7.6087C4.36063 7.6087 2.6087 9.36063 2.6087 11.5217V13.3478H33.3913V11.5217C33.3913 9.36063 31.6394 7.6087 29.4783 7.6087H6.52174ZM33.3913 15.9565H2.6087V24.9379C2.6087 27.099 4.36063 28.8509 6.52174 28.8509H29.4783C31.6394 28.8509 33.3913 27.099 33.3913 24.9379V15.9565Z" fill="black"/>
</svg>
