<svg width="36" height="36" viewBox="0 0 36 36" fill="none" xmlns="http://www.w3.org/2000/svg">
<path fill-rule="evenodd" clip-rule="evenodd" d="M30.1418 0C26.9065 0 24.2838 2.62271 24.2838 5.85799C24.2838 9.09327 26.9065 11.716 30.1418 11.716C33.377 11.716 35.9998 9.09327 35.9998 5.85799C35.9998 2.62271 33.377 0 30.1418 0ZM27.053 5.85799C27.053 4.15212 28.4359 2.76923 30.1418 2.76923C31.8476 2.76923 33.2305 4.15212 33.2305 5.85799C33.2305 7.56386 31.8476 8.94675 30.1418 8.94675C28.4359 8.94675 27.053 7.56386 27.053 5.85799Z" fill="black"/>
<path fill-rule="evenodd" clip-rule="evenodd" d="M7.60458 5.1123C6.22812 5.1123 5.11227 6.22815 5.11227 7.60461V14.336C5.11227 15.7124 6.22812 16.8283 7.60458 16.8283H14.3359C15.7124 16.8283 16.8283 15.7124 16.8283 14.336V7.60461C16.8283 6.22815 15.7124 5.1123 14.3359 5.1123H7.60458ZM7.88151 14.0591V7.88154L14.059 7.88154V14.0591H7.88151Z" fill="black"/>
<path fill-rule="evenodd" clip-rule="evenodd" d="M7.60458 19.1716C6.22812 19.1716 5.11227 20.2874 5.11227 21.6639V28.3952C5.11227 29.7717 6.22812 30.8875 7.60458 30.8875H14.3359C15.7124 30.8875 16.8283 29.7717 16.8283 28.3952V21.6639C16.8283 20.2874 15.7124 19.1716 14.3359 19.1716H7.60458ZM7.88151 28.1183V21.9408H14.059V28.1183H7.88151Z" fill="black"/>
<path fill-rule="evenodd" clip-rule="evenodd" d="M19.1715 21.6639C19.1715 20.2874 20.2874 19.1716 21.6638 19.1716H28.3952C29.7717 19.1716 30.8875 20.2874 30.8875 21.6639V28.3952C30.8875 29.7717 29.7717 30.8875 28.3952 30.8875H21.6638C20.2874 30.8875 19.1715 29.7717 19.1715 28.3952V21.6639ZM21.9408 21.9408V28.1183H28.1183V21.9408H21.9408Z" fill="black"/>
<path fill-rule="evenodd" clip-rule="evenodd" d="M0 5.81538C0 2.60364 2.60364 0 5.81538 0H16.1254C19.3372 0 21.9408 2.60364 21.9408 5.81538V14.0592L30.1846 14.0592C33.3964 14.0592 36 16.6628 36 19.8746V30.1846C36 33.3964 33.3964 36 30.1846 36H5.81539C2.60364 36 0 33.3964 0 30.1846V5.81538ZM5.81538 2.76923C4.13304 2.76923 2.76923 4.13304 2.76923 5.81538V30.1846C2.76923 31.867 4.13304 33.2308 5.81539 33.2308H30.1846C31.867 33.2308 33.2308 31.867 33.2308 30.1846V19.8746C33.2308 18.1922 31.867 16.8284 30.1846 16.8284H21.6639C20.2874 16.8284 19.1716 15.7126 19.1716 14.3361V5.81538C19.1716 4.13304 17.8078 2.76923 16.1254 2.76923H5.81538Z" fill="black"/>
</svg>
