<svg id="check-box" width="36" height="36" viewBox="0 0 36 36" fill="currentColor" xmlns="http://www.w3.org/2000/svg">
<path d="M35.5968 4.24226C35.0574 3.70023 34.1807 3.69812 33.6387 4.23754L18.6113 19.1927L12.5862 13.1966C12.0442 12.6572 11.1675 12.6593 10.628 13.2013C10.0886 13.7433 10.0907 14.62 10.6328 15.1594L17.6346 22.1276C18.1747 22.6651 19.0478 22.6651 19.588 22.1276L35.5921 6.20039C36.1341 5.66097 36.1362 4.78428 35.5968 4.24226Z" fill="currentColor"/>
<path d="M8.03077 0C3.5955 0 0 3.5955 0 8.03077V27.9692C0 32.4045 3.5955 36 8.03077 36H27.9692C32.4045 36 36 32.4045 36 27.9692V12.8876C36 12.1229 35.3801 11.503 34.6154 11.503C33.8507 11.503 33.2308 12.1229 33.2308 12.8876V27.9692C33.2308 30.8751 30.8751 33.2308 27.9692 33.2308H8.03077C5.1249 33.2308 2.76923 30.8751 2.76923 27.9692V8.03077C2.76923 5.1249 5.1249 2.76923 8.03077 2.76923H29.503C30.2677 2.76923 30.8876 2.14932 30.8876 1.38462C30.8876 0.619913 30.2677 0 29.503 0H8.03077Z" fill="currentColor"/>
</svg>
