<svg width="36" height="36" viewBox="0 0 36 36" fill="none" xmlns="http://www.w3.org/2000/svg">
<path d="M15.2281 17.8311C14.4634 17.8311 13.8435 18.451 13.8435 19.2157V23.1572L6.94831 26.0434C6.71157 26.1425 6.50703 26.3055 6.35753 26.5141C5.50414 27.7048 3.69275 30.8608 3.0249 34.3552C2.88135 35.1063 3.37387 35.8316 4.12497 35.9751C4.87607 36.1187 5.60132 35.6262 5.74488 34.8751C6.26304 32.1639 7.62472 29.6171 8.39512 28.4398L14.4109 25.9217L14.7418 26.1424L14.6494 26.3272C14.3829 26.8603 14.4874 27.5041 14.9088 27.9255L15.9076 28.9243C15.8724 29.0011 15.8438 29.0821 15.8227 29.1668L14.5446 34.2792C14.3591 35.021 14.8102 35.7728 15.552 35.9582C16.2939 36.1437 17.0456 35.6927 17.2311 34.9508L18.2504 30.8737C18.3788 30.8917 18.5093 30.8917 18.6377 30.8737L19.657 34.9508C19.8424 35.6927 20.5942 36.1437 21.336 35.9582C22.0779 35.7728 22.529 35.021 22.3435 34.2792L21.0654 29.1668C21.0442 29.0821 21.0156 29.0011 20.9804 28.9243L21.9793 27.9255C22.4007 27.5041 22.5052 26.8603 22.2387 26.3272L22.1462 26.1424L22.3862 25.9824L28.2571 28.4398C29.0275 29.6171 30.3892 32.1639 30.9074 34.8751C31.0509 35.6262 31.7762 36.1187 32.5273 35.9751C33.2784 35.8316 33.7709 35.1063 33.6273 34.3552C32.9595 30.8608 31.1481 27.7048 30.2947 26.5141C30.1452 26.3055 29.9407 26.1425 29.7039 26.0434L23.1117 23.284C23.0176 23.2132 22.9157 23.1553 22.8088 23.1111V19.2157C22.8088 18.451 22.1889 17.8311 21.4242 17.8311C20.6595 17.8311 20.0396 18.451 20.0396 19.2157V24.0787C20.0396 24.1242 20.0418 24.1695 20.0462 24.2142L19.6069 24.5071C19.5969 24.5136 19.5869 24.5202 19.577 24.527L18.444 25.2823L17.311 24.527C17.3012 24.5202 17.2912 24.5136 17.2811 24.5071L16.6127 24.0614V19.2157C16.6127 18.451 15.9928 17.8311 15.2281 17.8311Z" fill="black"/>
<path fill-rule="evenodd" clip-rule="evenodd" d="M18.3257 0C21.4953 0 23.6943 1.17159 25.146 2.79037C26.5552 4.36176 27.1715 6.25196 27.4308 7.60868C27.6173 8.58421 27.6099 9.52885 27.5706 10.5556C27.5611 10.8061 27.5494 11.064 27.5374 11.3324L27.5373 11.3336C27.4989 12.1857 27.4555 13.1487 27.4555 14.3526C27.4555 14.7089 27.3181 15.0516 27.0719 15.3092C26.9284 15.4594 26.714 15.7054 26.4188 16.0442L26.4181 16.0451C26.2428 16.2462 26.0408 16.4781 25.8119 16.7376C25.2232 17.405 24.4964 18.208 23.7158 18.9827C22.9411 19.7514 22.0802 20.5257 21.2205 21.1165C20.4092 21.6741 19.385 22.2212 18.3257 22.2212C17.2664 22.2212 16.2422 21.6741 15.4309 21.1165C14.5713 20.5257 13.7104 19.7514 12.9357 18.9827C12.1551 18.208 11.4283 17.4049 10.8396 16.7376C10.6104 16.4778 10.4082 16.2457 10.2328 16.0444C9.93764 15.7055 9.72312 15.4594 9.57957 15.3092C9.33338 15.0515 9.196 14.7089 9.196 14.3526C9.19602 13.1484 9.15262 12.1853 9.11419 11.3332L9.11405 11.3301C9.102 11.0626 9.09041 10.8054 9.08086 10.5556C9.0416 9.52888 9.03417 8.58423 9.22062 7.60868C9.47992 6.25196 10.0962 4.36176 11.5054 2.79037C12.9571 1.17159 15.1562 0 18.3257 0ZM23.0844 4.63921C22.1738 3.62382 20.7326 2.76921 18.3257 2.76921C15.9189 2.76921 14.4777 3.62382 13.5671 4.63921C12.6755 5.63338 12.2084 6.88049 11.9837 7.91711C12.5397 7.51089 13.1513 7.12858 13.8044 6.80804C15.6984 5.8785 18.1269 5.39143 20.5167 6.64183C22.2877 7.56849 23.5787 7.98578 24.4345 8.15014C24.5382 8.17007 24.6346 8.18609 24.7238 8.19882C24.7197 8.17534 24.7153 8.15191 24.7109 8.12852C24.5055 7.05379 24.0375 5.70197 23.0844 4.63921ZM19.2328 9.09546C17.9043 8.4003 16.4599 8.58949 15.0245 9.29399C13.7409 9.92396 12.6158 10.9025 11.9023 11.6965C11.9288 12.3137 11.9542 13.0153 11.9624 13.8158C12.0882 13.9583 12.2285 14.1192 12.378 14.2908L12.3789 14.2918C12.5479 14.4856 12.729 14.6934 12.9163 14.9057C13.4893 15.5554 14.1695 16.3058 14.8863 17.017C15.609 17.7342 16.3359 18.3783 16.9994 18.8343C17.7119 19.324 18.1462 19.452 18.3257 19.452C18.5053 19.452 18.9395 19.324 19.652 18.8343C20.3156 18.3783 21.0425 17.7342 21.7652 17.017C22.4819 16.3058 23.1622 15.5554 23.7352 14.9057C23.9225 14.6933 24.1037 14.4855 24.2726 14.2917L24.2734 14.2908C24.423 14.1192 24.5633 13.9583 24.6891 13.8158C24.6997 12.7837 24.7389 11.9157 24.772 11.1814L24.7806 10.9908C24.5117 10.969 24.2221 10.9292 23.9121 10.8696C22.7284 10.6423 21.1795 10.114 19.2328 9.09546Z" fill="black"/>
</svg>
