<svg id="clip-attach" width="36" height="36" viewBox="0 0 36 36" fill="currentColor" xmlns="http://www.w3.org/2000/svg">
<g clip-path="url(#clip0_572_1883)">
<path d="M25.1611 26.5184C25.7202 25.9576 25.7202 25.0484 25.1611 24.4877C24.602 23.9269 23.6955 23.9269 23.1364 24.4877L16.8457 30.7969C13.8593 33.7921 9.33676 33.8534 6.73852 31.2475C4.14029 28.6416 4.20146 24.1057 7.18785 21.1105L23.9629 4.28606C25.7908 2.45278 28.5028 2.45786 30.0261 3.98562C31.5494 5.51339 31.5544 8.23345 29.7265 10.0667L12.9515 26.8912C12.2835 27.5611 11.3819 27.4924 10.9323 27.0414C10.4826 26.5904 10.4141 25.6861 11.082 25.0162L16.3242 19.7585C16.8833 19.1978 16.8833 18.2886 16.3242 17.7279C15.7651 17.1671 14.8586 17.1671 14.2995 17.7279L9.05733 22.9855C7.41337 24.6343 7.20258 27.3621 8.90756 29.0721C10.6125 30.7821 13.3323 30.5707 14.9762 28.9219L31.7513 12.0974C34.5538 9.28659 34.8306 4.74297 32.0508 1.95494C29.271 -0.833096 24.7407 -0.555445 21.9381 2.25538L5.16314 19.0798C1.20229 23.0524 0.858811 29.4118 4.71381 33.2782C8.5688 37.1446 14.9096 36.8001 18.8704 32.8275L25.1611 26.5184Z" fill="currentColor"/>
</g>
<defs>
<clipPath id="clip0_572_1883">
<rect width="36" height="36" fill="currentColor"/>
</clipPath>
</defs>
</svg>
