<svg width="36" height="36" viewBox="0 0 36 36" fill="none" xmlns="http://www.w3.org/2000/svg">
<path d="M10.6305 12.5885C10.0897 12.0478 10.0897 11.1711 10.6305 10.6304C11.1712 10.0897 12.0479 10.0897 12.5886 10.6304L18 16.0418L23.4114 10.6304C23.9521 10.0897 24.8288 10.0897 25.3695 10.6304C25.9103 11.1711 25.9103 12.0478 25.3695 12.5885L19.9581 17.9999L25.3697 23.4115C25.9104 23.9522 25.9104 24.8289 25.3697 25.3696C24.8289 25.9103 23.9522 25.9103 23.4115 25.3696L18 19.9581L12.5885 25.3696C12.0478 25.9103 11.1711 25.9103 10.6303 25.3696C10.0896 24.8289 10.0896 23.9522 10.6303 23.4115L16.0419 17.9999L10.6305 12.5885Z" fill="black"/>
<path fill-rule="evenodd" clip-rule="evenodd" d="M18 0C8.05888 0 0 8.05888 0 18C0 27.9411 8.05888 36 18 36C27.9411 36 36 27.9411 36 18C36 8.05888 27.9411 0 18 0ZM2.76923 18C2.76923 9.58828 9.58828 2.76923 18 2.76923C26.4117 2.76923 33.2308 9.58828 33.2308 18C33.2308 26.4117 26.4117 33.2308 18 33.2308C9.58828 33.2308 2.76923 26.4117 2.76923 18Z" fill="black"/>
</svg>
