<svg width="36" height="36" viewBox="0 0 36 36" fill="none" xmlns="http://www.w3.org/2000/svg">
<path fill-rule="evenodd" clip-rule="evenodd" d="M16.3384 7.20001C13.7384 7.20001 11.6307 9.30772 11.6307 11.9077V31.2923C11.6307 33.8923 13.7384 36 16.3384 36H31.2923C33.8923 36 36 33.8923 36 31.2923V11.9077C36 9.30772 33.8923 7.20001 31.2923 7.20001H16.3384ZM14.4 11.9077C14.4 10.8371 15.2678 9.96924 16.3384 9.96924H31.2923C32.3629 9.96924 33.2307 10.8371 33.2307 11.9077V31.2923C33.2307 32.3629 32.3629 33.2308 31.2923 33.2308H16.3384C15.2678 33.2308 14.4 32.3629 14.4 31.2923V11.9077Z" fill="black"/>
<path d="M4.70769 0C3.45913 0 2.26171 0.495987 1.37885 1.37885C0.495987 2.26171 0 3.45914 0 4.70769V24.0923C0 25.3409 0.495988 26.5383 1.37885 27.4212C2.26171 28.304 3.45913 28.8 4.70769 28.8H6.36923C7.13393 28.8 7.75385 28.1801 7.75385 27.4154C7.75385 26.6507 7.13393 26.0308 6.36923 26.0308H4.70769C4.19358 26.0308 3.70053 25.8265 3.33699 25.463C2.97346 25.0995 2.76923 24.6064 2.76923 24.0923V4.70769C2.76923 4.19358 2.97346 3.70052 3.33699 3.33699C3.70052 2.97346 4.19358 2.76923 4.70769 2.76923H19.6615C20.1756 2.76923 20.6687 2.97346 21.0322 3.33699C21.573 3.87772 22.4496 3.87772 22.9904 3.33699C23.5311 2.79627 23.5311 1.91958 22.9904 1.37885C22.1075 0.495988 20.9101 0 19.6615 0H4.70769Z" fill="black"/>
</svg>
