<svg width="36" height="36" viewBox="0 0 36 36" fill="none" xmlns="http://www.w3.org/2000/svg">
<path fill-rule="evenodd" clip-rule="evenodd" d="M14.0592 18C14.0592 15.8235 15.8235 14.0591 18 14.0591C20.1765 14.0591 21.9408 15.8235 21.9408 18C21.9408 20.1764 20.1765 21.9408 18 21.9408C15.8235 21.9408 14.0592 20.1764 14.0592 18ZM18 16.8284C17.3529 16.8284 16.8284 17.3529 16.8284 18C16.8284 18.647 17.3529 19.1716 18 19.1716C18.6471 19.1716 19.1716 18.647 19.1716 18C19.1716 17.3529 18.6471 16.8284 18 16.8284Z" fill="black"/>
<path fill-rule="evenodd" clip-rule="evenodd" d="M10.2249 18.6112C10.2249 14.1023 13.5886 10.2248 18 10.2248C22.4114 10.2248 25.7751 14.1023 25.7751 18.6112C25.7751 19.8755 25.5152 21.0803 25.0459 22.1628L25.041 22.174L19.2654 35.1774C19.0432 35.6776 18.5473 35.9999 18 35.9999C17.4527 35.9999 16.9567 35.6776 16.7346 35.1774L10.9541 22.1628C10.4847 21.0803 10.2249 19.8755 10.2249 18.6112ZM18 12.994C15.3503 12.994 12.9941 15.3886 12.9941 18.6112C12.9941 19.4926 13.1746 20.3207 13.4925 21.0559L13.493 21.0571L18 31.2043L22.507 21.0571L22.5075 21.0559C22.8254 20.3207 23.0059 19.4926 23.0059 18.6112C23.0059 15.3886 20.6497 12.994 18 12.994Z" fill="black"/>
<path d="M0 18C0 8.05888 8.05888 0 18 0C27.9411 0 36 8.05888 36 18C36 21.5665 34.9613 24.8946 33.1695 27.6933C32.7572 28.3373 31.9009 28.5252 31.2568 28.1128C30.6128 27.7005 30.425 26.8442 30.8373 26.2002C32.3523 23.8338 33.2308 21.0216 33.2308 18C33.2308 9.58828 26.4117 2.76923 18 2.76923C9.58828 2.76923 2.76923 9.58828 2.76923 18C2.76923 21.0216 3.64771 23.8338 5.1627 26.2002C5.57502 26.8442 5.38719 27.7005 4.74317 28.1128C4.09915 28.5252 3.24282 28.3373 2.8305 27.6933C1.03867 24.8946 0 21.5665 0 18Z" fill="black"/>
<path d="M5.1124 17.9999C5.1124 10.8823 10.8824 5.11237 18 5.11237C25.1176 5.11237 30.8875 10.8823 30.8875 17.9999C30.8875 20.0549 30.4055 22.0013 29.5472 23.7286C29.2069 24.4134 28.3758 24.6926 27.691 24.3523C27.0062 24.012 26.727 23.181 27.0673 22.4962C27.7396 21.1433 28.1183 19.6178 28.1183 17.9999C28.1183 12.4117 23.5882 7.8816 18 7.8816C12.4118 7.8816 7.88163 12.4117 7.88163 17.9999C7.88163 19.6178 8.26032 21.1433 8.93265 22.4962C9.27297 23.181 8.99371 24.012 8.3089 24.3523C7.6241 24.6926 6.79308 24.4134 6.45276 23.7286C5.59439 22.0013 5.1124 20.0549 5.1124 17.9999Z" fill="black"/>
</svg>
