<svg id="criteria" width="36" height="36" viewBox="0 0 36 36" fill="currentColor" xmlns="http://www.w3.org/2000/svg">
<path fill-rule="evenodd" clip-rule="evenodd" d="M0 26.2842C0 22.5751 2.95787 19.5684 6.60659 19.5684C10.2553 19.5684 13.2132 22.5751 13.2132 26.2842C13.2132 29.9932 10.2553 33 6.60659 33C2.95787 33 0 29.9932 0 26.2842ZM6.60659 22.3834C4.48728 22.3834 2.76923 24.1298 2.76923 26.2842C2.76923 28.4385 4.48728 30.1849 6.60659 30.1849C8.72591 30.1849 10.444 28.4385 10.444 26.2842C10.444 24.1298 8.72591 22.3834 6.60659 22.3834Z" fill="currentColor"/>
<path fill-rule="evenodd" clip-rule="evenodd" d="M15.0328 24.6756C15.0328 23.2764 16.1487 22.1421 17.5251 22.1421H33.5076C34.884 22.1421 35.9999 23.2764 35.9999 24.6756V27.8927C35.9999 29.292 34.884 30.4262 33.5076 30.4262H17.5251C16.1487 30.4262 15.0328 29.292 15.0328 27.8927V24.6756ZM17.8021 24.9571V27.6112L33.2306 27.6112V24.9571H17.8021Z" fill="currentColor"/>
<path d="M7.01099 3C3.13893 3 0 6.19081 0 10.1269C0 14.0629 3.13893 17.2538 7.01099 17.2538C7.77569 17.2538 8.39561 16.6236 8.39561 15.8463C8.39561 15.0689 7.77569 14.4388 7.01099 14.4388C4.66833 14.4388 2.76923 12.5083 2.76923 10.1269C2.76923 7.7455 4.66833 5.81501 7.01099 5.81501C7.9677 5.81501 8.8468 6.13528 9.55566 6.67667C10.167 7.1436 11.035 7.01831 11.4944 6.39683C11.9537 5.77535 11.8304 4.89302 11.2191 4.42609C10.0471 3.53099 8.58804 3 7.01099 3Z" fill="currentColor"/>
<path d="M17.6286 3.33306C17.0448 2.83095 16.1712 2.90495 15.6772 3.49837L9.60225 10.7965L6.86017 8.4737C6.27271 7.97605 5.39962 8.05674 4.91007 8.65391C4.42052 9.25108 4.49989 10.1386 5.08735 10.6362L8.88515 13.8534C9.46949 14.3484 10.3372 14.2715 10.8286 13.6813L17.7912 5.3167C18.2852 4.72329 18.2123 3.83518 17.6286 3.33306Z" fill="currentColor"/>
<path d="M19.9385 7.78555C19.9385 7.00821 20.5584 6.37805 21.3231 6.37805H33.5077C34.8842 6.37805 36 7.51234 36 8.91156V11.807C36 13.2062 34.8842 14.3405 33.5077 14.3405H16.8923C16.1276 14.3405 15.5077 13.7103 15.5077 12.933C15.5077 12.1557 16.1276 11.5255 16.8923 11.5255L33.2308 11.5255V9.19306H21.3231C20.5584 9.19306 19.9385 8.5629 19.9385 7.78555Z" fill="currentColor"/>
</svg>
