<svg width="36" height="36" viewBox="0 0 36 36" fill="none" xmlns="http://www.w3.org/2000/svg">
<path d="M14.2679 28.1226C13.5931 28.1226 13.012 28.0289 12.5246 27.8414C12.0466 27.6446 11.6482 27.3775 11.3296 27.04C11.0203 26.6933 10.7859 26.2949 10.6266 25.845C10.4766 25.3858 10.3876 24.8984 10.3595 24.3829C10.3501 24.1298 10.3407 23.8486 10.3314 23.5393C10.3314 23.2206 10.3314 22.902 10.3314 22.5833C10.3407 22.2646 10.3501 21.9741 10.3595 21.7116C10.3782 21.1961 10.4673 20.7134 10.6266 20.2635C10.7953 19.8136 11.039 19.42 11.3577 19.0826C11.6764 18.7451 12.0747 18.4827 12.5527 18.2952C13.0401 18.0984 13.6118 18 14.2679 18C14.924 18 15.4911 18.0984 15.9691 18.2952C16.4471 18.4827 16.8454 18.7451 17.1641 19.0826C17.4828 19.42 17.7218 19.8136 17.8811 20.2635C18.0498 20.7134 18.1483 21.1961 18.1764 21.7116C18.1858 21.9741 18.1904 22.2646 18.1904 22.5833C18.1998 22.902 18.1998 23.2206 18.1904 23.5393C18.1904 23.8486 18.1858 24.1298 18.1764 24.3829C18.1483 24.8984 18.0545 25.3858 17.8952 25.845C17.7359 26.2949 17.4969 26.6933 17.1782 27.04C16.8689 27.3775 16.4705 27.6446 15.9831 27.8414C15.5051 28.0289 14.9334 28.1226 14.2679 28.1226ZM14.2679 26.2949C14.8115 26.2949 15.2099 26.1168 15.463 25.7607C15.716 25.4045 15.8519 24.9218 15.8707 24.3126C15.88 24.0408 15.8847 23.7596 15.8847 23.469C15.8941 23.1785 15.8941 22.8879 15.8847 22.5973C15.8847 22.3068 15.88 22.035 15.8707 21.7819C15.8519 21.2008 15.716 20.7275 15.463 20.3619C15.2099 19.9964 14.8115 19.8089 14.2679 19.7996C13.7149 19.8089 13.3119 19.9964 13.0588 20.3619C12.8151 20.7275 12.6839 21.2008 12.6652 21.7819C12.6558 22.035 12.6464 22.3068 12.6371 22.5973C12.6371 22.8879 12.6371 23.1785 12.6371 23.469C12.6464 23.7596 12.6558 24.0408 12.6652 24.3126C12.6839 24.9218 12.8198 25.4045 13.0729 25.7607C13.326 26.1168 13.7243 26.2949 14.2679 26.2949Z" fill="black"/>
<path d="M22.8576 27.982C22.7639 27.982 22.6796 27.9492 22.6046 27.8836C22.539 27.818 22.5062 27.7336 22.5062 27.6305V20.6431L20.4816 22.2037C20.3973 22.2693 20.3082 22.2927 20.2145 22.274C20.1302 22.2552 20.0552 22.2037 19.9896 22.1193L19.2866 21.2055C19.2304 21.1211 19.2069 21.0321 19.2163 20.9384C19.2351 20.8446 19.2866 20.7697 19.371 20.7134L22.5765 18.239C22.6327 18.2015 22.6842 18.1781 22.7311 18.1687C22.7873 18.15 22.8483 18.1406 22.9139 18.1406H24.4042C24.4979 18.1406 24.5775 18.1734 24.6432 18.239C24.7088 18.3046 24.7416 18.389 24.7416 18.4921V27.6305C24.7416 27.7336 24.7088 27.818 24.6432 27.8836C24.5775 27.9492 24.4979 27.982 24.4042 27.982H22.8576Z" fill="black"/>
<path fill-rule="evenodd" clip-rule="evenodd" d="M28.3314 1.38462C28.3314 0.619913 27.7114 0 26.9467 0C26.182 0 25.5621 0.619913 25.5621 1.38462V2.55615H10.4379V1.38462C10.4379 0.619913 9.81796 0 9.05326 0C8.28855 0 7.66864 0.619913 7.66864 1.38462V2.56417C3.40143 2.75354 0 6.273 0 10.5869V27.9692C0 32.4044 3.5955 35.9999 8.03077 35.9999H27.9692C32.4045 35.9999 36 32.4044 36 27.9692V10.5869C36 6.27301 32.5986 2.75354 28.3314 2.56417V1.38462ZM25.5621 5.32538V6.49704C25.5621 7.26174 26.182 7.88166 26.9467 7.88166C27.7114 7.88166 28.3314 7.26174 28.3314 6.49704V5.33765C30.9487 5.51556 33.0406 7.60753 33.2185 10.2248H2.78149C2.95937 7.60753 5.05134 5.51556 7.66864 5.33765V6.49704C7.66864 7.26174 8.28855 7.88166 9.05326 7.88166C9.81796 7.88166 10.4379 7.26174 10.4379 6.49704V5.32538H25.5621ZM33.2308 12.994H2.76923V27.9692C2.76923 30.875 5.1249 33.2307 8.03077 33.2307H27.9692C30.8751 33.2307 33.2308 30.875 33.2308 27.9692V12.994Z" fill="black"/>
</svg>
