<svg id="" width="36" height="36" viewBox="0 0 36 36" fill="currentColor" xmlns="http://www.w3.org/2000/svg">
<path fill-rule="evenodd" clip-rule="evenodd" d="M8.03077 2.55615C3.5955 2.55615 0 6.15165 0 10.5869V27.9692C0 32.4044 3.5955 35.9999 8.03077 35.9999H27.9692C32.4045 35.9999 36 32.4044 36 27.9692V10.5869C36 6.15165 32.4045 2.55615 27.9692 2.55615H8.03077ZM33.2185 10.2248H2.78149C2.96751 7.48788 5.24662 5.32538 8.03077 5.32538H27.9692C30.7534 5.32538 33.0325 7.48788 33.2185 10.2248ZM2.76923 12.994H33.2308V27.9692C33.2308 30.875 30.8751 33.2307 27.9692 33.2307H8.03077C5.1249 33.2307 2.76923 30.875 2.76923 27.9692V12.994Z" fill="currentColor"/>
<path fill-rule="evenodd" clip-rule="evenodd" d="M26.9467 0.276923C27.5585 0.276923 28.0544 0.772854 28.0544 1.38462V6.49704C28.0544 7.1088 27.5585 7.60473 26.9467 7.60473C26.335 7.60473 25.839 7.1088 25.839 6.49704V1.38462C25.839 0.772854 26.335 0.276923 26.9467 0.276923ZM9.05324 0.276923C9.665 0.276923 10.1609 0.772854 10.1609 1.38462V6.49704C10.1609 7.1088 9.665 7.60473 9.05324 7.60473C8.44148 7.60473 7.94555 7.1088 7.94555 6.49704V1.38462C7.94555 0.772854 8.44148 0.276923 9.05324 0.276923Z" fill="currentColor"/>
<path fill-rule="evenodd" clip-rule="evenodd" d="M26.9467 0C27.7114 0 28.3313 0.619913 28.3313 1.38462V6.49704C28.3313 7.26174 27.7114 7.88166 26.9467 7.88166C26.182 7.88166 25.5621 7.26174 25.5621 6.49704V1.38462C25.5621 0.619913 26.182 0 26.9467 0ZM27.7775 1.38462C27.7775 0.925794 27.4056 0.553846 26.9467 0.553846C26.4879 0.553846 26.116 0.925794 26.116 1.38462V6.49704C26.116 6.95586 26.4879 7.32781 26.9467 7.32781C27.4056 7.32781 27.7775 6.95586 27.7775 6.49704V1.38462ZM9.05324 0C9.81794 0 10.4379 0.619913 10.4379 1.38462V6.49704C10.4379 7.26174 9.81794 7.88166 9.05324 7.88166C8.28854 7.88166 7.66862 7.26174 7.66862 6.49704V1.38462C7.66862 0.619913 8.28854 0 9.05324 0ZM9.88401 1.38462C9.88401 0.925794 9.51206 0.553846 9.05324 0.553846C8.59442 0.553846 8.22247 0.925794 8.22247 1.38462V6.49704C8.22247 6.95586 8.59442 7.32781 9.05324 7.32781C9.51206 7.32781 9.88401 6.95586 9.88401 6.49704V1.38462Z" fill="currentColor"/>
</svg>
