<svg width="36" height="36" viewBox="0 0 36 36" fill="none" xmlns="http://www.w3.org/2000/svg">
<path fill-rule="evenodd" clip-rule="evenodd" d="M13.0308 0C8.5955 0 5 3.5955 5 8.03077V27.9692C5 32.4045 8.5955 36 13.0308 36H22.7444C27.1796 36 30.7751 32.4045 30.7751 27.9692V11.616C30.7751 11.2491 30.6296 10.8973 30.3704 10.6377L20.1564 0.406372C19.8966 0.1462 19.5441 0 19.1765 0H13.0308ZM7.76923 8.03077C7.76923 5.1249 10.1249 2.76923 13.0308 2.76923H18.6023L28.0059 12.1888V27.9692C28.0059 30.8751 25.6502 33.2308 22.7444 33.2308H13.0308C10.1249 33.2308 7.76923 30.8751 7.76923 27.9692V8.03077Z" fill="black"/>
<path d="M17.8875 5.11237C17.1228 5.11237 16.5029 5.73228 16.5029 6.49698V12.8875C16.5029 13.6522 17.1228 14.2721 17.8875 14.2721H24.2781C25.0428 14.2721 25.6627 13.6522 25.6627 12.8875C25.6627 12.1228 25.0428 11.5029 24.2781 11.5029H19.2722V6.49698C19.2722 5.73228 18.6522 5.11237 17.8875 5.11237Z" fill="black"/>
</svg>
