<svg width="36" height="36" viewBox="0 0 36 36" fill="none" xmlns="http://www.w3.org/2000/svg">
<path d="M3.25 6C2.55964 6 2 6.55964 2 7.25C2 7.94036 2.55964 8.5 3.25 8.5H33.25C33.9404 8.5 34.5 7.94036 34.5 7.25C34.5 6.55964 33.9404 6 33.25 6H3.25Z" fill="black"/>
<path d="M7.25 16.5C6.55964 16.5 6 17.0596 6 17.75C6 18.4404 6.55964 19 7.25 19H29.25C29.9404 19 30.5 18.4404 30.5 17.75C30.5 17.0596 29.9404 16.5 29.25 16.5H18.25H7.25Z" fill="black"/>
<path d="M11.25 27C10.5596 27 10 27.5596 10 28.25C10 28.9404 10.5596 29.5 11.25 29.5H25.25C25.9404 29.5 26.5 28.9404 26.5 28.25C26.5 27.5596 25.9404 27 25.25 27H11.25Z" fill="black"/>
</svg>
