<svg width="36" height="36" viewBox="0 0 36 36" fill="none" xmlns="http://www.w3.org/2000/svg">
<path d="M13.2739 0C5.94291 0 0 5.94291 0 13.2739C0 18.1889 2.67215 22.4781 6.63587 24.771C7.3331 25.1743 8.22529 24.9361 8.62861 24.2389C9.03194 23.5416 8.79368 22.6494 8.09645 22.2461C4.997 20.4532 2.91693 17.1056 2.91693 13.2739C2.91693 7.55388 7.55388 2.91693 13.2739 2.91693C17.9867 2.91693 21.9677 6.06589 23.2207 10.3774C23.3734 10.9026 23.7955 11.2763 24.2928 11.3917C24.5663 11.4881 24.8712 11.5041 25.1716 11.4196C25.7073 11.2688 26.2737 11.1877 26.8615 11.1877C30.2976 11.1877 33.0831 13.9732 33.0831 17.4092C33.0831 19.9023 31.6167 22.0557 29.4933 23.0487C28.7637 23.39 28.4488 24.2581 28.79 24.9877C29.1312 25.7173 29.9993 26.0322 30.729 25.691C33.8398 24.2362 36 21.0765 36 17.4092C36 12.3622 31.9086 8.27075 26.8615 8.27075C26.4363 8.27075 26.0173 8.29989 25.6066 8.35639C23.6528 3.46095 18.8692 0 13.2739 0Z" fill="black"/>
<path d="M16.5415 30.5131L13.2127 26.5186C12.6971 25.8998 11.7774 25.8162 11.1586 26.3318C10.5398 26.8475 10.4562 27.7672 10.9719 28.386L16.8733 35.4677C16.8874 35.4848 16.9019 35.5016 16.9168 35.5181C17.1678 35.7963 17.5245 35.9774 17.9236 35.998C17.9489 35.9993 17.9744 36 18 36C18.3344 36 18.6555 35.8852 18.912 35.6796C18.9875 35.6191 19.0574 35.5508 19.1204 35.4752L25.0281 28.386C25.5438 27.7672 25.4602 26.8475 24.8414 26.3318C24.2226 25.8162 23.3029 25.8998 22.7873 26.5186L19.4584 30.5132V19.1815C19.4584 18.376 18.8055 17.723 18 17.723C17.1945 17.723 16.5415 18.376 16.5415 19.1815V30.5131Z" fill="black"/>
</svg>
