<svg id="" width="36" height="36" viewBox="0 0 36 36" fill="currentColor" xmlns="http://www.w3.org/2000/svg">
<path d="M11.8618 1C9.72901 1 8 2.72901 8 4.86184C8 6.99468 9.72901 8.72369 11.8618 8.72369C13.9947 8.72369 15.7237 6.99468 15.7237 4.86184C15.7237 2.72901 13.9947 1 11.8618 1Z" fill="currentColor"/>
<path d="M23.8058 1C21.6729 1 19.9439 2.72901 19.9439 4.86184C19.9439 6.99468 21.6729 8.72369 23.8058 8.72369C25.9386 8.72369 27.6676 6.99468 27.6676 4.86184C27.6676 2.72901 25.9386 1 23.8058 1Z" fill="currentColor"/>
<path d="M11.8618 14.1382C9.72901 14.1382 8 15.8672 8 18C8 20.1328 9.72901 21.8618 11.8618 21.8618C13.9947 21.8618 15.7237 20.1328 15.7237 18C15.7237 15.8672 13.9947 14.1382 11.8618 14.1382Z" fill="currentColor"/>
<path d="M23.8058 14.1382C21.6729 14.1382 19.9439 15.8672 19.9439 18C19.9439 20.1328 21.6729 21.8618 23.8058 21.8618C25.9386 21.8618 27.6676 20.1328 27.6676 18C27.6676 15.8672 25.9386 14.1382 23.8058 14.1382Z" fill="currentColor"/>
<path d="M11.8618 27.2763C9.72901 27.2763 8 29.0053 8 31.1382C8 33.271 9.72901 35 11.8618 35C13.9947 35 15.7237 33.271 15.7237 31.1382C15.7237 29.0053 13.9947 27.2763 11.8618 27.2763Z" fill="currentColor"/>
<path d="M23.8058 27.2763C21.6729 27.2763 19.9439 29.0053 19.9439 31.1382C19.9439 33.271 21.6729 35 23.8058 35C25.9386 35 27.6676 33.271 27.6676 31.1382C27.6676 29.0053 25.9386 27.2763 23.8058 27.2763Z" fill="currentColor"/>
</svg>
