<svg width="36" height="36" viewBox="0 0 36 36" fill="none" xmlns="http://www.w3.org/2000/svg">
<g clip-path="url(#clip0_505_1030)">
<path d="M7.01644 0.000854492C3.79088 0.000854492 1.17615 2.61708 1.17615 5.84423V16.0967C1.17615 16.8073 1.7519 17.3834 2.46225 17.3834C3.1726 17.3834 3.74835 16.8073 3.74835 16.0967V5.84423C3.74835 4.03825 5.21158 2.57432 7.01644 2.57432H27.6673C30.8487 2.57432 33.4278 5.15478 33.4278 8.33807V26.1336C33.4278 29.3169 30.8487 31.8973 27.6673 31.8973H19.7399C19.0296 31.8973 18.4538 32.4735 18.4538 33.1841C18.4538 33.8947 19.0296 34.4708 19.7399 34.4708H27.6673C32.2694 34.4708 36 30.7381 36 26.1336V8.33807C36 3.73361 32.2694 0.000854492 27.6673 0.000854492H7.01644Z" fill="black"/>
<path fill-rule="evenodd" clip-rule="evenodd" d="M27.7497 8.31571C25.6358 6.22805 22.2098 6.22806 20.0959 8.31572L8.0814 20.1811C7.4006 20.8534 6.91776 21.6484 6.63377 22.4947L2.86171 30.8508C2.65907 31.2997 2.73652 31.8236 3.05947 32.196C3.382 32.5681 3.89122 32.7224 4.36774 32.5948L13.5702 30.1305C14.6551 29.8996 15.688 29.3677 16.5312 28.5348L28.5458 16.6694C30.6614 14.5801 30.6614 11.1912 28.5458 9.10185L27.7497 8.31571ZM21.9078 10.1138C23.0203 9.0151 24.8254 9.0151 25.9379 10.1138L26.7339 10.9C27.8447 11.997 27.8447 13.7743 26.7339 14.8713L26.0935 15.5038L21.1256 10.8863L21.9078 10.1138ZM9.89324 21.9792L19.3083 12.681L24.2762 17.2985L14.7194 26.7367C14.252 27.1983 13.683 27.4979 13.0832 27.6356C13.0482 27.6416 13.0133 27.649 12.9784 27.658C11.8958 27.8716 10.7305 27.5636 9.89323 26.7367C8.97673 25.8316 8.69162 24.5402 9.03731 23.3944C9.06404 23.3317 9.08533 23.2678 9.10134 23.2034C9.26609 22.7572 9.52979 22.3382 9.89324 21.9792ZM6.30652 29.4445L7.20944 27.4443C7.45067 27.8326 7.74137 28.199 8.0814 28.5348C8.20074 28.6527 8.32391 28.7646 8.45051 28.8704L6.30652 29.4445Z" fill="black"/>
</g>
<defs>
<clipPath id="clip0_505_1030">
<rect width="36" height="36" fill="white"/>
</clipPath>
</defs>
</svg>
