<svg width="36" height="36" viewBox="0 0 36 36" fill="none" xmlns="http://www.w3.org/2000/svg">
<g clip-path="url(#clip0_574_1895)">
<path d="M7.06504 21.0469C6.36742 20.7398 5.54977 21.0493 5.23876 21.7382L0.11986 33.0779C-0.0975659 33.5596 -0.0147992 34.1218 0.332499 34.5224C0.679797 34.923 1.22957 35.0903 1.74494 34.9523L14.1553 31.629C14.8925 31.4316 15.3281 30.6814 15.1282 29.9533C14.9283 29.2253 14.1687 28.7951 13.4315 28.9925L3.83208 31.5631L7.76506 22.8505C8.07607 22.1616 7.76266 21.3541 7.06504 21.0469Z" fill="black"/>
<path fill-rule="evenodd" clip-rule="evenodd" d="M32.9087 3.0002C30.2082 0.333263 25.8299 0.333266 23.1294 3.00021L7.04001 18.8899C4.04518 21.8476 4.04518 26.6429 7.04 29.6005C10.0348 32.5582 14.8904 32.5582 17.8852 29.6005L33.9747 13.7108C36.6751 11.0439 36.6751 6.71991 33.9747 4.05297L32.9087 3.0002ZM25.0853 4.93178C26.7056 3.33161 29.3325 3.33161 30.9528 4.93177L32.0188 5.98454C33.6391 7.5847 33.6391 10.1791 32.0188 11.7792L30.9329 12.8517L23.7913 6.21376L23.7892 6.21181L25.0853 4.93178ZM21.8956 8.20298L28.9762 14.7841L15.9294 27.669C14.0147 29.5598 10.9105 29.5598 8.99585 27.669C7.08121 25.7781 7.08121 22.7124 8.99585 20.8215L21.8343 8.14239C21.854 8.16308 21.8744 8.18329 21.8956 8.20298Z" fill="black"/>
</g>
<defs>
<clipPath id="clip0_574_1895">
<rect width="36" height="36" fill="white"/>
</clipPath>
</defs>
</svg>
