<svg width="36" height="36" viewBox="0 0 36 36" fill="none" xmlns="http://www.w3.org/2000/svg">
<path d="M34.5732 0.000156126C34.9398 -0.00529252 35.3082 0.131873 35.588 0.411653C35.7216 0.545248 35.8227 0.699047 35.8912 0.863214C35.9611 1.03012 35.9997 1.21338 35.9997 1.40565L35.9997 10.3533C35.9997 11.1296 35.3705 11.7588 34.5942 11.7588C33.818 11.7588 33.1888 11.1296 33.1888 10.3533V4.79861L22.8511 15.1363C22.3023 15.6852 21.4124 15.6852 20.8635 15.1364C20.3146 14.5875 20.3146 13.6976 20.8635 13.1487L31.2009 2.81108L25.6466 2.81099C24.8704 2.81097 24.2411 2.1817 24.2411 1.40547C24.2412 0.629237 24.8704 -1.32985e-05 25.6467 3.75212e-09L34.5732 0.000156126Z" fill="black"/>
<path fill-rule="evenodd" clip-rule="evenodd" d="M14.1481 7.62422H7.33477L7.59605 7.35483C7.63001 7.31981 7.66179 7.28348 7.69138 7.24601C8.18352 6.84247 8.81304 6.60029 9.49913 6.60029H23.1359C23.9121 6.60029 24.5414 5.97103 24.5414 5.1948C24.5414 4.41857 23.9121 3.78931 23.1359 3.78931H9.49913C7.70828 3.78931 6.11156 4.62044 5.07364 5.91803L1.90971 9.18013C1.73195 9.34352 1.56423 9.51768 1.40759 9.70157L1.39767 9.71325C0.525954 10.742 0.000244141 12.0733 0.000244141 13.5273V30.0967C0.000244141 33.3569 2.64315 35.9998 5.90332 35.9998H19.9163C21.4514 35.9998 22.8497 35.4138 23.8996 34.4533L27.7476 31.199C27.8017 31.1534 27.8514 31.1045 27.8968 31.0529C28.9703 30.1638 29.6543 28.8208 29.6543 27.318V14.1424C29.6543 13.3662 29.025 12.7369 28.2488 12.7369C27.4725 12.7369 26.8433 13.3662 26.8433 14.1424V27.318C26.8433 28.074 26.4312 28.7338 25.8194 29.085V17.9773C25.8194 17.2011 25.1901 16.5718 24.4139 16.5718C23.6376 16.5718 23.0084 17.2011 23.0084 17.9773V30.0967C23.0084 30.9841 22.6346 31.7841 22.0359 32.348L21.9001 32.4628C21.8772 32.4822 21.855 32.5022 21.8336 32.5227C21.3066 32.9398 20.6405 33.1888 19.9163 33.1888H5.90332C4.19561 33.1888 2.81123 31.8044 2.81123 30.0967V13.5273C2.81123 12.7792 3.07689 12.0932 3.519 11.5584L3.8621 11.2046C4.21658 10.8929 4.64302 10.661 5.11328 10.537V20.5332C5.11328 21.1017 5.45572 21.6142 5.98092 21.8317C6.50611 22.0493 7.11064 21.929 7.51261 21.527L10.3535 18.6862L13.1943 21.527C13.5963 21.929 14.2008 22.0493 14.726 21.8317C15.2512 21.6142 15.5936 21.1017 15.5936 20.5332V10.4352H19.3009C20.0772 10.4352 20.7064 9.80594 20.7064 9.02971C20.7064 8.25348 20.0772 7.62422 19.3009 7.62422H14.2282C14.2149 7.62384 14.2016 7.62366 14.1881 7.62366C14.1747 7.62366 14.1614 7.62384 14.1481 7.62422ZM12.7827 10.4352H7.92427V17.1401L9.35963 15.7047C9.90851 15.1558 10.7984 15.1558 11.3473 15.7047L12.7827 17.1401V10.4352Z" fill="black"/>
</svg>
