<svg width="36" height="36" viewBox="0 0 36 36" fill="none" xmlns="http://www.w3.org/2000/svg">
<path d="M8.53922 2.54529C3.82317 2.54529 6.10352e-05 6.36841 6.10352e-05 11.0845V27.4609C6.10352e-05 32.1769 3.82318 36 8.53923 36H24.9156C29.6317 36 33.4548 32.1769 33.4548 27.4609V18.3917C33.4548 17.5871 32.8026 16.9349 31.998 16.9349C31.1934 16.9349 30.5412 17.5871 30.5412 18.3917V27.4609C30.5412 30.5678 28.0225 33.0864 24.9156 33.0864H8.53923C5.43231 33.0864 2.91366 30.5678 2.91366 27.4609V11.0845C2.91366 7.97754 5.43231 5.45889 8.53922 5.45889H16.6562C17.4608 5.45889 18.113 4.80666 18.113 4.00209C18.113 3.19752 17.4608 2.54529 16.6562 2.54529H8.53922Z" fill="black"/>
<path d="M35.5732 0.426799C35.4188 0.272422 35.2378 0.15956 35.0446 0.0888528C34.8795 0.0284192 34.7058 -0.00109462 34.5325 0.000154565L25.6353 2.20342e-10C24.8307 -1.38439e-05 24.1785 0.652206 24.1785 1.45677C24.1785 2.26134 24.8307 2.91358 25.6352 2.9136L31.0261 2.91369L16.3336 17.6063C15.7647 18.1753 15.7647 19.0977 16.3336 19.6666C16.9025 20.2355 17.8249 20.2355 18.3938 19.6666L33.0863 4.97397V10.3649C33.0863 11.1694 33.7385 11.8217 34.5431 11.8217C35.3477 11.8217 35.9999 11.1694 35.9999 10.3649L35.9999 1.4614C35.9999 1.44654 35.9998 1.43118 35.9993 1.41634C35.9946 1.24497 35.9602 1.08052 35.9009 0.928295C35.8298 0.74533 35.7203 0.573849 35.5732 0.426799Z" fill="black"/>
</svg>
