<svg width="36" height="36" viewBox="0 0 36 36" fill="none" xmlns="http://www.w3.org/2000/svg">
<path d="M1.54286 6.79785C0.690761 6.79785 0 7.48861 0 8.34071C0 9.19281 0.690761 9.88357 1.54286 9.88357H5.34066C6.19276 9.88357 6.88352 9.19281 6.88352 8.34071C6.88352 7.48861 6.19276 6.79785 5.34066 6.79785H1.54286Z" fill="black"/>
<path d="M12.9363 6.79785C12.0842 6.79785 11.3934 7.48861 11.3934 8.34071C11.3934 9.1928 12.0842 9.88357 12.9363 9.88357H34.4571C35.3092 9.88357 36 9.19281 36 8.34071C36 7.48861 35.3092 6.79785 34.4571 6.79785H12.9363Z" fill="black"/>
<path d="M1.54286 16.6594C0.690761 16.6594 0 17.3502 0 18.2022C0 19.0543 0.690761 19.7451 1.54286 19.7451H24.3297C25.1818 19.7451 25.8725 19.0543 25.8725 18.2022C25.8725 17.3502 25.1818 16.6594 24.3297 16.6594H1.54286Z" fill="black"/>
<path d="M31.9253 16.6594C31.0732 16.6594 30.3824 17.3502 30.3824 18.2022C30.3824 19.0543 31.0732 19.7451 31.9253 19.7451H34.4571C35.3092 19.7451 36 19.0543 36 18.2022C36 17.3502 35.3092 16.6594 34.4571 16.6594H31.9253Z" fill="black"/>
<path d="M1.54286 26.5209C0.690761 26.5209 0 27.2117 0 28.0638C0 28.9159 0.690761 29.6066 1.54286 29.6066H15.4681C16.3202 29.6066 17.011 28.9159 17.011 28.0638C17.011 27.2117 16.3202 26.5209 15.4681 26.5209H1.54286Z" fill="black"/>
<path d="M23.0637 26.5209C22.2116 26.5209 21.5209 27.2117 21.5209 28.0638C21.5209 28.9159 22.2116 29.6066 23.0637 29.6066H34.4571C35.3092 29.6066 36 28.9159 36 28.0638C36 27.2117 35.3092 26.5209 34.4571 26.5209H23.0637Z" fill="black"/>
<path fill-rule="evenodd" clip-rule="evenodd" d="M9.13833 3C6.18876 3 3.79767 5.39109 3.79767 8.34066C3.79767 11.2902 6.18876 13.6813 9.13833 13.6813C12.0879 13.6813 14.479 11.2902 14.479 8.34066C14.479 5.39109 12.0879 3 9.13833 3ZM6.88338 8.34066C6.88338 7.09529 7.89296 6.08571 9.13833 6.08571C10.3837 6.08571 11.3933 7.09529 11.3933 8.34066C11.3933 9.58603 10.3837 10.5956 9.13833 10.5956C7.89296 10.5956 6.88338 9.58603 6.88338 8.34066Z" fill="black"/>
<path fill-rule="evenodd" clip-rule="evenodd" d="M28.1273 12.8615C25.1778 12.8615 22.7867 15.2526 22.7867 18.2022C22.7867 21.1518 25.1778 23.5429 28.1273 23.5429C31.0769 23.5429 33.468 21.1518 33.468 18.2022C33.468 15.2526 31.0769 12.8615 28.1273 12.8615ZM25.8724 18.2022C25.8724 16.9568 26.882 15.9473 28.1273 15.9473C29.3727 15.9473 30.3823 16.9568 30.3823 18.2022C30.3823 19.4476 29.3727 20.4571 28.1273 20.4571C26.882 20.4571 25.8724 19.4476 25.8724 18.2022Z" fill="black"/>
<path fill-rule="evenodd" clip-rule="evenodd" d="M19.2658 22.7231C16.3162 22.7231 13.9251 25.1142 13.9251 28.0637C13.9251 31.0133 16.3162 33.4044 19.2658 33.4044C22.2154 33.4044 24.6065 31.0133 24.6065 28.0637C24.6065 25.1142 22.2154 22.7231 19.2658 22.7231ZM17.0109 28.0637C17.0109 26.8184 18.0204 25.8088 19.2658 25.8088C20.5112 25.8088 21.5207 26.8184 21.5207 28.0637C21.5207 29.3091 20.5112 30.3187 19.2658 30.3187C18.0204 30.3187 17.0109 29.3091 17.0109 28.0637Z" fill="black"/>
</svg>
