<svg id="" width="36" height="36" viewBox="0 0 36 36" fill="currentColor" xmlns="http://www.w3.org/2000/svg">
<g clip-path="url(#clip0_505_1471)">
<path fill-rule="evenodd" clip-rule="evenodd" d="M25.8391 1.38461C25.8391 0.772853 26.335 0.276923 26.9468 0.276923H34.6154C35.2272 0.276923 35.7231 0.772853 35.7231 1.38461V9.05324C35.7231 9.665 35.2272 10.1609 34.6154 10.1609C34.0037 10.1609 33.5077 9.665 33.5077 9.05324V4.5873L21.4273 19.9624C21.1928 20.2608 20.8219 20.4184 20.4444 20.3801C20.0669 20.3418 19.7352 20.1129 19.5655 19.7735L17.7771 16.1966L2.2444 35.3138C1.85863 35.7886 1.161 35.8608 0.686202 35.475C0.211406 35.0893 0.139238 34.3916 0.52501 33.9168L17.1404 13.4672C17.3776 13.1751 17.7469 13.0235 18.1209 13.0646C18.4949 13.1056 18.8225 13.3338 18.9908 13.6703L20.7653 17.2192L32.3364 2.4923H26.9468C26.335 2.4923 25.8391 1.99637 25.8391 1.38461Z" fill="currentColor"/>
<path fill-rule="evenodd" clip-rule="evenodd" d="M25.5622 1.38461C25.5622 0.619913 26.1821 0 26.9468 0H34.6154C35.3801 0 36 0.619914 36 1.38461V9.05324C36 9.81794 35.3801 10.4379 34.6154 10.4379C33.8507 10.4379 33.2308 9.81794 33.2308 9.05324V5.38797L21.645 20.1335C21.352 20.5065 20.8884 20.7035 20.4164 20.6556C19.9445 20.6077 19.53 20.3216 19.3178 19.8973L17.7214 16.7044L2.45932 35.4885C1.97711 36.082 1.10507 36.1722 0.511576 35.69C-0.081918 35.2077 -0.172129 34.3357 0.310086 33.7422L16.9254 13.2925C17.222 12.9275 17.6836 12.738 18.1511 12.7893C18.6187 12.8406 19.0282 13.1258 19.2385 13.5464L20.8175 16.7045L31.7666 2.76923H26.9468C26.1821 2.76923 25.5622 2.14931 25.5622 1.38461ZM26.9468 0.553846C26.488 0.553846 26.116 0.925793 26.116 1.38461C26.116 1.84343 26.488 2.21538 26.9468 2.21538H32.3364C32.4424 2.21538 32.5391 2.2759 32.5855 2.37125C32.6318 2.4666 32.6196 2.58003 32.5541 2.66339L20.983 17.3903C20.9244 17.4649 20.8317 17.5043 20.7373 17.4947C20.6429 17.4851 20.56 17.4279 20.5176 17.343L18.7431 13.7941C18.6169 13.5417 18.3712 13.3706 18.0907 13.3399C17.8102 13.3091 17.5332 13.4228 17.3553 13.6418L0.739933 34.0915C0.450604 34.4476 0.50473 34.9708 0.860828 35.2601C1.21692 35.5494 1.74015 35.4953 2.02947 35.1392L17.5622 16.022C17.6215 15.949 17.7138 15.9111 17.8073 15.9214C17.9008 15.9316 17.9827 15.9887 18.0248 16.0728L19.8132 19.6496C19.9405 19.9042 20.1892 20.0759 20.4724 20.1046C20.7555 20.1333 21.0337 20.0151 21.2095 19.7913L33.29 4.41621C33.3629 4.32339 33.4867 4.287 33.5983 4.32559C33.7098 4.36418 33.7847 4.46925 33.7847 4.5873V9.05324C33.7847 9.51206 34.1566 9.88401 34.6154 9.88401C35.0743 9.88401 35.4462 9.51207 35.4462 9.05324V1.38461C35.4462 0.925792 35.0743 0.553846 34.6154 0.553846H26.9468Z" fill="currentColor"/>
<path d="M36.0001 15.4438C36.0001 14.6791 35.3802 14.0592 34.6155 14.0592C33.8508 14.0592 33.2308 14.6791 33.2308 15.4438V34.6154C33.2308 35.3801 33.8508 36 34.6155 36C35.3802 36 36.0001 35.3801 36.0001 34.6154V15.4438Z" fill="currentColor"/>
<path d="M29.6095 19.2781C29.6095 18.5134 28.9896 17.8935 28.2249 17.8935C27.4602 17.8935 26.8403 18.5134 26.8403 19.2781L26.8403 34.6154C26.8403 35.3801 27.4602 36 28.2249 36C28.9896 36 29.6095 35.3801 29.6095 34.6154L29.6095 19.2781Z" fill="currentColor"/>
<path d="M23.219 26.9468C23.219 26.1821 22.5991 25.5621 21.8344 25.5621C21.0697 25.5621 20.4498 26.1821 20.4498 26.9468L20.4498 34.6154C20.4498 35.3801 21.0697 36 21.8344 36C22.5991 36 23.219 35.3801 23.219 34.6154V26.9468Z" fill="currentColor"/>
<path d="M16.8285 26.9468C16.8285 26.1821 16.2086 25.5621 15.4439 25.5621C14.6792 25.5621 14.0593 26.1821 14.0593 26.9468V34.6154C14.0593 35.3801 14.6792 36 15.4439 36C16.2086 36 16.8285 35.3801 16.8285 34.6154L16.8285 26.9468Z" fill="currentColor"/>
</g>
<defs>
<clipPath id="clip0_505_1471">
<rect width="36" height="36" fill="currentColor"/>
</clipPath>
</defs>
</svg>
