<svg width="36" height="36" viewBox="0 0 36 36" fill="none" xmlns="http://www.w3.org/2000/svg">
<path fill-rule="evenodd" clip-rule="evenodd" d="M8.03077 0C3.5955 0 0 3.5955 0 8.03077V27.9692C0 32.4045 3.5955 36 8.03077 36H27.9692C32.4045 36 36 32.4045 36 27.9692V8.03077C36 3.5955 32.4045 0 27.9692 0H8.03077ZM2.76923 8.03077C2.76923 5.1249 5.1249 2.76923 8.03077 2.76923H27.9692C30.8751 2.76923 33.2308 5.1249 33.2308 8.03077V27.9692C33.2308 30.8751 30.8751 33.2308 27.9692 33.2308H8.03077C5.1249 33.2308 2.76923 30.8751 2.76923 27.9692V8.03077Z" fill="black"/>
<path fill-rule="evenodd" clip-rule="evenodd" d="M11.6092 7.6687C9.43277 7.6687 7.6684 9.43307 7.6684 11.6095C7.6684 13.786 9.43277 15.5504 11.6092 15.5504C13.7857 15.5504 15.5501 13.786 15.5501 11.6095C15.5501 9.43307 13.7857 7.6687 11.6092 7.6687ZM10.4376 11.6095C10.4376 10.9625 10.9622 10.4379 11.6092 10.4379C12.2563 10.4379 12.7808 10.9625 12.7808 11.6095C12.7808 12.2566 12.2563 12.7811 11.6092 12.7811C10.9622 12.7811 10.4376 12.2566 10.4376 11.6095Z" fill="black"/>
<path fill-rule="evenodd" clip-rule="evenodd" d="M24.3904 7.6687C22.214 7.6687 20.4496 9.43307 20.4496 11.6095C20.4496 13.786 22.214 15.5504 24.3904 15.5504C26.5669 15.5504 28.3312 13.786 28.3312 11.6095C28.3312 9.43307 26.5669 7.6687 24.3904 7.6687ZM23.2188 11.6095C23.2188 10.9625 23.7434 10.4379 24.3904 10.4379C25.0375 10.4379 25.562 10.9625 25.562 11.6095C25.562 12.2566 25.0375 12.7811 24.3904 12.7811C23.7434 12.7811 23.2188 12.2566 23.2188 11.6095Z" fill="black"/>
<path fill-rule="evenodd" clip-rule="evenodd" d="M24.3904 20.4496C22.214 20.4496 20.4496 22.214 20.4496 24.3904C20.4496 26.5669 22.214 28.3313 24.3904 28.3313C26.5669 28.3313 28.3312 26.5669 28.3312 24.3904C28.3312 22.214 26.5669 20.4496 24.3904 20.4496ZM23.2188 24.3904C23.2188 23.7434 23.7434 23.2189 24.3904 23.2189C25.0375 23.2189 25.562 23.7434 25.562 24.3904C25.562 25.0375 25.0375 25.562 24.3904 25.562C23.7434 25.562 23.2188 25.0375 23.2188 24.3904Z" fill="black"/>
<path fill-rule="evenodd" clip-rule="evenodd" d="M11.6092 20.4496C9.43277 20.4496 7.6684 22.214 7.6684 24.3904C7.6684 26.5669 9.43277 28.3313 11.6092 28.3313C13.7857 28.3313 15.5501 26.5669 15.5501 24.3904C15.5501 22.214 13.7857 20.4496 11.6092 20.4496ZM10.4376 24.3904C10.4376 23.7434 10.9622 23.2189 11.6092 23.2189C12.2563 23.2189 12.7808 23.7434 12.7808 24.3904C12.7808 25.0375 12.2563 25.562 11.6092 25.562C10.9622 25.562 10.4376 25.0375 10.4376 24.3904Z" fill="black"/>
</svg>
