<svg id="" width="36" height="36" viewBox="0 0 36 36" fill="currentColor" xmlns="http://www.w3.org/2000/svg">
<g clip-path="url(#clip0_505_1012)">
<path d="M28.9138 29.2404C29.1277 28.4937 28.7193 27.6981 27.9819 27.4715C27.2406 27.2436 26.4725 27.6842 26.2577 28.4341C25.7558 30.1863 24.5746 31.3441 23.0437 32.0915C22.2585 32.4748 21.3966 32.7404 20.5265 32.9097C20.3383 31.6865 19.2789 30.7498 18 30.7498C16.5883 30.7498 15.4438 31.8914 15.4438 33.2997C15.4438 34.4149 16.1615 35.3629 17.1613 35.7092C17.393 35.8912 17.6829 36 17.9999 36C19.9028 36 22.1972 35.6598 24.2304 34.6672C26.2902 33.6617 28.1375 31.9509 28.9138 29.2404Z" fill="currentColor"/>
<path fill-rule="evenodd" clip-rule="evenodd" d="M6.50779 10.3035C7.31097 4.48435 12.1435 0 18 0C23.8566 0 28.6891 4.48436 29.4923 10.3035C33.155 10.9084 36 14.0906 36 18.0001C36 22.3505 32.4771 25.8003 28.2248 25.8003C27.4519 25.8003 26.8402 25.1538 26.8402 24.375C26.8402 24.3683 26.8402 24.3618 26.8403 24.3552V12.0174C26.8403 6.94643 22.8742 2.85075 18 2.85075C13.1259 2.85075 9.15977 6.94643 9.15977 12.0174V24.3748C9.15977 24.4129 9.15831 24.4506 9.15545 24.488C9.09968 25.2153 8.51035 25.8003 7.77514 25.8003C3.52282 25.8003 -3.05176e-05 22.3505 -3.05176e-05 18.0001C-3.05176e-05 14.0906 2.84502 10.9083 6.50779 10.3035ZM6.39053 13.2414C4.27842 13.8393 2.76921 15.7706 2.76921 18.0001C2.76921 20.2296 4.27842 22.1609 6.39053 22.7588V13.2414ZM29.6096 22.7588C31.7216 22.1608 33.2307 20.2296 33.2307 18.0001C33.2307 15.7706 31.7216 13.8394 29.6096 13.2414V22.7588Z" fill="currentColor"/>
</g>
<defs>
<clipPath id="clip0_505_1012">
<rect width="36" height="36" fill="currentColor"/>
</clipPath>
</defs>
</svg>
