<svg width="36" height="36" viewBox="0 0 36 36" fill="none" xmlns="http://www.w3.org/2000/svg">
<path fill-rule="evenodd" clip-rule="evenodd" d="M18 0C8.05888 0 0 8.05888 0 18C0 27.9411 8.05888 36 18 36C27.9411 36 36 27.9411 36 18C36 8.05888 27.9411 0 18 0ZM2.76923 18C2.76923 9.58828 9.58828 2.76923 18 2.76923C26.4117 2.76923 33.2308 9.58828 33.2308 18C33.2308 26.4117 26.4117 33.2308 18 33.2308C9.58828 33.2308 2.76923 26.4117 2.76923 18Z" fill="black"/>
<path d="M10.2247 14.1655C10.2247 9.87137 13.7058 6.39032 17.9999 6.39032C22.294 6.39032 25.775 9.87137 25.775 14.1655C25.775 15.1088 25.6931 15.9379 25.4323 16.6563C25.1519 17.4284 24.6957 17.9907 24.1012 18.4352C23.5603 18.8397 22.9034 19.144 22.2576 19.4315C22.1272 19.4896 21.9936 19.5484 21.8569 19.6087L21.8559 19.6091C21.2795 19.863 20.6412 20.1443 19.8972 20.5163C19.6388 20.6455 19.4216 20.7416 19.2529 20.8152L19.2295 20.8254C19.2285 20.9405 19.23 21.0835 19.2335 21.2657C19.2358 21.388 19.239 21.5238 19.2425 21.6744C19.2545 22.1892 19.2704 22.8718 19.2704 23.7513C19.2704 24.516 18.6505 25.1359 17.8858 25.1359C17.1211 25.1359 16.5012 24.516 16.5012 23.7513C16.5012 22.9072 16.4862 22.2649 16.4743 21.752L16.4742 21.7501C16.4706 21.5956 16.4673 21.452 16.4648 21.3187L16.4645 21.3078C16.4551 20.8171 16.4445 20.2636 16.5686 19.8105C16.6471 19.5236 16.7858 19.2339 17.022 18.9759C17.2414 18.7363 17.4845 18.5917 17.6576 18.5014C17.7993 18.4275 17.9612 18.3571 18.0896 18.3014L18.1455 18.277C18.3001 18.2096 18.4653 18.1362 18.6588 18.0395C19.4685 17.6346 20.1748 17.3235 20.7533 17.0687L20.7547 17.0681C20.8871 17.0098 21.0125 16.9545 21.1312 16.9017C21.8042 16.602 22.1853 16.41 22.4429 16.2174C22.6471 16.0647 22.7502 15.929 22.8293 15.711C22.9279 15.4396 23.0058 14.987 23.0058 14.1655C23.0058 11.4008 20.7646 9.15955 17.9999 9.15955C15.2352 9.15955 12.994 11.4008 12.994 14.1655C12.994 14.9302 12.374 15.5501 11.6093 15.5501C10.8446 15.5501 10.2247 14.9302 10.2247 14.1655Z" fill="black"/>
<path d="M17.8296 27.0108C18.5943 27.0108 19.2142 27.6307 19.2142 28.3954V29.3327C19.2142 30.0974 18.5943 30.7173 17.8296 30.7173C17.0649 30.7173 16.4449 30.0974 16.4449 29.3327V28.3954C16.4449 27.6307 17.0649 27.0108 17.8296 27.0108Z" fill="black"/>
</svg>
