<svg width="36" height="36" viewBox="0 0 36 36" fill="none" xmlns="http://www.w3.org/2000/svg">
<path d="M0 10.7334C0 7.49674 2.62382 4.87292 5.86046 4.87292H11.1475C11.9181 4.87292 12.5428 5.49764 12.5428 6.26827C12.5428 7.0389 11.9181 7.66362 11.1475 7.66362H5.86046C4.16508 7.66362 2.7907 9.038 2.7907 10.7334V30.1395C2.7907 31.8349 4.16508 33.2092 5.86047 33.2092H20.1145C21.8099 33.2092 23.1843 31.8349 23.1843 30.1395V21.7244C23.1843 20.9538 23.809 20.3291 24.5796 20.3291C25.3502 20.3291 25.975 20.9538 25.975 21.7244V30.1395C25.975 33.3761 23.3511 35.9999 20.1145 35.9999H5.86047C2.62382 35.9999 0 33.3761 0 30.1395V10.7334Z" fill="black"/>
<path d="M6.3757 12.7727C5.60507 12.7727 4.98035 13.3974 4.98035 14.1681C4.98035 14.9387 5.60507 15.5634 6.3757 15.5634H15.7353C16.5059 15.5634 17.1306 14.9387 17.1306 14.1681C17.1306 13.3974 16.5059 12.7727 15.7353 12.7727H6.3757Z" fill="black"/>
<path d="M6.3757 19.2128C5.60507 19.2128 4.98035 19.8376 4.98035 20.6082C4.98035 21.3788 5.60507 22.0035 6.3757 22.0035H19.5993C20.3699 22.0035 20.9947 21.3788 20.9947 20.6082C20.9947 19.8376 20.3699 19.2128 19.5993 19.2128H6.3757Z" fill="black"/>
<path d="M4.98035 27.0482C4.98035 26.2776 5.60507 25.6528 6.3757 25.6528H19.5993C20.3699 25.6528 20.9947 26.2776 20.9947 27.0482C20.9947 27.8188 20.3699 28.4435 19.5993 28.4435H6.3757C5.60507 28.4435 4.98035 27.8188 4.98035 27.0482Z" fill="black"/>
<path d="M18.9437 5.55368L17.9542 3.83778C17.5692 3.1702 16.7159 2.9411 16.0484 3.32608C15.3808 3.71106 15.1517 4.56433 15.5367 5.23191L18.2666 9.96575C18.6516 10.6333 19.5048 10.8624 20.1724 10.4775L24.9062 7.74765C25.5738 7.36269 25.8029 6.50942 25.418 5.84184C25.033 5.17425 24.1797 4.94514 23.5121 5.33011L20.8441 6.86867C21.6842 4.18214 24.1922 2.23256 27.1557 2.23256C30.8072 2.23256 33.7675 5.19276 33.7675 8.84437C33.7675 12.496 30.8072 15.4562 27.1557 15.4562C25.1229 15.4562 23.3051 14.5402 22.0905 13.0944C21.6939 12.6224 20.9898 12.5612 20.5178 12.9577C20.0457 13.3543 19.9846 14.0584 20.3811 14.5305C22.0018 16.4596 24.4357 17.6887 27.1557 17.6887C32.0403 17.6887 36 13.729 36 8.84437C36 3.95976 32.0403 0 27.1557 0C23.434 0 20.2493 2.29867 18.9437 5.55368Z" fill="black"/>
<path d="M27.7997 4.55083C27.029 4.55083 26.4043 5.17555 26.4043 5.94618V9.48822C26.4043 9.85828 26.5513 10.2132 26.813 10.4749L29.067 12.7289C29.6119 13.2738 30.4954 13.2738 31.0403 12.7289C31.5853 12.184 31.5853 11.3005 31.0403 10.7556L29.195 8.91024V5.94618C29.195 5.17555 28.5703 4.55083 27.7997 4.55083Z" fill="black"/>
</svg>
