<svg id="" width="36" height="36" viewBox="0 0 36 36" fill="currentColor" xmlns="http://www.w3.org/2000/svg">
<g clip-path="url(#clip0_505_1349)">
<path d="M18.6445 25.5623C15.8115 25.5623 13.3223 27.1057 11.6242 28.8654C10.7628 29.758 10.0571 30.7529 9.5753 31.7315C9.10697 32.6827 8.78951 33.7428 8.87253 34.7304C8.93659 35.4925 9.61168 36.0587 10.3804 35.9952C11.1491 35.9317 11.7203 35.2625 11.6563 34.5004C11.6319 34.21 11.728 33.6724 12.0856 32.9461C12.4297 32.2472 12.9623 31.4847 13.6426 30.7797C15.0276 29.3445 16.8359 28.3315 18.6445 28.3315C20.4355 28.3315 22.132 29.327 23.4684 30.7619C24.1443 31.4875 24.6693 32.2629 25.0341 32.9697C25.4014 33.6813 25.5972 34.3059 25.6329 34.7304C25.697 35.4925 26.3721 36.0588 27.1408 35.9952C27.9095 35.9317 28.4807 35.2625 28.4167 34.5004C28.2746 32.8103 27.1347 30.6161 25.5207 28.8833C23.8814 27.1233 21.4952 25.5623 18.6445 25.5623Z" fill="currentColor"/>
<path fill-rule="evenodd" clip-rule="evenodd" d="M7.59265 2.76921H6.39669C5.62532 2.76921 5 2.1493 5 1.38461C5 0.619909 5.62532 0 6.39669 0H29.6033C30.3747 0 31 0.619909 31 1.38461C31 2.1493 30.3747 2.76921 29.6033 2.76921H29.0518C28.9933 5.41294 28.7236 8.51642 27.6946 11.3582C26.7576 13.9459 25.1738 16.356 22.5516 17.9998C25.1738 19.6436 26.7576 22.0537 27.6946 24.6414C28.7236 27.4832 28.9933 30.5867 29.0518 33.2304H29.6033C30.3747 33.2304 31 33.8503 31 34.615C31 35.3797 30.3747 35.9996 29.6033 35.9996H6.39669C5.62532 35.9996 5 35.3797 5 34.615C5 33.8503 5.62532 33.2304 6.39669 33.2304H7.59265C7.65112 30.5867 7.92078 27.4832 8.94981 24.6414C9.87861 22.0764 11.443 19.6854 14.0253 18.0424C14.0249 18.0283 14.0247 18.0141 14.0247 17.9998C14.0247 17.9856 14.0249 17.9714 14.0253 17.9572C11.443 16.3142 9.87861 13.9232 8.94981 11.3582C7.92078 8.51642 7.65112 5.41294 7.59265 2.76921ZM10.3871 33.2304H26.2573C26.1982 30.7253 25.9419 27.9974 25.0655 25.577C24.0668 22.8192 22.292 20.5238 19.0557 19.3844H17.5887C14.3524 20.5238 12.5776 22.8192 11.5789 25.577C10.7025 27.9974 10.4462 30.7253 10.3871 33.2304ZM26.2573 2.76921C26.1982 5.2743 25.9419 8.00223 25.0655 10.4226C24.0668 13.1805 22.292 15.4758 19.0557 16.6152H17.5887C14.3524 15.4758 12.5776 13.1805 11.5789 10.4226C10.7025 8.00223 10.4462 5.2743 10.3871 2.76921H26.2573Z" fill="currentColor"/>
</g>
<defs>
<clipPath id="clip0_505_1349">
<rect width="36" height="36" fill="currentColor"/>
</clipPath>
</defs>
</svg>
