<svg width="36" height="36" viewBox="0 0 36 36" fill="none" xmlns="http://www.w3.org/2000/svg">
<g clip-path="url(#clip0_505_1161)">
<path fill-rule="evenodd" clip-rule="evenodd" d="M3.3733 0.400067C2.97358 0.00724239 2.37544 -0.108421 1.85664 0.106783C1.33784 0.321987 1 0.825899 1 1.38453V30.1845C1 33.3962 3.62023 35.9999 6.85246 35.9999H29.1475C32.3798 35.9999 35 33.3962 35 30.1845V1.38453C35 0.825898 34.6622 0.321987 34.1434 0.106783C33.6246 -0.108421 33.0264 0.0072421 32.6267 0.400067L29.7049 3.27144L26.7831 0.400067C26.2402 -0.133467 25.3663 -0.133467 24.8234 0.400067L21.9016 3.27144L18.9799 0.400067C18.437 -0.133467 17.563 -0.133467 17.0201 0.400067L14.0984 3.27144L11.1766 0.400066C10.6337 -0.133467 9.75977 -0.133467 9.21687 0.400066L6.29508 3.27144L3.3733 0.400067ZM22.8815 6.20331L25.8033 3.33194L28.7251 6.20331C29.268 6.73684 30.1419 6.73684 30.6848 6.20331L32.2131 4.70134V30.1845C32.2131 31.8668 30.8406 33.2307 29.1475 33.2307H6.85246C5.15939 33.2307 3.78689 31.8668 3.78689 30.1845V4.70134L5.31523 6.20331C5.85813 6.73684 6.73203 6.73684 7.27494 6.20331L10.1967 3.33194L13.1185 6.20331C13.6614 6.73684 14.5353 6.73684 15.0782 6.20331L18 3.33194L20.9218 6.20331C21.4647 6.73684 22.3386 6.73684 22.8815 6.20331Z" fill="black"/>
<path d="M8.89613 10.2247C8.12655 10.2247 7.50269 10.8446 7.50269 11.6093C7.50269 12.374 8.12655 12.9939 8.89613 12.9939H27.1038C27.8734 12.9939 28.4972 12.374 28.4972 11.6093C28.4972 10.8446 27.8734 10.2247 27.1038 10.2247H8.89613Z" fill="black"/>
<path d="M8.89613 17.8933C8.12655 17.8933 7.50269 18.5132 7.50269 19.2779C7.50269 20.0426 8.12655 20.6625 8.89613 20.6625H27.1038C27.8734 20.6625 28.4972 20.0426 28.4972 19.2779C28.4972 18.5132 27.8734 17.8933 27.1038 17.8933H8.89613Z" fill="black"/>
<path d="M7.50269 26.9465C7.50269 26.1818 8.12655 25.5619 8.89613 25.5619H14.0983C14.8679 25.5619 15.4918 26.1818 15.4918 26.9465C15.4918 27.7112 14.8679 28.3312 14.0983 28.3312H8.89613C8.12655 28.3312 7.50269 27.7112 7.50269 26.9465Z" fill="black"/>
<path fill-rule="evenodd" clip-rule="evenodd" d="M18.6008 28.1711C18.6372 28.2069 18.6841 28.2248 18.7413 28.2248H19.7479C19.8051 28.2248 19.852 28.2069 19.8884 28.1711C19.9248 28.1353 19.943 28.0893 19.943 28.0331V26.3306H20.7467L21.6363 28.0177C21.6571 28.0586 21.6909 28.1047 21.7377 28.1558C21.7846 28.2018 21.8574 28.2248 21.9562 28.2248H22.9863C23.0331 28.2248 23.0721 28.2095 23.1033 28.1788C23.1397 28.143 23.1579 28.1047 23.1579 28.0638C23.1579 28.0382 23.1501 28.0101 23.1345 27.9794L22.0577 26.0929C22.349 25.9651 22.5831 25.7759 22.76 25.5254C22.9421 25.2749 23.0331 24.9682 23.0331 24.6052C23.0331 24.0479 22.838 23.6185 22.4478 23.3169C22.0629 23.0101 21.5349 22.8568 20.8638 22.8568H18.7413C18.6841 22.8568 18.6372 22.8746 18.6008 22.9104C18.5644 22.9462 18.5462 22.9922 18.5462 23.0485V28.0331C18.5462 28.0893 18.5644 28.1353 18.6008 28.1711ZM20.8482 25.2494H19.943V23.9227H20.8482C21.1031 23.9227 21.2878 23.984 21.4022 24.1067C21.5219 24.2294 21.5817 24.3905 21.5817 24.5899C21.5817 24.7944 21.5193 24.9554 21.3944 25.073C21.2747 25.1906 21.0927 25.2494 20.8482 25.2494Z" fill="black"/>
<path fill-rule="evenodd" clip-rule="evenodd" d="M23.9102 29.6282C23.9466 29.6639 23.9935 29.6818 24.0507 29.6818H25.0027C25.0599 29.6818 25.1067 29.6639 25.1431 29.6282C25.1796 29.5924 25.1978 29.5464 25.1978 29.4901V27.7877C25.3226 27.9513 25.4787 28.0791 25.666 28.1711C25.8584 28.258 26.0821 28.3015 26.337 28.3015C26.5972 28.3015 26.826 28.2606 27.0237 28.1788C27.2266 28.0919 27.3983 27.9717 27.5387 27.8184C27.6792 27.665 27.7885 27.4784 27.8665 27.2585C27.9445 27.0387 27.9887 26.7908 27.9991 26.5147C28.0043 26.4124 28.0069 26.3179 28.0069 26.2309C28.0069 26.144 28.0043 26.0495 27.9991 25.9472C27.9887 25.6609 27.9419 25.4078 27.8587 25.188C27.7807 24.9682 27.6714 24.7816 27.5309 24.6282C27.3905 24.4748 27.2214 24.3598 27.0237 24.2831C26.826 24.2013 26.5972 24.1604 26.337 24.1604C26.0457 24.1604 25.8012 24.2141 25.6035 24.3215C25.4059 24.4237 25.2472 24.5541 25.1275 24.7126V24.4288C25.1275 24.3726 25.1067 24.3266 25.0651 24.2908C25.0287 24.255 24.9845 24.2371 24.9325 24.2371H24.0507C23.9935 24.2371 23.9466 24.255 23.9102 24.2908C23.8738 24.3266 23.8556 24.3726 23.8556 24.4288V29.4901C23.8556 29.5464 23.8738 29.5924 23.9102 29.6282ZM26.3292 27.1665C26.2304 27.2381 26.0925 27.2739 25.9157 27.2739C25.7544 27.2739 25.6217 27.2407 25.5177 27.1742C25.4137 27.1026 25.3356 27.0131 25.2836 26.9058C25.2316 26.7933 25.203 26.6732 25.1978 26.5454C25.1926 26.4431 25.19 26.346 25.19 26.254C25.19 26.1619 25.1926 26.0674 25.1978 25.9702C25.203 25.8322 25.229 25.7044 25.2758 25.5868C25.3226 25.4692 25.3981 25.3746 25.5021 25.303C25.6061 25.2264 25.744 25.188 25.9157 25.188C26.0925 25.188 26.2304 25.2238 26.3292 25.2954C26.4281 25.367 26.4983 25.4641 26.5399 25.5868C26.5868 25.7095 26.6154 25.845 26.6258 25.9932C26.6362 26.1517 26.6362 26.3102 26.6258 26.4687C26.6154 26.6169 26.5868 26.7524 26.5399 26.8751C26.4983 26.9978 26.4281 27.0949 26.3292 27.1665Z" fill="black"/>
</g>
<defs>
<clipPath id="clip0_505_1161">
<rect width="36" height="36" fill="white"/>
</clipPath>
</defs>
</svg>
