<svg width="36" height="36" viewBox="0 0 36 36" fill="none" xmlns="http://www.w3.org/2000/svg">
<path d="M7.71423 4C6.94953 4 6.32961 4.61797 6.32961 5.38028C6.32961 6.14259 6.94953 6.76056 7.71423 6.76056H34.6153C35.38 6.76056 35.9999 6.14259 35.9999 5.38028C35.9999 4.61797 35.38 4 34.6153 4H7.71423Z" fill="black"/>
<path d="M1.38462 10.3099C0.619914 10.3099 0 10.9279 0 11.6902C0 12.4525 0.619914 13.0705 1.38462 13.0705H34.6154C35.3801 13.0705 36 12.4525 36 11.6902C36 10.9279 35.3801 10.3099 34.6154 10.3099H1.38462Z" fill="black"/>
<path d="M1.38462 16.6196C0.619914 16.6196 0 17.2376 0 17.9999C0 18.7622 0.619914 19.3802 1.38462 19.3802H34.6154C35.3801 19.3802 36 18.7622 36 17.9999C36 17.2376 35.3801 16.6196 34.6154 16.6196H1.38462Z" fill="black"/>
<path d="M1.38462 22.9295C0.619914 22.9295 0 23.5475 0 24.3098C0 25.0721 0.619914 25.6901 1.38462 25.6901H34.6154C35.3801 25.6901 36 25.0721 36 24.3098C36 23.5475 35.3801 22.9295 34.6154 22.9295H1.38462Z" fill="black"/>
<path d="M1.38462 29.2395C0.619914 29.2395 0 29.8574 0 30.6197C0 31.382 0.619914 32 1.38462 32H14.3604C15.1251 32 15.7451 31.382 15.7451 30.6197C15.7451 29.8574 15.1251 29.2395 14.3604 29.2395H1.38462Z" fill="black"/>
</svg>
