<svg width="36" height="36" viewBox="0 0 36 36" fill="none" xmlns="http://www.w3.org/2000/svg">
<path d="M15 5C15 3.34315 16.3431 2 18 2C19.6569 2 21 3.34315 21 5C21 6.65685 19.6569 8 18 8C16.3431 8 15 6.65685 15 5Z" fill="black"/>
<path d="M15 18C15 16.3431 16.3431 15 18 15C19.6569 15 21 16.3431 21 18C21 19.6569 19.6569 21 18 21C16.3431 21 15 19.6569 15 18Z" fill="black"/>
<path d="M18 28C16.3431 28 15 29.3431 15 31C15 32.6569 16.3431 34 18 34C19.6569 34 21 32.6569 21 31C21 29.3431 19.6569 28 18 28Z" fill="black"/>
</svg>
