<svg width="36" height="36" viewBox="0 0 36 36" fill="none" xmlns="http://www.w3.org/2000/svg">
<g clip-path="url(#clip0_513_1642)">
<path d="M25.4425 9.67423C24.2329 11.0443 24.3796 13.121 25.7701 14.3128C27.1607 15.5045 29.2686 15.36 30.4782 13.99C31.6878 12.62 31.5411 10.5432 30.1506 9.35146C28.76 8.15969 26.6522 8.3042 25.4425 9.67423Z" fill="black"/>
<path fill-rule="evenodd" clip-rule="evenodd" d="M13.2632 17.0485C10.8861 14.6592 10.7359 10.8317 13.0031 8.2638L18.3328 2.22732C20.717 -0.473027 24.8716 -0.757848 27.6124 1.59114L33.7393 6.84219C36.4801 9.19117 36.7692 13.2845 34.3851 15.9848L29.0553 22.0213C26.6712 24.7216 22.5165 25.0064 19.7758 22.6575L19.0349 22.0225L17.3767 23.9006L17.0038 26.1257C16.9052 26.7137 16.4717 27.1932 15.8903 27.3575L13.8042 27.9468L12.4326 29.5003L12.1373 31.6858C12.0548 32.2965 11.6114 32.8003 11.0095 32.9673L8.83998 33.5694L7.16224 35.4696C6.71982 35.9707 6.0016 36.1366 5.3792 35.8816L0.964619 34.0724C0.499818 33.882 0.156289 33.483 0.0413538 33.0001C-0.0735816 32.5172 0.0540902 32.0093 0.384483 31.6351L13.2632 17.0485ZM15.6126 19.0895L4.1737 32.0453L5.5399 32.6052L6.78372 31.1964C6.98396 30.9696 7.24707 30.8054 7.54073 30.7239L9.16851 30.2722L9.3899 28.6337C9.43038 28.3341 9.55932 28.0527 9.7607 27.8247L11.7453 25.5768C11.9439 25.3519 12.2044 25.1885 12.4953 25.1063L14.0749 24.6601L14.3588 22.9664C14.406 22.6843 14.5319 22.4208 14.7223 22.2051L16.6717 19.9972L15.6126 19.0895ZM15.3663 10.2891C14.1174 11.7036 14.2689 13.8477 15.7045 15.0781L21.8314 20.3292C23.2671 21.5596 25.4433 21.4104 26.6922 19.9959L32.0219 13.9595C33.2707 12.545 33.1193 10.4009 31.6837 9.17047L25.5567 3.91942C24.1211 2.689 21.9449 2.83819 20.696 4.25266L15.3663 10.2891Z" fill="black"/>
</g>
<defs>
<clipPath id="clip0_513_1642">
<rect width="36" height="36" fill="white"/>
</clipPath>
</defs>
</svg>
