<svg width="36" height="36" viewBox="0 0 36 36" fill="none" xmlns="http://www.w3.org/2000/svg">
<g clip-path="url(#clip0_505_1156)">
<path d="M19.1573 17.9167C16.4054 15.0614 16.4054 10.4319 19.1573 7.57651L24.4831 2.05033C27.1177 -0.683448 31.3893 -0.683442 34.024 2.05034C36.6587 4.78412 36.6587 9.21645 34.024 11.9502L27.5747 18.6421C26.8978 19.3446 25.9814 20.0623 24.7942 20.3282C24.6937 20.3507 24.5887 20.3727 24.4794 20.394C23.6515 20.5551 22.8545 19.9892 22.6993 19.1302C22.544 18.2711 23.0893 17.4441 23.9173 17.283C23.9992 17.2671 24.077 17.2508 24.1507 17.2343C24.5392 17.1473 24.955 16.8842 25.4178 16.404L31.867 9.71211C33.3104 8.21441 33.3104 5.78616 31.867 4.28845C30.4236 2.79075 28.0834 2.79075 26.64 4.28845L21.3142 9.81462C19.7536 11.4339 19.7536 14.0593 21.3142 15.6786C21.4333 15.8022 21.4333 16.0026 21.3142 16.1262L19.5886 17.9167C19.4695 18.0403 19.2764 18.0403 19.1573 17.9167Z" fill="black"/>
<path d="M1.97599 33.9497C-0.658665 31.2159 -0.658664 26.7836 1.97599 24.0498L7.15663 18.6743C9.98865 15.7357 14.5803 15.7357 17.4123 18.6743C17.5314 18.7979 17.5314 18.9983 17.4123 19.1219L15.6867 20.9124C15.5676 21.036 15.3744 21.036 15.2553 20.9124C13.6145 19.2099 10.9544 19.2099 9.3136 20.9124L4.13296 26.2879C2.68956 27.7856 2.68956 30.2139 4.13296 31.7116C5.57636 33.2093 7.91657 33.2093 9.35997 31.7116L14.9067 25.9562C15.2284 25.6224 15.4551 25.3253 15.5993 25.0339C15.6722 24.8865 15.7255 24.7642 15.757 24.6779L15.7631 24.6609C15.8425 23.8639 16.4913 23.2426 17.2802 23.2426C18.1225 23.2426 18.8054 23.9512 18.8054 24.8252C18.8054 25.2344 18.6802 25.6056 18.61 25.798C18.5231 26.0364 18.4145 26.2741 18.313 26.4792C17.9674 27.1779 17.5005 27.741 17.0636 28.1943L11.5169 33.9497C8.88228 36.6835 4.61065 36.6835 1.97599 33.9497Z" fill="black"/>
<path d="M26.0994 12.0576C26.695 11.4396 26.695 10.4375 26.0994 9.81949C25.5037 9.20145 24.538 9.20145 23.9424 9.81949L10.9 23.3525C10.3044 23.9706 10.3044 24.9726 10.9 25.5907C11.4957 26.2087 12.4614 26.2087 13.057 25.5907L26.0994 12.0576Z" fill="black"/>
</g>
<defs>
<clipPath id="clip0_505_1156">
<rect width="36" height="36" fill="white"/>
</clipPath>
</defs>
</svg>
