<svg width="36" height="36" viewBox="0 0 36 36" fill="none" xmlns="http://www.w3.org/2000/svg">
<path d="M27.833 10.2773C27.2456 9.7701 26.3725 9.85233 25.8829 10.4609C25.3934 11.0696 25.4728 11.9741 26.0602 12.4813L30.7913 16.5658L18 16.5658C17.2353 16.5658 16.6154 17.208 16.6154 18.0003C16.6154 18.7925 17.2353 19.4348 18 19.4348L30.7905 19.4348L26.0602 23.5187C25.4728 24.0258 25.3934 24.9304 25.8829 25.539C26.3725 26.1476 27.2456 26.2298 27.833 25.7227L35.4782 19.1222C35.7962 18.8594 36 18.4545 36 18.0003C36 17.69 35.9049 17.4027 35.7432 17.168C35.6749 17.0686 35.594 16.9777 35.5017 16.898L27.833 10.2773Z" fill="black"/>
<path d="M15.4438 2C6.91442 2 0 9.16344 0 18C0 26.8366 6.91442 34 15.4438 34C18.5496 34 21.4451 33.0487 23.8687 31.4116C24.5092 30.9789 24.6899 30.0901 24.2723 29.4265C23.8546 28.7628 22.9968 28.5756 22.3562 29.0083C20.3688 30.3508 17.9964 31.131 15.4438 31.131C8.44382 31.131 2.76923 25.2521 2.76923 18C2.76923 10.7479 8.44382 4.86897 15.4438 4.86897C17.9964 4.86897 20.3688 5.64922 22.3562 6.99166C22.9968 7.42436 23.8546 7.23715 24.2723 6.57351C24.6899 5.90987 24.5092 5.02111 23.8687 4.58841C21.4451 2.95131 18.5496 2 15.4438 2Z" fill="black"/>
</svg>
