<svg id="" width="36" height="36" viewBox="0 0 36 36" fill="currentColor" xmlns="http://www.w3.org/2000/svg">
<path d="M4.87223 6.65242C4.30639 6.13354 3.4307 6.1756 2.9163 6.74637C2.40191 7.31714 2.44361 8.20048 3.00944 8.71936L11.2634 16.2884L1.75093 24.6843C1.17544 25.1923 1.11712 26.0747 1.62068 26.6552C2.12424 27.2357 2.99899 27.2945 3.57449 26.7866L13.3258 18.1797L17.0686 21.6119C17.5967 22.0962 18.4033 22.0962 18.9314 21.6119L22.6742 18.1797L32.4255 26.7866C33.001 27.2945 33.8758 27.2357 34.3793 26.6552C34.8829 26.0747 34.8246 25.1923 34.2491 24.6843L24.7367 16.2884L32.9906 8.71936C33.5564 8.20048 33.5981 7.31714 33.0837 6.74637C32.5693 6.1756 31.6936 6.13354 31.1278 6.65242L18 18.6909L4.87223 6.65242Z" fill="currentColor"/>
<path fill-rule="evenodd" clip-rule="evenodd" d="M5.81538 5C2.60364 5 0 7.62635 0 10.8661V25.1339C0 28.3737 2.60364 31 5.81538 31H30.1846C33.3964 31 36 28.3737 36 25.1339V10.8661C36 7.62635 33.3964 5 30.1846 5H5.81538ZM2.76923 10.8661C2.76923 9.1691 4.13304 7.79339 5.81538 7.79339H30.1846C31.867 7.79339 33.2308 9.1691 33.2308 10.8661V25.1339C33.2308 26.8309 31.867 28.2066 30.1846 28.2066H5.81538C4.13304 28.2066 2.76923 26.8309 2.76923 25.1339V10.8661Z" fill="currentColor"/>
</svg>
