<svg width="36" height="36" viewBox="0 0 36 36" fill="none" xmlns="http://www.w3.org/2000/svg">
<path d="M20.7154 5.33331C21.3347 5.33331 21.8368 5.83699 21.8368 6.45831V12.9166C21.8368 13.5379 21.3347 14.0416 20.7154 14.0416C20.096 14.0416 19.5939 13.5379 19.5939 12.9166V6.45831C19.5939 5.83699 20.096 5.33331 20.7154 5.33331Z" fill="black"/>
<path d="M20.7154 20.8333C21.3347 20.8333 21.8368 21.3369 21.8368 21.9583V34.8749C21.8368 35.4962 21.3347 35.9999 20.7154 35.9999C20.096 35.9999 19.5939 35.4962 19.5939 34.8749V21.9583C19.5939 21.3369 20.096 20.8333 20.7154 20.8333Z" fill="black"/>
<path d="M15.3989 19.3749C15.3989 18.7536 14.8969 18.2499 14.2775 18.2499C13.6582 18.2499 13.1561 18.7536 13.1561 19.3749V34.8748C13.1561 35.4961 13.6582 35.9998 14.2775 35.9998C14.8969 35.9998 15.3989 35.4961 15.3989 34.8748V19.3749Z" fill="black"/>
<path d="M7.83965 23.4167C8.45901 23.4167 8.96109 23.9204 8.96109 24.5417V34.875C8.96109 35.4963 8.45901 36 7.83965 36C7.2203 36 6.71822 35.4963 6.71822 34.875V24.5417C6.71822 23.9204 7.2203 23.4167 7.83965 23.4167Z" fill="black"/>
<path d="M1.4018 27.2916C2.02115 27.2916 2.52323 27.7953 2.52323 28.4166V34.8749C2.52323 35.4962 2.02115 35.9999 1.4018 35.9999C0.782448 35.9999 0.280365 35.4962 0.280365 34.8749V28.4166C0.280365 27.7953 0.782448 27.2916 1.4018 27.2916Z" fill="black"/>
<path d="M27.1532 5.33331C27.7726 5.33331 28.2747 5.83699 28.2747 6.45831V11.625C28.2747 12.2463 27.7726 12.75 27.1532 12.75C26.5339 12.75 26.0318 12.2463 26.0318 11.625V6.45831C26.0318 5.83699 26.5339 5.33331 27.1532 5.33331Z" fill="black"/>
<path d="M28.2747 21.9583C28.2747 21.3369 27.7726 20.8333 27.1532 20.8333C26.5339 20.8333 26.0318 21.3369 26.0318 21.9583V34.8749C26.0318 35.4962 26.5339 35.9999 27.1532 35.9999C27.7726 35.9999 28.2747 35.4962 28.2747 34.8749V21.9583Z" fill="black"/>
<path d="M10.7793 13.1497C11.3619 12.6383 12.2475 12.6975 12.7573 13.282C13.2671 13.8665 13.2081 14.7549 12.6255 15.2663L2.3249 24.308C1.74226 24.8194 0.856662 24.7602 0.346855 24.1757C-0.162951 23.5912 -0.103911 22.7028 0.478724 22.1913L10.7793 13.1497Z" fill="black"/>
<path fill-rule="evenodd" clip-rule="evenodd" d="M31.3955 15.5817C32.6869 13.9427 33.4578 11.872 33.4578 9.6206C33.4578 4.30729 29.1641 0 23.8677 0C18.5712 0 14.2775 4.30729 14.2775 9.6206C14.2775 14.9339 18.5712 19.2412 23.8677 19.2412C26.1119 19.2412 28.176 18.4679 29.8098 17.1724C29.8142 17.1771 29.8187 17.1817 29.8233 17.1862L34.0856 21.4621C34.5235 21.9014 35.2336 21.9014 35.6715 21.4621C36.1095 21.0227 36.1095 20.3104 35.6715 19.8711L31.4092 15.5953C31.4047 15.5907 31.4001 15.5862 31.3955 15.5817ZM23.8677 16.9912C27.9254 16.9912 31.2149 13.6913 31.2149 9.6206C31.2149 5.54992 27.9254 2.24999 23.8677 2.24999C19.8099 2.24999 16.5204 5.54992 16.5204 9.6206C16.5204 13.6913 19.8099 16.9912 23.8677 16.9912Z" fill="black"/>
</svg>
