<svg width="36" height="36" viewBox="0 0 36 36" fill="none" xmlns="http://www.w3.org/2000/svg">
<g clip-path="url(#clip0_505_1317)">
<path d="M25.5171 4.78733C25.9105 4.1316 25.6979 3.28109 25.0422 2.88765C24.3865 2.49421 23.5359 2.70684 23.1425 3.36257L16.4593 14.5012L5.05394 3.09579C4.51321 2.55506 3.63652 2.55506 3.09579 3.09579C2.55506 3.63652 2.55506 4.51321 3.09579 5.05394L14.5366 16.4947L0.850866 24.3962C0.188613 24.7785 -0.0382918 25.6253 0.34406 26.2876C0.726412 26.9498 1.57323 27.1768 2.23548 26.7944L15.8846 18.9141L20.0302 34.3855C20.2281 35.1241 20.9873 35.5625 21.726 35.3645C22.4646 35.1666 22.903 34.4074 22.705 33.6687L18.4299 17.7136L34.3855 13.4383C35.1241 13.2404 35.5625 12.4812 35.3645 11.7425C35.1666 11.0039 34.4074 10.5655 33.6687 10.7635L19.6829 14.5109L25.5171 4.78733Z" fill="black"/>
<path d="M0 3.44177C0 1.54093 1.54093 0 3.44177 0C5.3426 0 6.88353 1.54093 6.88353 3.44177C6.88353 5.3426 5.3426 6.88353 3.44177 6.88353C1.54093 6.88353 0 5.3426 0 3.44177Z" fill="black"/>
<path d="M17.7231 32.5582C17.7231 30.6574 19.2641 29.1165 21.1649 29.1165C23.0657 29.1165 24.6067 30.6574 24.6067 32.5582C24.6067 34.4591 23.0657 36 21.1649 36C19.2641 36 17.7231 34.4591 17.7231 32.5582Z" fill="black"/>
<path d="M23.6966 1.26617C21.7958 1.26617 20.2549 2.80711 20.2549 4.70794C20.2549 6.60877 21.7958 8.1497 23.6966 8.1497C25.5975 8.1497 27.1384 6.60877 27.1384 4.70794C27.1384 2.80711 25.5975 1.26617 23.6966 1.26617Z" fill="black"/>
<path d="M12.6595 16.7343C12.6595 14.4839 14.4839 12.6595 16.7343 12.6595C18.9847 12.6595 20.809 14.4839 20.809 16.7343C20.809 18.9847 18.9847 20.809 16.7343 20.809C14.4839 20.809 12.6595 18.9847 12.6595 16.7343Z" fill="black"/>
<path d="M32.5582 8.86157C30.6574 8.86157 29.1165 10.4025 29.1165 12.3033C29.1165 14.2042 30.6574 15.7451 32.5582 15.7451C34.4591 15.7451 36 14.2042 36 12.3033C36 10.4025 34.4591 8.86157 32.5582 8.86157Z" fill="black"/>
<path d="M0 24.9628C0 23.062 1.54093 21.5211 3.44177 21.5211C5.3426 21.5211 6.88353 23.062 6.88353 24.9628C6.88353 26.8637 5.3426 28.4046 3.44177 28.4046C1.54093 28.4046 0 26.8637 0 24.9628Z" fill="black"/>
</g>
<defs>
<clipPath id="clip0_505_1317">
<rect width="36" height="36" fill="white"/>
</clipPath>
</defs>
</svg>
