<svg id="" width="36" height="36" viewBox="0 0 36 36" fill="currentColor" xmlns="http://www.w3.org/2000/svg">
<path d="M34.6154 16.8659C35.3801 16.8659 36 16.2659 36 15.5257C36 14.7855 35.3801 14.1855 34.6154 14.1855C32.1548 14.1855 31.0284 13.3981 30.4456 12.5922C29.7967 11.695 29.6095 10.4869 29.6095 9.34015C29.6095 8.59997 28.9896 7.99994 28.2249 7.99994C27.4602 7.99994 26.8402 8.59997 26.8402 9.34015C26.8402 10.6677 27.0365 12.5523 28.1769 14.1293C29.3838 15.7981 31.453 16.8659 34.6154 16.8659Z" fill="currentColor"/>
<path d="M9.15977 26.6597C9.15977 27.3999 8.53985 27.9999 7.77515 27.9999C7.01045 27.9999 6.39053 27.3999 6.39053 26.6597C6.39053 25.513 6.20329 24.3049 5.55444 23.4077C4.97161 22.6018 3.84517 21.8144 1.38462 21.8144C0.619914 21.8144 0 21.2143 0 20.4742C0 19.734 0.619914 19.134 1.38462 19.134C4.54701 19.134 6.61621 20.2018 7.82308 21.8706C8.96354 23.4475 9.15977 25.3322 9.15977 26.6597Z" fill="currentColor"/>
<path d="M29.6095 26.6597C29.6095 27.3999 28.9896 27.9999 28.2249 27.9999C27.4602 27.9999 26.8402 27.3999 26.8402 26.6597C26.8402 25.3322 27.0365 23.4475 28.1769 21.8706C29.3838 20.2018 31.453 19.134 34.6154 19.134C35.3801 19.134 36 19.734 36 20.4742C36 21.2143 35.3801 21.8144 34.6154 21.8144C32.1548 21.8144 31.0284 22.6018 30.4456 23.4077C29.7967 24.3049 29.6095 25.513 29.6095 26.6597Z" fill="currentColor"/>
<path d="M7.82308 14.1293C6.61621 15.7981 4.54701 16.8659 1.38462 16.8659C0.619914 16.8659 0 16.2659 0 15.5257C0 14.7855 0.619914 14.1855 1.38462 14.1855C3.84517 14.1855 4.97161 13.3981 5.55444 12.5922C6.20329 11.695 6.39053 10.4869 6.39053 9.34015C6.39053 8.59997 7.01045 7.99994 7.77515 7.99994C8.53985 7.99994 9.15977 8.59997 9.15977 9.34015C9.15977 10.6677 8.96354 12.5523 7.82308 14.1293Z" fill="currentColor"/>
<path d="M13.8888 18C13.8888 15.8022 15.7295 14.0206 18 14.0206C20.2706 14.0206 22.1113 15.8022 22.1113 18C22.1113 20.1977 20.2706 21.9793 18 21.9793C15.7295 21.9793 13.8888 20.1977 13.8888 18Z" fill="currentColor"/>
<path fill-rule="evenodd" clip-rule="evenodd" d="M4.70769 8C2.10771 8 0 10.0401 0 12.5567V23.4433C0 25.9599 2.10771 28 4.70769 28H31.2923C33.8923 28 36 25.9599 36 23.4433V12.5567C36 10.0401 33.8923 8 31.2923 8H4.70769ZM2.76923 12.5567C2.76923 11.5205 3.63711 10.6804 4.70769 10.6804H31.2923C32.3629 10.6804 33.2308 11.5205 33.2308 12.5567V23.4433C33.2308 24.4795 32.3629 25.3196 31.2923 25.3196H4.70769C3.63711 25.3196 2.76923 24.4795 2.76923 23.4433V12.5567Z" fill="currentColor"/>
</svg>
