<svg width="36" height="36" viewBox="0 0 36 36" fill="none" xmlns="http://www.w3.org/2000/svg">
<path d="M10.2857 5.14286C10.2857 7.98318 7.98318 10.2857 5.14286 10.2857C2.30254 10.2857 0 7.98318 0 5.14286C0 2.30254 2.30254 0 5.14286 0C7.98318 0 10.2857 2.30254 10.2857 5.14286Z" fill="black"/>
<path d="M5.14286 23.1427C7.98318 23.1427 10.2857 20.8402 10.2857 17.9999C10.2857 15.1596 7.98318 12.857 5.14286 12.857C2.30254 12.857 0 15.1596 0 17.9999C0 20.8402 2.30254 23.1427 5.14286 23.1427Z" fill="black"/>
<path fill-rule="evenodd" clip-rule="evenodd" d="M12.8572 3.53564C12.8572 2.293 13.8645 1.28564 15.1072 1.28564H33.75C34.9927 1.28564 36 2.293 36 3.53564V6.74993C36 7.99257 34.9927 8.99993 33.75 8.99993H15.1072C13.8645 8.99993 12.8572 7.99257 12.8572 6.74993V3.53564ZM15.1072 3.53564L33.75 3.53564V6.74993L15.1072 6.74993V3.53564Z" fill="black"/>
<path fill-rule="evenodd" clip-rule="evenodd" d="M15.1072 14.1429C13.8645 14.1429 12.8572 15.1503 12.8572 16.3929V19.6072C12.8572 20.8499 13.8645 21.8572 15.1072 21.8572H33.75C34.9927 21.8572 36 20.8499 36 19.6072V16.3929C36 15.1503 34.9927 14.1429 33.75 14.1429H15.1072ZM33.75 19.6072V16.3929H15.1072V19.6072H33.75Z" fill="black"/>
<path fill-rule="evenodd" clip-rule="evenodd" d="M12.8572 29.25C12.8572 28.0073 13.8645 27 15.1072 27H33.75C34.9927 27 36 28.0073 36 29.25V32.4643C36 33.7069 34.9927 34.7143 33.75 34.7143H15.1072C13.8645 34.7143 12.8572 33.7069 12.8572 32.4643V29.25ZM33.75 29.25V32.4643H15.1072V29.25H33.75Z" fill="black"/>
<path fill-rule="evenodd" clip-rule="evenodd" d="M5.14286 36.0001C7.98318 36.0001 10.2857 33.6975 10.2857 30.8572C10.2857 28.0169 7.98318 25.7144 5.14286 25.7144C2.30254 25.7144 0 28.0169 0 30.8572C0 33.6975 2.30254 36.0001 5.14286 36.0001ZM5.14286 33.7501C6.74054 33.7501 8.03571 32.4549 8.03571 30.8572C8.03571 29.2595 6.74054 27.9644 5.14286 27.9644C3.54518 27.9644 2.25 29.2595 2.25 30.8572C2.25 32.4549 3.54518 33.7501 5.14286 33.7501Z" fill="black"/>
</svg>
