<svg id="" width="36" height="36" viewBox="0 0 36 36" fill="currentColor" xmlns="http://www.w3.org/2000/svg">
<path fill-rule="evenodd" clip-rule="evenodd" d="M11.4593 2.54137C13.3534 0.737432 15.7905 0 18 0C20.2095 0 22.6465 0.737432 24.5407 2.54137C26.4564 4.36586 27.6793 7.14937 27.6793 10.9704C27.6793 13.4237 27.987 15.1402 28.5279 16.4279C29.0565 17.6864 29.8421 18.6177 30.9514 19.4517C31.7246 20.033 32.6441 20.8738 33.5137 21.7499C34.7885 23.0343 35.2808 24.7249 34.5009 26.2187C33.7631 27.6319 32.1526 28.3314 30.4176 28.3314H5.58236C3.84736 28.3314 2.23691 27.6319 1.4991 26.2187C0.719219 24.7249 1.21146 23.0343 2.48627 21.7499C3.35584 20.8738 4.2754 20.033 5.04855 19.4517C6.1579 18.6177 6.94349 17.6864 7.47209 16.4279C8.01295 15.1402 8.32072 13.4237 8.32072 10.9704C8.32072 7.14937 9.54354 4.36586 11.4593 2.54137ZM30.4176 25.5622C31.4913 25.5622 31.9231 25.1467 32.0297 24.9425C32.0693 24.8668 32.11 24.7311 32.066 24.5337C32.0212 24.3332 31.8842 24.0501 31.5321 23.6953C30.7079 22.8649 29.8943 22.1285 29.2723 21.6608C27.8318 20.5777 26.705 19.2723 25.9586 17.4953C25.2246 15.7475 24.8949 13.6296 24.8949 10.9704C24.8949 7.76211 23.8867 5.75263 22.6149 4.54148C21.3217 3.3098 19.6151 2.76924 18 2.76924C16.3849 2.76924 14.6783 3.3098 13.385 4.54148C12.1133 5.75263 11.1051 7.76211 11.1051 10.9704C11.1051 13.6296 10.7754 15.7475 10.0413 17.4953C9.29499 19.2723 8.16815 20.5777 6.72768 21.6608C6.10565 22.1285 5.29208 22.8649 4.46786 23.6953C4.11574 24.0501 3.97879 24.3332 3.93401 24.5337C3.88994 24.7311 3.93071 24.8668 3.97023 24.9425C4.07684 25.1467 4.50864 25.5622 5.58236 25.5622H30.4176Z" fill="currentColor"/>
<path d="M14.4098 30.4386C14.2192 29.6963 13.4604 29.2513 12.7175 29.4393C11.9738 29.6276 11.5212 30.3806 11.712 31.1237C12.4299 33.9201 14.9652 36.0001 18 36.0001C21.0348 36.0001 23.57 33.9201 24.288 31.1237C24.4788 30.3806 24.0262 29.6276 23.2825 29.4393C22.5395 29.2513 21.7807 29.6963 21.5901 30.4386C21.1759 32.0519 19.7181 33.2309 18 33.2309C16.2818 33.2309 14.824 32.0519 14.4098 30.4386Z" fill="currentColor"/>
</svg>
