<svg width="36" height="36" viewBox="0 0 36 36" fill="none" xmlns="http://www.w3.org/2000/svg">
<path d="M15.5755 2.69547C16.3652 2.57448 17.1748 2.51161 18 2.51161C26.6985 2.51161 33.75 9.50846 33.75 18.1395C33.75 26.7706 26.6985 33.7674 18 33.7674C9.30151 33.7674 2.25 26.7706 2.25 18.1395C2.25 16.8966 2.396 15.689 2.67142 14.5321C2.81426 13.9321 2.43986 13.3308 1.83518 13.1891C1.2305 13.0474 0.624521 13.4189 0.481685 14.0189C0.166517 15.3427 0 16.7226 0 18.1395C0 28.0036 8.05888 36 18 36C27.9411 36 36 28.0036 36 18.1395C36 8.27546 27.9411 0.279053 18 0.279053C17.0595 0.279053 16.135 0.350726 15.2322 0.48906C14.6181 0.58314 14.1972 1.15333 14.292 1.76261C14.3868 2.3719 14.9615 2.78955 15.5755 2.69547Z" fill="black"/>
<path d="M17.0389 7.70628C17.3552 7.678 17.6758 7.66353 18 7.66353C23.8309 7.66353 28.5577 12.3537 28.5577 18.1394C28.5577 23.925 23.8309 28.6152 18 28.6152C12.1692 28.6152 7.44232 23.925 7.44232 18.1394C7.44232 17.4876 7.50218 16.8506 7.61644 16.2334C7.72869 15.627 7.3243 15.0452 6.7132 14.9338C6.1021 14.8224 5.51572 15.2237 5.40347 15.83C5.26469 16.5797 5.19232 17.3517 5.19232 18.1394C5.19232 25.158 10.9265 30.8478 18 30.8478C25.0735 30.8478 30.8077 25.158 30.8077 18.1394C30.8077 11.1207 25.0735 5.43097 18 5.43097C17.6083 5.43097 17.2203 5.44846 16.837 5.48273C16.2182 5.53806 15.7617 6.08068 15.8175 6.69469C15.8733 7.30871 16.4201 7.76161 17.0389 7.70628Z" fill="black"/>
<path d="M16.875 12.9876C16.875 12.3711 17.3787 11.8713 18 11.8713C21.4889 11.8713 24.3173 14.6778 24.3173 18.1397C24.3173 21.6016 21.4889 24.408 18 24.408C14.511 24.408 11.6827 21.6016 11.6827 18.1397C11.6827 17.5232 12.1864 17.0234 12.8077 17.0234C13.429 17.0234 13.9327 17.5232 13.9327 18.1397C13.9327 20.3686 15.7537 22.1755 18 22.1755C20.2463 22.1755 22.0673 20.3686 22.0673 18.1397C22.0673 15.9108 20.2463 14.1039 18 14.1039C17.3787 14.1039 16.875 13.6041 16.875 12.9876Z" fill="black"/>
<path fill-rule="evenodd" clip-rule="evenodd" d="M5.01924 0C4.57797 0 4.16229 0.205521 3.89656 0.555076C3.63083 0.904631 3.54587 1.35768 3.6671 1.77868L4.29572 3.9618L1.92701 3.29027C1.50272 3.16999 1.04613 3.25429 0.693843 3.51796C0.341557 3.78163 0.13443 4.19409 0.13443 4.63193V7.20796C0.13443 7.64716 0.342828 8.06072 0.69693 8.32424L5.88924 12.1883C6.13266 12.3694 6.42872 12.4674 6.73299 12.4674H10.9856L17.2045 18.6381C17.6439 19.074 18.3562 19.074 18.7955 18.6381C19.2348 18.2021 19.2348 17.4953 18.7955 17.0594L12.9066 11.2161C12.9127 11.1632 12.9159 11.1096 12.9159 11.0555V6.54741C12.9159 6.2455 12.8172 5.95173 12.6346 5.7102L8.74039 0.55814C8.47482 0.206783 8.05802 0 7.61539 0H5.01924ZM7.56935 5.17241L6.88355 2.7907H6.91227L10.1034 7.01252V7.68679L7.56935 5.17241ZM2.94693 6.48179L5.34725 7.16228L7.88127 9.67665H7.20174L2.94693 6.51029V6.48179Z" fill="black"/>
</svg>
