<svg id="" width="36" height="36" viewBox="0 0 36 36" fill="currentColor" xmlns="http://www.w3.org/2000/svg">
<path fill-rule="evenodd" clip-rule="evenodd" d="M8.03077 0C3.5955 0 0 3.5955 0 8.03077V27.9692C0 32.4045 3.5955 36 8.03077 36H27.9692C32.4045 36 36 32.4045 36 27.9692V8.03077C36 3.5955 32.4045 0 27.9692 0H8.03077ZM2.76923 8.03077C2.76923 5.1249 5.1249 2.76923 8.03077 2.76923H27.9692C30.8751 2.76923 33.2308 5.1249 33.2308 8.03077V27.9692C33.2308 30.8751 30.8751 33.2308 27.9692 33.2308H8.03077C5.1249 33.2308 2.76923 30.8751 2.76923 27.9692V8.03077Z" fill="currentColor"/>
<path fill-rule="evenodd" clip-rule="evenodd" d="M5.11237 7.60474C5.11237 6.22827 6.22821 5.11243 7.60467 5.11243H14.336C15.7125 5.11243 16.8283 6.22827 16.8283 7.60473V14.3361C16.8283 15.7126 15.7125 16.8284 14.336 16.8284H7.60467C6.22821 16.8284 5.11237 15.7126 5.11237 14.3361V7.60474ZM7.8816 7.88166V14.0592H14.0591V7.88166L7.8816 7.88166Z" fill="currentColor"/>
<path fill-rule="evenodd" clip-rule="evenodd" d="M5.11237 25.0296C5.11237 21.7943 7.73508 19.1716 10.9704 19.1716C14.2056 19.1716 16.8283 21.7943 16.8283 25.0296C16.8283 28.2649 14.2056 30.8876 10.9704 30.8876C7.73508 30.8876 5.11237 28.2649 5.11237 25.0296ZM10.9704 21.9409C9.26448 21.9409 7.8816 23.3237 7.8816 25.0296C7.8816 26.7355 9.26448 28.1184 10.9704 28.1184C12.6762 28.1184 14.0591 26.7355 14.0591 25.0296C14.0591 23.3237 12.6762 21.9409 10.9704 21.9409Z" fill="currentColor"/>
<path fill-rule="evenodd" clip-rule="evenodd" d="M25.0296 5.11243C21.7943 5.11243 19.1716 7.73514 19.1716 10.9704C19.1716 14.2057 21.7943 16.8284 25.0296 16.8284C28.2649 16.8284 30.8876 14.2057 30.8876 10.9704C30.8876 7.73514 28.2649 5.11243 25.0296 5.11243ZM21.9409 10.9704C21.9409 9.26454 23.3237 7.88166 25.0296 7.88166C26.7355 7.88166 28.1184 9.26454 28.1184 10.9704C28.1184 12.6763 26.7355 14.0592 25.0296 14.0592C23.3237 14.0592 21.9409 12.6763 21.9409 10.9704Z" fill="currentColor"/>
<path fill-rule="evenodd" clip-rule="evenodd" d="M19.1716 21.6639C19.1716 20.2875 20.2875 19.1716 21.6639 19.1716H28.3953C29.7718 19.1716 30.8876 20.2875 30.8876 21.6639V28.3953C30.8876 29.7718 29.7718 30.8876 28.3953 30.8876H21.6639C20.2875 30.8876 19.1716 29.7718 19.1716 28.3953V21.6639ZM21.9409 21.9409V28.1184H28.1184V21.9409L21.9409 21.9409Z" fill="currentColor"/>
</svg>
