<svg width="36" height="36" viewBox="0 0 36 36" fill="none" xmlns="http://www.w3.org/2000/svg">
<g clip-path="url(#clip0_505_1263)">
<path d="M5.12616 14.1486C4.38011 14.0163 3.66535 14.4989 3.52971 15.2266C3.39406 15.9543 3.88889 16.6515 4.63494 16.7838L11.4948 18.0003L4.63494 19.2169C3.88889 19.3492 3.39406 20.0464 3.52971 20.7741C3.66535 21.5017 4.38011 21.9844 5.12616 21.8521L19.4156 19.3179C20.0685 19.2022 20.543 18.6476 20.543 18.0003C20.543 17.3531 20.0685 16.7985 19.4156 16.6827L5.12616 14.1486Z" fill="black"/>
<path fill-rule="evenodd" clip-rule="evenodd" d="M3.54238 1.24356C1.7141 0.384937 -0.336566 1.92461 0.046638 3.86823L2.83287 18.0001L0.0466383 32.1319C-0.336565 34.0755 1.7141 35.6152 3.54238 34.7566L34.6021 20.1699C36.466 19.2946 36.466 16.7055 34.6021 15.8302L3.54238 1.24356ZM5.53949 17.5453L2.84717 3.88975L32.8926 18.0001L2.84717 32.1104L5.53949 18.4549C5.59872 18.1544 5.59872 17.8457 5.53949 17.5453Z" fill="black"/>
</g>
<defs>
<clipPath id="clip0_505_1263">
<rect width="36" height="36" fill="white"/>
</clipPath>
</defs>
</svg>
