<svg width="36" height="36" viewBox="0 0 36 36" fill="none" xmlns="http://www.w3.org/2000/svg">
<path d="M0 13.8993C0 10.0253 3.09957 6.88489 6.92308 6.88489H23.1124C23.8771 6.88489 24.497 7.51298 24.497 8.28777C24.497 9.06255 23.8771 9.69064 23.1124 9.69064H6.92308C4.62897 9.69064 2.76923 11.5749 2.76923 13.8993V14.6547H14.1657C14.9304 14.6547 15.5503 15.2828 15.5503 16.0575C15.5503 16.8323 14.9304 17.4604 14.1657 17.4604H2.76923V25.9856C2.76923 28.31 4.62897 30.1942 6.92308 30.1942H29.0769C31.371 30.1942 33.2308 28.31 33.2308 25.9856V17.4604H29.503C28.7383 17.4604 28.1183 16.8323 28.1183 16.0575C28.1183 15.2828 28.7383 14.6547 29.503 14.6547H33.2308V14.1151C33.2308 13.3403 33.8507 12.7122 34.6154 12.7122C35.3801 12.7122 36 13.3403 36 14.1151V25.9856C36 29.8596 32.9004 33 29.0769 33H6.92308C3.09957 33 0 29.8595 0 25.9856V13.8993Z" fill="black"/>
<path d="M21.7278 23.8273C21.7278 23.0525 22.3477 22.4245 23.1124 22.4245H30.7811C31.5458 22.4245 32.1657 23.0525 32.1657 23.8273C32.1657 24.6021 31.5458 25.2302 30.7811 25.2302H23.1124C22.3477 25.2302 21.7278 24.6021 21.7278 23.8273Z" fill="black"/>
<path fill-rule="evenodd" clip-rule="evenodd" d="M5.11243 23.1797C5.11243 21.3322 6.59068 19.8344 8.4142 19.8344C10.2377 19.8344 11.716 21.3322 11.716 23.1797C11.716 25.0273 10.2377 26.5251 8.4142 26.5251C6.59068 26.5251 5.11243 25.0273 5.11243 23.1797ZM8.4142 22.6402C8.12009 22.6402 7.88166 22.8817 7.88166 23.1797C7.88166 23.4777 8.12009 23.7193 8.4142 23.7193C8.70832 23.7193 8.94675 23.4777 8.94675 23.1797C8.94675 22.8817 8.70832 22.6402 8.4142 22.6402Z" fill="black"/>
<path d="M35.5815 3.39787C35.0337 2.8573 34.1571 2.86904 33.6235 3.42409L22.1678 15.3418L17.7139 10.7083C17.1803 10.1532 16.3037 10.1415 15.7559 10.682C15.2081 11.2226 15.1965 12.1108 15.73 12.6658L21.1759 18.3313C21.4365 18.6025 21.7942 18.7554 22.1678 18.7554C22.5414 18.7554 22.8991 18.6025 23.1597 18.3313L35.6074 5.38167C36.1409 4.82662 36.1293 3.93844 35.5815 3.39787Z" fill="black"/>
</svg>
