<svg width="36" height="36" viewBox="0 0 36 36" fill="none" xmlns="http://www.w3.org/2000/svg">
<g clip-path="url(#clip0_505_1458)">
<path fill-rule="evenodd" clip-rule="evenodd" d="M4.70763 15.3374C2.10765 15.3374 -6.04299e-05 17.4451 -6.05435e-05 20.0451L-6.10352e-05 31.2924C-6.11488e-05 33.8924 2.10765 36.0001 4.70763 36.0001L7.77509 36.0001H31.2922C33.8922 36.0001 35.9999 33.8924 35.9999 31.2924V26.9428C35.9999 26.1781 35.38 25.5582 34.6153 25.5582C33.8592 25.5582 33.2446 26.1643 33.2309 26.9171C30.8359 27.1949 29.1978 28.2091 28.1769 29.6676C27.3829 30.8018 27.0466 32.09 26.9155 33.2309L9.08437 33.2309C8.95328 32.09 8.61695 30.8018 7.82302 29.6676C6.80208 28.2092 5.16405 27.195 2.76917 26.9171V24.4204C5.16405 24.1425 6.80208 23.1284 7.82302 21.6699C8.61695 20.5357 8.95328 19.2475 9.08437 18.1066H18.0289C18.7936 18.1066 19.4135 17.4867 19.4135 16.722C19.4135 15.9573 18.7936 15.3374 18.0289 15.3374L4.70763 15.3374ZM5.55438 20.0818C5.09431 20.7391 4.29552 21.3844 2.76917 21.6271V20.0451C2.76917 18.9745 3.63705 18.1066 4.70763 18.1066H6.28998C6.1758 18.8266 5.95158 19.5144 5.55438 20.0818ZM2.76917 31.2924V29.7104C4.29552 29.9531 5.09431 30.5985 5.55438 31.2557C5.95159 31.8231 6.1758 32.5109 6.28998 33.2309H4.70763C3.63705 33.2309 2.76917 32.363 2.76917 31.2924ZM31.2922 33.2309H29.7099C29.8241 32.5109 30.0483 31.8231 30.4455 31.2557C30.9056 30.5985 31.7044 29.9531 33.2307 29.7104V31.2924C33.2307 32.363 32.3628 33.2309 31.2922 33.2309Z" fill="black"/>
<path d="M11.3324 25.6687C11.3324 23.3982 13.1731 21.5575 15.4436 21.5575C17.7142 21.5575 19.5549 23.3982 19.5549 25.6687C19.5549 27.9393 17.7142 29.78 15.4436 29.78C13.1731 29.78 11.3324 27.9393 11.3324 25.6687Z" fill="black"/>
<path fill-rule="evenodd" clip-rule="evenodd" d="M21.8343 0C21.0696 -3.34262e-08 20.4496 0.619914 20.4496 1.38462C20.4496 2.14932 21.0696 2.76923 21.8343 2.76923H21.8923C21.9465 4.29468 22.1215 6.03798 22.6476 7.66127C23.1191 9.11646 23.8947 10.5353 25.1544 11.6095C23.8947 12.6837 23.1191 14.1025 22.6476 15.5577C22.1215 17.181 21.9465 18.9242 21.8923 20.4497H21.8343C21.0696 20.4497 20.4496 21.0696 20.4496 21.8343C20.4496 22.599 21.0696 23.2189 21.8343 23.2189H23.9362C23.9544 23.2193 23.9726 23.2193 23.9909 23.2189H33.167C33.1852 23.2193 33.2034 23.2193 33.2217 23.2189H34.6153C35.38 23.2189 35.9999 22.599 35.9999 21.8343C35.9999 21.1721 35.5352 20.6186 34.914 20.482C34.8612 18.9489 34.6874 17.1924 34.1576 15.5577C33.686 14.1025 32.9104 12.6837 31.6508 11.6095C32.9104 10.5352 33.686 9.11646 34.1576 7.66127C34.6874 6.02651 34.8612 4.27004 34.914 2.73692C35.5352 2.60034 35.9999 2.04679 35.9999 1.38462C35.9999 0.619914 35.38 5.92104e-07 34.6153 5.58678e-07L21.8343 0ZM25.2819 6.80755C24.8741 5.5491 24.7172 4.13432 24.6638 2.76923L32.1414 2.76923C32.088 4.13432 31.9311 5.5491 31.5233 6.80755C31.0107 8.38926 30.1477 9.60132 28.6723 10.2248H28.1329C26.6575 9.60132 25.7945 8.38926 25.2819 6.80755ZM25.2819 16.4114C25.7945 14.8297 26.6575 13.6176 28.1329 12.9941H28.6723C30.1477 13.6176 31.0107 14.8297 31.5233 16.4114C31.5678 16.5488 31.6093 16.6881 31.6481 16.8292C30.8101 16.1968 29.7741 15.7308 28.5801 15.7308C27.208 15.7308 26.0077 16.3468 25.0789 17.1307C25.1385 16.8862 25.2059 16.646 25.2819 16.4114ZM26.3173 19.7901C27.0307 18.964 27.8651 18.5 28.5801 18.5C29.2762 18.5 30.0481 18.9435 30.7384 19.7716C30.924 19.9942 31.0859 20.224 31.2241 20.4497H25.8317C25.9691 20.2284 26.1321 20.0045 26.3173 19.7901Z" fill="black"/>
</g>
<defs>
<clipPath id="clip0_505_1458">
<rect width="36" height="36" fill="white"/>
</clipPath>
</defs>
</svg>
