<svg width="36" height="36" viewBox="0 0 36 36" fill="none" xmlns="http://www.w3.org/2000/svg">
<path fill-rule="evenodd" clip-rule="evenodd" d="M10.1609 0C8.78448 0 7.66864 1.11584 7.66864 2.4923V12.7812H5.81536C2.60363 12.7812 0 15.3849 0 18.5966V25.0724C0 28.2841 2.60363 30.8878 5.81537 30.8878H9.05325C9.81795 30.8878 10.4379 30.2678 10.4379 29.5031C10.4379 28.7384 9.81795 28.1185 9.05325 28.1185H5.81537C4.13303 28.1185 2.76922 26.7547 2.76922 25.0724V18.5966C2.76922 16.9143 4.13303 15.5505 5.81536 15.5505H30.1846C31.867 15.5505 33.2308 16.9143 33.2308 18.5966V25.0724C33.2308 26.7547 31.867 28.1185 30.1846 28.1185H26.9467C26.1821 28.1185 25.5621 28.7384 25.5621 29.5031C25.5621 30.2678 26.1821 30.8878 26.9467 30.8878H30.1846C33.3964 30.8878 36 28.2841 36 25.0724V18.5966C36 15.3849 33.3964 12.7812 30.1846 12.7812H28.3314V2.4923C28.3314 1.11584 27.2155 0 25.8391 0H10.1609ZM25.5621 12.7812V2.76922L10.4379 2.76922V12.7812H12.7811V11.4394C12.7811 10.0629 13.8969 8.94708 15.2734 8.94708H20.7266C22.1031 8.94708 23.2189 10.0629 23.2189 11.4394V12.7812H25.5621ZM20.4497 12.7812V11.7163H15.5503V12.7812H20.4497Z" fill="black"/>
<path fill-rule="evenodd" clip-rule="evenodd" d="M10.1609 20.4495C8.78448 20.4495 7.66864 21.5653 7.66864 22.9418V33.5075C7.66864 34.8839 8.78448 35.9998 10.1609 35.9998H25.8391C27.2155 35.9998 28.3314 34.8839 28.3314 33.5075V22.9418C28.3314 21.5653 27.2155 20.4495 25.8391 20.4495H10.1609ZM10.4379 33.2305V23.2187L25.5621 23.2187V33.2305L10.4379 33.2305Z" fill="black"/>
</svg>
