<svg id="" width="36" height="36" viewBox="0 0 36 36" fill="currentColor" xmlns="http://www.w3.org/2000/svg">
<path fill-rule="evenodd" clip-rule="evenodd" d="M21.3671 9.76362C20.1341 8.44981 18.2877 7.52393 15.6707 7.52393C13.0537 7.52393 11.2073 8.44981 9.9743 9.76362C8.78085 11.0353 8.26115 12.5625 8.04307 13.6529C7.88322 14.4521 7.89132 15.2194 7.92325 16.0175C7.93113 16.2146 7.94067 16.4168 7.95052 16.6255C7.98157 17.2837 8.01619 18.0182 8.01618 18.9404C8.01617 19.3076 8.16205 19.6598 8.42172 19.9194C8.53309 20.0308 8.69967 20.2134 8.93494 20.4715C9.07731 20.6277 9.24323 20.8097 9.43358 21.016C9.91193 21.5342 10.5054 22.1608 11.1441 22.7665C11.3482 22.9601 11.5604 23.1548 11.7781 23.3455V25.5268L6.37861 27.6866C6.14282 27.7809 5.93752 27.9382 5.78515 28.1414C5.07659 29.0861 3.5812 31.5733 3.02716 34.3435C2.87719 35.0934 3.36348 35.8228 4.11333 35.9728C4.86317 36.1227 5.59262 35.6365 5.74259 34.8866C6.13943 32.9024 7.17247 31.0215 7.78692 30.1058L13.677 27.7498C14.2027 27.5395 14.5474 27.0303 14.5474 26.4642V25.1365C14.9058 25.2613 15.2842 25.3409 15.6707 25.3409C16.0572 25.3409 16.4356 25.2613 16.7941 25.1365V26.4642C16.7941 27.0303 17.1388 27.5395 17.6644 27.7498L23.5545 30.1058C24.1689 31.0215 25.202 32.9024 25.5988 34.8866C25.7488 35.6365 26.4782 36.1227 27.2281 35.9728C27.9779 35.8228 28.4642 35.0934 28.3143 34.3435C27.7602 31.5733 26.2648 29.0861 25.5563 28.1414C25.4039 27.9382 25.1986 27.7809 24.9628 27.6866L19.5633 25.5268V23.3455C19.781 23.1548 19.9932 22.9601 20.1973 22.7666C20.8361 22.1608 21.4295 21.5342 21.9078 21.016C22.0982 20.8097 22.2645 20.6273 22.4069 20.4711C22.6421 20.213 22.8083 20.0308 22.9197 19.9194C23.1794 19.6598 23.3252 19.3076 23.3252 18.9404C23.3252 18.0184 23.3599 17.2834 23.3909 16.6253C23.4008 16.4165 23.4103 16.2147 23.4182 16.0175C23.4501 15.2194 23.4582 14.4521 23.2983 13.6529C23.0802 12.5625 22.5605 11.0353 21.3671 9.76362ZM15.6707 10.2931C17.5679 10.2931 18.6684 10.9347 19.3478 11.6586C19.9506 12.3009 20.2997 13.0942 20.4899 13.7996C19.8226 13.6577 18.8503 13.3393 17.5439 12.6861C15.526 11.6771 13.4877 12.0751 11.9165 12.812C11.602 12.9594 11.2994 13.1233 11.0106 13.2977C11.2174 12.734 11.5308 12.1517 11.9936 11.6586C12.673 10.9347 13.7735 10.2931 15.6707 10.2931ZM13.0923 15.3192C14.2161 14.7921 15.3131 14.6667 16.3055 15.1629C17.8968 15.9586 19.1714 16.3756 20.1545 16.556C20.3153 16.5855 20.47 16.609 20.6184 16.6268C20.5949 17.1286 20.5695 17.7121 20.56 18.3871C20.4787 18.4756 20.3913 18.5714 20.3006 18.6708C20.1648 18.8197 20.0205 18.9779 19.873 19.1377C19.4109 19.6383 18.8653 20.2134 18.2918 20.7571C17.7126 21.3064 17.1376 21.7923 16.6192 22.1328C16.3438 22.3137 16.126 22.4254 15.9636 22.4911C15.7964 22.5588 15.7026 22.5717 15.6707 22.5717C15.6388 22.5717 15.545 22.5588 15.3778 22.4911C15.2154 22.4254 14.9976 22.3137 14.7222 22.1328C14.2038 21.7923 13.6288 21.3064 13.0496 20.7571C12.4762 20.2134 11.9305 19.6383 11.4684 19.1377C11.321 18.9779 11.1763 18.8193 11.0405 18.6704C10.9498 18.571 10.8628 18.4757 10.7815 18.3871C10.7743 17.881 10.7582 17.4265 10.7407 17.0191C11.3007 16.4455 12.1423 15.7647 13.0923 15.3192Z" fill="currentColor"/>
<path d="M28.2049 0C26.3018 0 24.9527 0.748158 24.1124 1.81406C23.321 2.81805 23.064 3.99532 23.064 4.81558C23.064 5.58027 23.6839 6.20018 24.4486 6.20018C25.2133 6.20018 25.8332 5.58027 25.8332 4.81558C25.8332 4.49253 25.9516 3.95419 26.2872 3.52838C26.574 3.16451 27.1032 2.76921 28.2049 2.76921C29.3066 2.76921 29.8357 3.16451 30.1226 3.52838C30.4582 3.95419 30.5766 4.49253 30.5766 4.81558C30.5766 4.87313 30.5802 4.93063 30.5873 4.98772C30.5873 4.98803 30.5874 4.98732 30.5873 4.98772C30.5858 4.99878 30.5789 5.04859 30.5405 5.14415C30.4835 5.28593 30.3619 5.51751 30.1069 5.85864C29.6263 6.50155 28.8359 7.3198 27.6885 8.36787C26.9121 9.07702 26.8064 10.1025 26.7839 10.6689C26.7709 10.997 26.7838 11.3161 26.7965 11.5705L26.8046 11.7299C26.8146 11.9233 26.8211 12.0512 26.8203 12.1573C26.8146 12.922 27.4298 13.5465 28.1945 13.5522C28.9592 13.558 29.5837 12.9427 29.5895 12.178C29.5909 11.9808 29.5789 11.7511 29.5688 11.5585L29.5623 11.4331C29.5502 11.1907 29.5431 10.9758 29.5509 10.779C29.5591 10.5732 29.5823 10.4538 29.5987 10.3925C29.6015 10.3823 29.604 10.3737 29.6063 10.3666C30.761 9.30926 31.6917 8.36364 32.3249 7.51665C32.9075 6.73732 33.4463 5.77323 33.3449 4.7292C33.3274 3.91501 33.0618 2.78382 32.2973 1.81406C31.4571 0.748158 30.108 0 28.2049 0Z" fill="currentColor"/>
<path d="M28.2105 14.6698C27.4458 14.6698 26.8259 15.2897 26.8259 16.0544L26.8259 16.4324C26.8259 17.1971 27.4458 17.817 28.2105 17.817C28.9752 17.817 29.5951 17.1971 29.5951 16.4324L29.5951 16.0544C29.5951 15.2897 28.9752 14.6698 28.2105 14.6698Z" fill="currentColor"/>
</svg>
