<svg width="36" height="36" viewBox="0 0 36 36" fill="none" xmlns="http://www.w3.org/2000/svg">
<g clip-path="url(#clip0_505_1275)">
<path d="M33.033 10.5949C33.7977 10.5949 34.4176 11.19 34.4176 11.924C34.4176 12.6581 33.7977 13.2531 33.033 13.2531H11.6703C6.7544 13.2531 2.76925 17.0786 2.76925 21.7975C2.76925 26.5163 6.75441 30.3418 11.6704 30.3418H21.9561C22.7208 30.3418 23.3407 30.9368 23.3407 31.6709C23.3407 32.4049 22.7208 33 21.9561 33H11.6704C5.22501 33 1.90735e-05 27.9844 1.90735e-05 21.7975C1.90735e-05 15.6105 5.225 10.5949 11.6703 10.5949H33.033Z" fill="black"/>
<path d="M26.0073 3.30797C25.4198 2.83804 24.5467 2.91423 24.0572 3.47815C23.5676 4.04206 23.647 4.88015 24.2345 5.35008L32.4525 11.924L24.2345 18.4979C23.647 18.9678 23.5676 19.8059 24.0572 20.3698C24.5467 20.9337 25.4198 21.0099 26.0073 20.54L35.5018 12.945C35.8175 12.6925 36 12.3184 36 11.924C36 11.5295 35.8175 11.1554 35.5018 10.9029L26.0073 3.30797Z" fill="black"/>
</g>
<defs>
<clipPath id="clip0_505_1275">
<rect width="36" height="36" fill="white"/>
</clipPath>
</defs>
</svg>
