<svg width="36" height="36" viewBox="0 0 36 36" fill="none" xmlns="http://www.w3.org/2000/svg">
<path fill-rule="evenodd" clip-rule="evenodd" d="M25.0798 2.76729C23.5645 1.15528 21.2831 0 18.0001 0C14.717 0 12.4357 1.15528 10.9204 2.76729C9.44468 4.3372 8.79546 6.23137 8.52188 7.59706C8.33149 8.54746 8.27421 9.49271 8.21913 10.4016C8.19499 10.8 8.17127 11.1915 8.13694 11.5733C8.02281 12.8428 7.79176 14.0585 7.06893 15.2612C6.73469 15.8174 6.2032 16.4723 5.65385 17.0208C5.54159 17.1329 5.38544 17.2485 5.19639 17.3768C5.12912 17.4225 5.0557 17.471 4.97981 17.5212C4.85403 17.6043 4.72151 17.6919 4.59911 17.7783C4.21286 18.0507 3.77679 18.4082 3.66109 18.8975C3.55066 19.3645 3.69032 19.8554 4.03019 20.1947C4.91992 21.0829 5.92482 21.867 7.25078 22.2641C8.5777 22.6616 10.0629 22.6239 11.8418 22.1799C12.5849 21.9944 13.0367 21.2427 12.8509 20.5008C12.6652 19.7589 11.9122 19.3079 11.1691 19.4933C9.70079 19.8598 8.75051 19.8222 8.04781 19.6117C7.78869 19.5341 7.54162 19.4267 7.29663 19.2859C7.40365 19.1865 7.51009 19.0838 7.61517 18.9789C8.28356 18.3116 8.96981 17.4807 9.44739 16.686C9.5427 16.5274 9.63254 16.3689 9.71722 16.2106C9.86897 16.3767 10.0374 16.5605 10.2225 16.7608C10.8395 17.4281 11.6009 18.2306 12.4184 19.0046C12.7234 19.2933 13.0408 19.5825 13.3658 19.8623V23.1412L6.11937 26.035C5.8832 26.1293 5.67756 26.2867 5.52494 26.4898C4.63141 27.6793 2.7292 30.8393 2.0272 34.3436C1.87699 35.0934 2.36408 35.8228 3.11515 35.9728C3.86622 36.1228 4.59686 35.6365 4.74707 34.8867C5.2897 32.178 6.71938 29.6296 7.52602 28.4558L15.2678 25.3642C15.7943 25.1539 16.1396 24.6448 16.1396 24.0786V21.7604C16.727 22.0319 17.3599 22.2212 18.0001 22.2212C18.6402 22.2212 19.273 22.0319 19.8604 21.7604V24.0786C19.8604 24.6448 20.2057 25.1539 20.7322 25.3642L28.474 28.4558C29.2806 29.6296 30.7103 32.178 31.2529 34.8867C31.4031 35.6365 32.1338 36.1228 32.8849 35.9728C33.6359 35.8228 34.123 35.0934 33.9728 34.3436C33.2708 30.8393 31.3686 27.6793 30.4751 26.4898C30.3224 26.2867 30.1168 26.1293 29.8806 26.035L22.6342 23.1412V19.8624C22.9593 19.5826 23.2767 19.2933 23.5818 19.0046C24.3993 18.2306 25.1606 17.4281 25.7776 16.7608C25.9627 16.5605 26.1312 16.3767 26.2829 16.2106C26.3676 16.3689 26.4574 16.5274 26.5527 16.686C27.0303 17.4807 27.7166 18.3116 28.385 18.9789C28.4901 19.0838 28.5965 19.1865 28.7035 19.2859C28.4585 19.4267 28.2115 19.5341 27.9523 19.6117C27.2496 19.8222 26.2994 19.8598 24.831 19.4933C24.088 19.3079 23.335 19.7589 23.1492 20.5008C22.9634 21.2427 23.4152 21.9944 24.1583 22.1799C25.9372 22.6239 27.4224 22.6616 28.7494 22.2641C30.0661 21.8697 31.0663 21.0938 31.9514 20.2131C32.3014 19.8771 32.4504 19.3696 32.3393 18.8977C32.2093 18.3457 31.7943 18.0036 31.4029 17.7438C31.2891 17.6682 31.1614 17.5899 31.0402 17.5156C30.9606 17.4668 30.8833 17.4194 30.8149 17.3759C30.6284 17.2571 30.4696 17.1439 30.3463 17.0208C29.7969 16.4723 29.2654 15.8174 28.9312 15.2612C28.2084 14.0585 27.9773 12.8428 27.8632 11.5733C27.8289 11.1915 27.8051 10.8 27.781 10.4016C27.7259 9.49273 27.6687 8.54747 27.4783 7.59706C27.2047 6.23137 26.5555 4.3372 25.0798 2.76729ZM18.0001 2.76921C20.5621 2.76921 22.0963 3.64012 23.0572 4.6623C24.0576 5.72655 24.5449 7.07441 24.7584 8.14015C24.7628 8.16193 24.7669 8.1846 24.7709 8.20824C24.6529 8.19388 24.5227 8.17424 24.3797 8.14804C23.4687 7.98111 22.1056 7.55953 20.2439 6.63023C17.7817 5.40109 15.2805 5.87547 13.3115 6.79744C12.5751 7.14221 11.8886 7.55948 11.2707 8.00154C11.498 6.95934 11.9855 5.68091 12.943 4.6623C13.9038 3.64012 15.4381 2.76921 18.0001 2.76921ZM14.4892 9.30461C16.0102 8.59243 17.5685 8.39075 19.0035 9.10709C21.0386 10.123 22.6522 10.647 23.879 10.8718C24.2517 10.94 24.5946 10.9818 24.9075 11.0002C24.9164 11.1415 24.9269 11.2854 24.9395 11.4315C24.9896 12.0152 25.0725 12.6435 25.2171 13.3001C25.1899 13.3234 25.1634 13.3479 25.1377 13.3735C24.9415 13.5694 24.6468 13.8919 24.3095 14.2611L24.3033 14.2679C24.1262 14.4618 23.9361 14.6698 23.7394 14.8825C23.1387 15.5322 22.4252 16.2832 21.6732 16.9952C20.9153 17.7126 20.151 18.3591 19.451 18.8181C18.7056 19.3069 18.2276 19.452 18.0001 19.452C17.7725 19.452 17.2945 19.3069 16.5492 18.8181C15.8492 18.3591 15.0848 17.7126 14.327 16.9952C13.5749 16.2832 12.8615 15.5322 12.2607 14.8825C12.0641 14.6698 11.874 14.4618 11.6969 14.268L11.6907 14.2612C11.3533 13.8919 11.0587 13.5694 10.8625 13.3735C10.8368 13.3479 10.8102 13.3234 10.783 13.3001C10.8878 12.8245 10.9601 12.3638 11.0111 11.9242C11.7388 11.1016 13.0111 9.99672 14.4892 9.30461Z" fill="black"/>
</svg>
