<svg width="36" height="36" viewBox="0 0 36 36" fill="none" xmlns="http://www.w3.org/2000/svg">
<g clip-path="url(#clip0_520_1215)">
<path d="M10.1503 21.4181C10.5852 20.7908 11.4466 20.6376 12.0743 21.0761C12.702 21.5146 12.8582 22.3787 12.4233 23.006L7.91768 29.5053L11.9167 29.7657C12.2853 29.7897 12.6296 29.9604 12.8729 30.2398L14.1801 31.7413L16.1051 24.4896C16.3012 23.7506 17.0585 23.3134 17.7965 23.513C18.025 23.5748 18.2248 23.6904 18.386 23.8425C18.5003 23.7705 18.627 23.7141 18.764 23.677C19.502 23.4774 20.2593 23.9146 20.4555 24.6536L22.3369 31.7412L23.6441 30.2398C23.8874 29.9604 24.2317 29.7896 24.6002 29.7656L28.5993 29.5053L24.2617 23.2483C23.8268 22.621 23.983 21.7569 24.6107 21.3184C25.2384 20.88 26.0998 21.0331 26.5347 21.6604L32.2708 29.9348C32.5552 30.345 32.5962 30.8779 32.3782 31.329C32.1601 31.7801 31.7168 32.0793 31.2184 32.1117L25.3443 32.4941L22.7074 35.5228C22.3709 35.9094 21.8498 36.0793 21.3524 35.9647C20.855 35.8501 20.4622 35.4697 20.331 34.9754L18.2585 27.168L16.186 34.9754C16.0548 35.4697 15.662 35.8502 15.1646 35.9647C14.6672 36.0793 14.1461 35.9094 13.8096 35.5228L11.1727 32.4942L5.2986 32.1118C4.80022 32.0793 4.35692 31.7801 4.13884 31.329C3.92075 30.8779 3.96177 30.345 4.24615 29.9348L10.1503 21.4181Z" fill="black"/>
<path fill-rule="evenodd" clip-rule="evenodd" d="M20.9445 1.19358C19.508 -0.397861 17.0089 -0.397861 15.5724 1.19358C15.3492 1.44091 15.0016 1.53427 14.6853 1.4326C12.6364 0.77402 10.4913 2.05687 10.0427 4.12738C9.96951 4.4652 9.70386 4.72875 9.38156 4.7999C7.28347 5.26308 6.06828 7.43899 6.70535 9.4584C6.81107 9.79352 6.71114 10.1602 6.46317 10.3883C4.88854 11.8364 4.88854 14.3213 6.46317 15.7694C6.71114 15.9975 6.81107 16.3642 6.70535 16.6993C6.06828 18.7187 7.28347 20.8946 9.38156 21.3578C9.70386 21.4289 9.96951 21.6925 10.0427 22.0303C10.4913 24.1008 12.6364 25.3837 14.6853 24.7251C15.0016 24.6234 15.3492 24.7168 15.5724 24.9641C17.0089 26.5556 19.508 26.5556 20.9445 24.9641C21.1677 24.7168 21.5153 24.6234 21.8316 24.7251C23.8805 25.3837 26.0255 24.1008 26.4742 22.0303C26.5473 21.6925 26.813 21.4289 27.1353 21.3578C29.2334 20.8946 30.4486 18.7187 29.8115 16.6993C29.7058 16.3642 29.8057 15.9975 30.0537 15.7694C31.6283 14.3213 31.6283 11.8364 30.0537 10.3883C29.8057 10.1602 29.7058 9.79352 29.8115 9.4584C30.4486 7.43899 29.2334 5.26308 27.1353 4.7999C26.813 4.72875 26.5473 4.4652 26.4742 4.12738C26.0255 2.05687 23.8805 0.77402 21.8316 1.4326C21.5153 1.53427 21.1677 1.44091 20.9445 1.19358ZM17.6276 3.04862C17.9646 2.67523 18.5522 2.67523 18.8893 3.04862C19.8415 4.10367 21.3248 4.50359 22.6788 4.06836C23.14 3.92011 23.6593 4.21031 23.7684 4.71363C24.0672 6.09301 25.1445 7.19564 26.5385 7.50338C27.0204 7.60978 27.3282 8.12776 27.1712 8.62547C26.7467 9.97099 27.13 11.4609 28.1796 12.4261C28.5616 12.7774 28.5616 13.3803 28.1796 13.7316C27.13 14.6968 26.7467 16.1867 27.1712 17.5322C27.3282 18.0299 27.0204 18.5479 26.5385 18.6543C25.1445 18.962 24.0672 20.0647 23.7684 21.4441C23.6593 21.9474 23.14 22.2376 22.6788 22.0893C21.3248 21.6541 19.8415 22.054 18.8893 23.1091C18.5522 23.4825 17.9646 23.4825 17.6276 23.1091C16.6753 22.054 15.1921 21.6541 13.8381 22.0893C13.3768 22.2376 12.8576 21.9474 12.7485 21.4441C12.4496 20.0647 11.3724 18.962 9.97838 18.6543C9.49645 18.5479 9.18865 18.0299 9.34566 17.5322C9.77013 16.1867 9.38683 14.6968 8.33729 13.7316C7.95527 13.3803 7.95527 12.7774 8.33729 12.4261C9.38683 11.4609 9.77013 9.97099 9.34566 8.62547C9.18865 8.12776 9.49645 7.60978 9.97838 7.50338C11.3724 7.19564 12.4496 6.09301 12.7485 4.71363C12.8576 4.21031 13.3768 3.92011 13.8381 4.06836C15.1921 4.50359 16.6753 4.10367 17.6276 3.04862Z" fill="black"/>
</g>
<defs>
<clipPath id="clip0_520_1215">
<rect width="36" height="36" fill="white"/>
</clipPath>
</defs>
</svg>
