<svg id="" width="36" height="36" viewBox="0 0 36 36" fill="currentColor" xmlns="http://www.w3.org/2000/svg">
<path fill-rule="evenodd" clip-rule="evenodd" d="M28.523 7.47709C26.7771 5.73115 23.9426 5.71153 22.1922 7.46199C20.4417 9.21245 20.4613 12.0469 22.2073 13.7928C23.9532 15.5388 26.7876 15.5584 28.5381 13.8079C30.2886 12.0575 30.2689 9.22303 28.523 7.47709ZM24.1616 9.4314C24.8115 8.78145 25.8824 8.77536 26.5536 9.4465C27.2247 10.1176 27.2186 11.1886 26.5687 11.8385C25.9187 12.4885 24.8478 12.4946 24.1767 11.8234C23.5055 11.1523 23.5116 10.0814 24.1616 9.4314Z" fill="currentColor"/>
<path fill-rule="evenodd" clip-rule="evenodd" d="M35.4181 1.64141C35.3089 1.15021 34.9365 0.735316 34.4166 0.596845C32.5125 0.0896332 29.375 -0.261794 25.9587 0.251863C22.5288 0.767566 18.7316 2.1701 15.6429 5.25882C14.0606 6.84107 12.8748 8.65553 11.9948 10.536C11.8677 10.4467 11.7233 10.3774 11.565 10.3337C10.2314 9.96575 8.4808 10.0694 6.62188 10.6108C4.73296 11.161 2.62654 12.1922 0.538657 13.8133C0.0371677 14.2026 -0.137482 14.8819 0.114005 15.4648L1.39268 14.9132C0.114003 15.4648 0.115038 15.4672 0.115038 15.4672L0.116109 15.4697L0.11836 15.4748L0.123308 15.486L0.135033 15.5115C0.143681 15.53 0.154019 15.5514 0.1662 15.5756C0.190569 15.6238 0.222288 15.6829 0.262585 15.7517C0.343247 15.8892 0.457917 16.0646 0.616182 16.2677C0.933565 16.6751 1.42107 17.1874 2.15067 17.7278C3.58483 18.7901 5.91862 19.9352 9.67167 20.6365C9.6068 22.3198 9.69596 23.797 9.85385 24.9054C9.91773 25.5244 10.3939 26.0451 11.0378 26.1393C12.1521 26.3023 13.6509 26.3957 15.3629 26.3297C16.0642 30.0819 17.2092 32.4153 18.2714 33.8493C18.8118 34.5789 19.3241 35.0664 19.7314 35.3838C19.9346 35.5421 20.1099 35.6567 20.2475 35.7374C20.3162 35.7777 20.3753 35.8094 20.4236 35.8338C20.4477 35.846 20.4691 35.8563 20.4876 35.865L20.5132 35.8767L20.5243 35.8816L20.5295 35.8839L20.5319 35.885C20.5319 35.885 20.5343 35.886 21.0859 34.6073L20.5343 35.886C21.1173 36.1375 21.7965 35.9628 22.1859 35.4613C23.8069 33.3735 24.8381 31.267 25.3883 29.3781C25.9298 27.5192 26.0334 25.7686 25.6654 24.435C25.6219 24.2773 25.5529 24.1333 25.4641 24.0065C27.3445 23.1265 29.159 21.9407 30.7412 20.3585C33.8299 17.2697 35.2324 13.4726 35.7481 10.0427C36.2567 6.66009 35.9172 3.55074 35.4181 1.64141ZM12.5015 23.4999C14.296 23.6407 16.8363 23.5872 19.5297 23.0319C22.8086 22.3559 26.2002 20.9606 28.7718 18.3891C31.3333 15.8276 32.5415 12.6374 32.9939 9.62857C33.378 7.07385 33.2066 4.71192 32.8947 3.10495C31.2878 2.79327 28.9266 2.62209 26.3728 3.00607C23.3639 3.45847 20.1738 4.66675 17.6123 7.22824C15.0408 9.79976 13.6455 13.1914 12.9695 16.4703C12.414 19.1645 12.3606 21.7054 12.5015 23.4999ZM22.9443 25.0027C21.9846 25.3185 21.0268 25.567 20.0921 25.7597C19.4358 25.895 18.7872 26.0036 18.1527 26.089C18.7932 29.339 19.7643 31.1855 20.5094 32.1916C20.619 32.3394 20.7241 32.4699 20.8234 32.5846C21.7555 31.1689 22.3635 29.8036 22.7143 28.5993C23.1695 27.0361 23.1647 25.8432 22.9806 25.1759C22.9647 25.1182 22.9527 25.0604 22.9443 25.0027ZM10.2417 15.9079C10.4344 14.973 10.683 14.015 10.9989 13.055C10.9406 13.0467 10.8823 13.0346 10.8241 13.0185C10.1568 12.8344 8.96385 12.8296 7.40073 13.2849C6.19644 13.6357 4.83112 14.2436 3.41538 15.1758C3.53013 15.275 3.66057 15.3802 3.80842 15.4897C4.81464 16.235 6.66157 17.2063 9.91245 17.8467C9.9978 17.2124 10.1064 16.564 10.2417 15.9079Z" fill="currentColor"/>
<path fill-rule="evenodd" clip-rule="evenodd" d="M14.7376 28.6354C14.9682 29.243 14.7478 29.9293 14.2065 30.2891C13.0624 31.0497 11.1453 32.1724 9.05296 33.1091C7.00254 34.027 4.59764 34.8527 2.54234 34.8456C2.15611 34.8443 1.78779 34.6826 1.52537 34.3992C1.26295 34.1158 1.13001 33.7362 1.15832 33.351C1.25314 32.0606 1.59481 29.9857 2.31141 27.8256C3.02312 25.6801 4.14793 23.3181 5.88613 21.5799C6.30937 21.1566 6.95573 21.0512 7.49154 21.318C8.02735 21.5848 8.33275 22.1641 8.25007 22.7569C8.1759 23.2887 8.1306 24.1979 8.24755 25.0972C8.37072 26.0444 8.6391 26.7098 8.96477 27.0354C9.29044 27.3611 9.95581 27.6295 10.903 27.7526C11.8023 27.8696 12.7114 27.8243 13.2433 27.7501C13.8869 27.6603 14.5071 28.0277 14.7376 28.6354ZM5.73862 26.7166C5.43945 27.3577 5.17891 28.0273 4.95492 28.7025C4.57988 29.8331 4.32192 30.9346 4.15663 31.8687C5.30219 31.622 6.6028 31.1545 7.91491 30.567C8.23385 30.4243 8.54863 30.2766 8.85657 30.1266C8.18494 29.8899 7.52655 29.536 6.99536 29.0048C6.35176 28.3612 5.9684 27.5309 5.73862 26.7166Z" fill="currentColor"/>
</svg>
