<svg width="36" height="36" viewBox="0 0 36 36" fill="none" xmlns="http://www.w3.org/2000/svg">
<path fill-rule="evenodd" clip-rule="evenodd" d="M36 18C36 27.9411 27.9411 36 18 36C8.05888 36 0 27.9411 0 18C0 8.05888 8.05888 0 18 0C27.9411 0 36 8.05888 36 18ZM33.75 18C33.75 26.6985 26.6985 33.75 18 33.75C9.30152 33.75 2.25 26.6985 2.25 18C2.25 9.30152 9.30152 2.25 18 2.25C26.6985 2.25 33.75 9.30152 33.75 18Z" fill="black"/>
<path fill-rule="evenodd" clip-rule="evenodd" d="M28.0583 15.3545C28.4216 14.9392 28.5085 14.3499 28.2805 13.8474C28.0525 13.3449 27.5517 13.0222 27 13.0222H8.99996C8.44818 13.0222 7.94739 13.3449 7.71938 13.8474C7.49138 14.3499 7.5783 14.9392 7.94165 15.3545L16.9416 25.6402C17.2087 25.9454 17.5945 26.1204 18 26.1204C18.4055 26.1204 18.7912 25.9454 19.0583 25.6402L28.0583 15.3545ZM12.099 15.8347L23.9009 15.8347L18 22.5787L12.099 15.8347Z" fill="black"/>
</svg>
