<svg width="36" height="36" viewBox="0 0 36 36" fill="none" xmlns="http://www.w3.org/2000/svg">
<g clip-path="url(#clip0_505_1123)">
<path fill-rule="evenodd" clip-rule="evenodd" d="M18 23.2188C20.8823 23.2188 23.2189 20.8822 23.2189 17.9998C23.2189 15.1175 20.8823 12.7809 18 12.7809C15.1177 12.7809 12.7811 15.1175 12.7811 17.9998C12.7811 20.8822 15.1177 23.2188 18 23.2188ZM20.4497 17.9998C20.4497 19.3528 19.3529 20.4495 18 20.4495C16.6471 20.4495 15.5503 19.3528 15.5503 17.9998C15.5503 16.6469 16.6471 15.5501 18 15.5501C19.3529 15.5501 20.4497 16.6469 20.4497 17.9998Z" fill="black"/>
<path fill-rule="evenodd" clip-rule="evenodd" d="M20.5561 36C21.1647 36 21.7019 35.6026 21.8801 35.0207L22.9282 31.5966C23.3373 31.4483 23.7378 31.2821 24.1288 31.0989L27.2917 32.7792C27.8292 33.0647 28.4901 32.9658 28.9204 32.5355L32.5354 28.9204C32.9658 28.4901 33.0647 27.8292 32.7791 27.2918L31.0988 24.1288C31.282 23.7379 31.4482 23.3376 31.5964 22.9286L35.0206 21.8804C35.6026 21.7022 35.9999 21.165 35.9999 20.5564L35.9999 15.444C35.9999 14.8354 35.6026 14.2981 35.0206 14.12L31.5966 13.0718C31.4483 12.6627 31.2821 12.2622 31.0988 11.8713L32.7791 8.70839C33.0646 8.17094 32.9657 7.51006 32.5354 7.07972L28.9204 3.46469C28.49 3.03436 27.8292 2.93547 27.2917 3.22099L24.129 4.90119C23.738 4.71792 23.3374 4.55163 22.9282 4.40329L21.8801 0.97932C21.7019 0.397388 21.1647 -5.32044e-08 20.5561 0L15.4437 4.46942e-07C14.8351 5.00147e-07 14.2978 0.397389 14.1197 0.979321L13.0716 4.40326C12.6624 4.55159 12.2619 4.71785 11.8709 4.9011L8.70815 3.22089C8.1707 2.93536 7.50982 3.03425 7.07948 3.46459L3.46445 7.07962C3.03411 7.50996 2.93523 8.17084 3.22075 8.70829L4.90097 11.8711C4.71776 12.262 4.55152 12.6624 4.40321 13.0715L0.979259 14.1196C0.397327 14.2978 -6.10884e-05 14.835 -6.10352e-05 15.4436L-6.05882e-05 20.556C-6.0535e-05 21.1646 0.397328 21.7019 0.97926 21.88L4.40309 22.9281C4.55144 23.3373 4.71773 23.7379 4.90101 24.129L3.22088 27.2915C2.93536 27.829 3.03425 28.4899 3.46459 28.9202L7.07962 32.5353C7.50996 32.9656 8.17084 33.0645 8.70829 32.779L11.8709 31.0988C12.2619 31.2821 12.6624 31.4483 13.0715 31.5967L14.1197 35.0207C14.2978 35.6026 14.8351 36 15.4437 36H20.5561ZM12.7118 28.3751C13.2515 28.6508 13.8155 28.8855 14.3997 29.0753C14.8982 29.1612 15.3313 29.5182 15.4895 30.0349L16.4678 33.2308L19.5319 33.2308L20.5102 30.0349C20.6684 29.5182 21.1014 29.1612 21.5999 29.0753C22.185 28.8852 22.7498 28.6501 23.2903 28.3739C23.7031 28.085 24.2594 28.0325 24.7349 28.2851L27.6865 29.8531L29.8531 27.6865L28.2851 24.7349C28.0325 24.2595 28.0849 23.7033 28.3737 23.2905C28.65 22.7499 28.8853 22.1848 29.0754 21.5995C29.1616 21.1013 29.5184 20.6686 30.0349 20.5105L33.2307 19.5322V16.4682L30.0349 15.4898C29.5181 15.3316 29.1611 14.8985 29.0752 14.4C28.8852 13.8151 28.6502 13.2506 28.3742 12.7104C28.085 12.2975 28.0323 11.7409 28.285 11.2652L29.8531 8.31366L27.6864 6.14704L24.7349 7.71506C24.2589 7.96794 23.7019 7.91507 23.2889 7.62534C22.7491 7.34954 22.1848 7.11467 21.6004 6.92479C21.1017 6.83896 20.6685 6.48193 20.5102 5.96506L19.5319 2.76923L16.4678 2.76923L15.4895 5.96506C15.3313 6.48199 14.898 6.83904 14.3992 6.92482C13.8148 7.11469 13.2506 7.34955 12.7108 7.62532C12.2979 7.91498 11.7409 7.96781 11.265 7.71495L8.31342 6.14694L6.14679 8.31356L7.71481 11.2651C7.96765 11.7411 7.91485 12.2979 7.62524 12.7109C7.34947 13.2507 7.11461 13.8148 6.92475 14.3992C6.83895 14.8979 6.48191 15.3312 5.965 15.4895L2.76917 16.4678L2.76917 19.5319L5.965 20.5102C6.48213 20.6685 6.83925 21.1021 6.92486 21.601C7.11458 22.1849 7.34921 22.7486 7.62469 23.288C7.9149 23.701 7.96799 24.2584 7.71495 24.7347L6.14693 27.6863L8.31356 29.8529L11.2651 28.2849C11.7414 28.0319 12.2988 28.0849 12.7118 28.3751Z" fill="black"/>
</g>
<defs>
<clipPath id="clip0_505_1123">
<rect width="36" height="36" fill="white"/>
</clipPath>
</defs>
</svg>
