<svg width="36" height="36" viewBox="0 0 36 36" fill="none" xmlns="http://www.w3.org/2000/svg">
<g clip-path="url(#clip0_508_1174)">
<path d="M21.9754 30.9302L28.5523 23.4787C29.0602 22.9032 29.9426 22.8449 30.5231 23.3485C31.1036 23.852 31.1624 24.7268 30.6545 25.3023L21.6373 35.5187C21.6222 35.5361 21.6066 35.5531 21.5907 35.5697C21.3463 35.8243 21.0052 35.9868 20.6257 35.9992C20.5725 36.001 20.5192 35.9997 20.466 35.9955C20.3615 35.9872 20.2602 35.9675 20.1634 35.9377C19.9827 35.882 19.8106 35.7889 19.659 35.6574C19.4946 35.5148 19.3721 35.3424 19.2924 35.1556C19.2314 35.013 19.1938 34.8582 19.1844 34.6959C19.1826 34.6646 19.1818 34.6333 19.1821 34.602L19.1821 1.38461C19.1821 0.619913 19.8074 0 20.5787 0C21.3501 0 21.9754 0.619913 21.9754 1.38461L21.9754 30.9302Z" fill="black"/>
<path fill-rule="evenodd" clip-rule="evenodd" d="M9.62992 0.829634C9.85233 0.325653 10.3546 0 10.9095 0C11.4644 0 11.9667 0.325653 12.1891 0.829634L16.7014 11.0545C17.0106 11.7551 16.6883 12.5715 15.9816 12.878C15.275 13.1845 14.4514 12.865 14.1423 12.1644L12.8163 9.15975H9.00273L7.67673 12.1644C7.36755 12.865 6.54403 13.1845 5.83734 12.878C5.13065 12.5715 4.8084 11.7551 5.11758 11.0545L9.62992 0.829634ZM10.9095 4.83908L11.5942 6.39052H10.2248L10.9095 4.83908Z" fill="black"/>
<path d="M5.00035 25.6687C5.00035 24.904 5.62566 24.2841 6.39702 24.2841H15.4217C15.9866 24.2841 16.4959 24.6214 16.7121 25.1388C16.9282 25.6562 16.8087 26.2517 16.4093 26.6477L9.7689 33.2308H15.4217C16.1931 33.2308 16.8184 33.8507 16.8184 34.6154C16.8184 35.3801 16.1931 36 15.4217 36H6.39702C5.83212 36 5.32284 35.6627 5.10666 35.1453C4.89048 34.6279 5.00998 34.0323 5.40942 33.6363L12.0498 27.0533H6.39702C5.62566 27.0533 5.00035 26.4334 5.00035 25.6687Z" fill="black"/>
</g>
<defs>
<clipPath id="clip0_508_1174">
<rect width="36" height="36" fill="white"/>
</clipPath>
</defs>
</svg>
