<svg width="36" height="36" viewBox="0 0 36 36" fill="none" xmlns="http://www.w3.org/2000/svg">
<g clip-path="url(#clip0_520_938)">
<path fill-rule="evenodd" clip-rule="evenodd" d="M20.3637 2.69324C19.6197 0.435581 16.3803 0.435594 15.6363 2.69324L12.5329 12.1106H2.49009C0.0824927 12.1106 -0.91853 15.1483 1.02925 16.5436L9.15406 22.3638L6.05066 31.7812C5.30667 34.0388 7.9274 35.9162 9.87518 34.5209L18 28.7006L26.1248 34.5209C28.0726 35.9162 30.6933 34.0388 29.9493 31.7812L26.8459 22.3638L34.9707 16.5436C36.9185 15.1482 35.9175 12.1106 33.5099 12.1106H23.4671L20.3637 2.69324ZM15.0972 13.1401L18 4.33158L20.9028 13.1401C21.2355 14.1498 22.1897 14.8334 23.2665 14.8334H32.66L25.0605 20.2773C24.1894 20.9013 23.8249 22.0074 24.1576 23.017L27.0604 31.8256L19.4608 26.3816C18.5898 25.7576 17.4102 25.7576 16.5392 26.3816L8.93961 31.8256L11.8424 23.017C12.1751 22.0074 11.8106 20.9013 10.9395 20.2773L3.33998 14.8334H12.7335C13.8103 14.8334 14.7645 14.1498 15.0972 13.1401Z" fill="black"/>
</g>
<defs>
<clipPath id="clip0_520_938">
<rect width="36" height="36" fill="white"/>
</clipPath>
</defs>
</svg>
