<svg width="36" height="36" viewBox="0 0 36 36" fill="none" xmlns="http://www.w3.org/2000/svg">
<path fill-rule="evenodd" clip-rule="evenodd" d="M18 0C8.05888 0 0 8.05888 0 18C0 27.9411 8.05888 36 18 36C27.9411 36 36 27.9411 36 18C36 8.05888 27.9411 0 18 0ZM2.76923 18C2.76923 9.58828 9.58828 2.76923 18 2.76923C26.4117 2.76923 33.2308 9.58828 33.2308 18C33.2308 26.4117 26.4117 33.2308 18 33.2308C9.58828 33.2308 2.76923 26.4117 2.76923 18Z" fill="black"/>
<path d="M19.2659 5.85486C18.5012 5.85486 17.8813 6.47477 17.8813 7.23947V18.5887L12.7191 22.6037C12.1155 23.0732 12.0068 23.9431 12.4763 24.5467C12.9458 25.1503 13.8157 25.259 14.4193 24.7896L20.116 20.3588C20.4533 20.0965 20.6505 19.6931 20.6505 19.2658V7.23947C20.6505 6.47477 20.0306 5.85486 19.2659 5.85486Z" fill="black"/>
</svg>
