<svg width="36" height="36" viewBox="0 0 36 36" fill="none" xmlns="http://www.w3.org/2000/svg">
<path d="M19.0207 16.5912C19.0207 15.9103 18.4692 15.3583 17.7888 15.3583C17.1085 15.3583 16.5569 15.9103 16.5569 16.5912V28.9904C16.5569 29.6713 17.1085 30.2233 17.7888 30.2233C18.4692 30.2233 19.0207 29.6713 19.0207 28.9904V16.5912Z" fill="black"/>
<path d="M23.8074 16.5912C23.8074 15.9103 23.2558 15.3583 22.5755 15.3583C21.8951 15.3583 21.3436 15.9103 21.3436 16.5912V26.5951C21.3436 27.276 21.8951 27.828 22.5755 27.828C23.2558 27.828 23.8074 27.276 23.8074 26.5951V16.5912Z" fill="black"/>
<path d="M13.4666 15.5216C12.7862 15.5216 12.2347 16.0736 12.2347 16.7545V26.7584C12.2347 27.4393 12.7862 27.9913 13.4666 27.9913C14.1469 27.9913 14.6984 27.4393 14.6984 26.7584V16.7545C14.6984 16.0736 14.1469 15.5216 13.4666 15.5216Z" fill="black"/>
<path fill-rule="evenodd" clip-rule="evenodd" d="M1 12.223C1 11.5421 1.55153 10.9901 2.23188 10.9901H33.7681C34.4485 10.9901 35 11.5421 35 12.223C35 12.9039 34.4485 13.4559 33.7681 13.4559H29.9454L27.1073 31.6219C26.7135 34.1422 24.5443 36.0001 21.9955 36.0001H14.0044C11.4555 36.0001 9.28636 34.1422 8.8926 31.6219L6.05441 13.4559H2.23188C1.55153 13.4559 1 12.9039 1 12.223ZM27.4517 13.4559H8.54812L11.3268 31.241C11.533 32.5612 12.6693 33.5343 14.0044 33.5343H21.9955C23.3306 33.5343 24.4668 32.5612 24.6731 31.241L27.4517 13.4559Z" fill="black"/>
<path fill-rule="evenodd" clip-rule="evenodd" d="M14.7618 0C11.9043 0 9.58789 2.31831 9.58789 5.17809V7.4325C9.58789 8.65812 10.5806 9.65169 11.8053 9.65169H24.1945C25.4191 9.65169 26.4119 8.65813 26.4119 7.43251V5.1781C26.4119 2.31831 24.0955 0 21.238 0H14.7618ZM12.0517 5.17809C12.0517 3.68011 13.265 2.46576 14.7618 2.46576H21.238C22.7348 2.46576 23.9481 3.68011 23.9481 5.1781V7.18593L12.0517 7.18593V5.17809Z" fill="black"/>
</svg>
