<svg width="36" height="36" viewBox="0 0 36 36" fill="none" xmlns="http://www.w3.org/2000/svg">
<g clip-path="url(#clip0_505_1270)">
<path d="M2.96703 10.5949C2.20233 10.5949 1.58241 11.19 1.58241 11.924C1.58241 12.6581 2.20233 13.2531 2.96703 13.2531H24.3297C29.2456 13.2531 33.2308 17.0786 33.2308 21.7975C33.2308 26.5163 29.2456 30.3418 24.3297 30.3418H14.044C13.2792 30.3418 12.6593 30.9368 12.6593 31.6709C12.6593 32.4049 13.2792 33 14.044 33H24.3297C30.775 33 36 27.9844 36 21.7975C36 15.6105 30.775 10.5949 24.3297 10.5949H2.96703Z" fill="black"/>
<path d="M9.99271 3.30797C10.5802 2.83804 11.4533 2.91423 11.9428 3.47815C12.4324 4.04206 12.353 4.88015 11.7655 5.35008L3.54745 11.924L11.7655 18.4979C12.353 18.9678 12.4324 19.8059 11.9428 20.3698C11.4533 20.9337 10.5802 21.0099 9.99271 20.54L0.498206 12.945C0.182525 12.6925 0 12.3184 0 11.924C0 11.5295 0.182525 11.1554 0.498206 10.9029L9.99271 3.30797Z" fill="black"/>
</g>
<defs>
<clipPath id="clip0_505_1270">
<rect width="36" height="36" fill="white"/>
</clipPath>
</defs>
</svg>
