<svg width="36" height="36" viewBox="0 0 36 36" fill="none" xmlns="http://www.w3.org/2000/svg">
<path fill-rule="evenodd" clip-rule="evenodd" d="M23.1579 25.6686C23.1579 23.4922 21.4142 21.7278 19.2632 21.7278H16.7369C14.5859 21.7278 12.8421 23.4922 12.8421 25.6686C12.8421 27.8451 14.5859 29.6094 16.7369 29.6094H19.2632C21.4142 29.6094 23.1579 27.8451 23.1579 25.6686ZM19.2632 24.497C19.9027 24.497 20.4211 25.0216 20.4211 25.6686C20.4211 26.3157 19.9027 26.8402 19.2632 26.8402H16.7369C16.0974 26.8402 15.579 26.3157 15.579 25.6686C15.579 25.0216 16.0974 24.497 16.7369 24.497H19.2632Z" fill="black"/>
<path fill-rule="evenodd" clip-rule="evenodd" d="M9.05263 9.05326C9.05263 4.05328 13.0585 0 18 0C22.9415 0 26.9474 4.05329 26.9474 9.05326V10.3314C26.9474 11.0961 26.3347 11.716 25.5789 11.716C24.8232 11.716 24.2105 11.0961 24.2105 10.3314V9.05326C24.2105 5.58269 21.43 2.76923 18 2.76923C14.57 2.76923 11.7895 5.58268 11.7895 9.05326V15.3373H27.3474C29.9169 15.3373 32 17.445 32 20.045V27.9692C32 32.4045 28.4466 36 24.0632 36H11.9368C7.55345 36 4 32.4045 4 27.9692V20.045C4 17.445 6.08305 15.3373 8.65263 15.3373H9.05263V9.05326ZM10.4165 18.1065H8.65263C7.59457 18.1065 6.73684 18.9744 6.73684 20.045V27.9692C6.73684 30.8751 9.06497 33.2308 11.9368 33.2308H24.0632C26.935 33.2308 29.2632 30.8751 29.2632 27.9692V20.045C29.2632 18.9744 28.4054 18.1065 27.3474 18.1065H10.4256L10.421 18.1065L10.4165 18.1065Z" fill="black"/>
</svg>
