<svg id="" width="36" height="36" viewBox="0 0 36 36" fill="currentColor" xmlns="http://www.w3.org/2000/svg">
<path d="M13.2739 0C5.94291 0 0 5.9429 0 13.2738C0 18.1889 2.67215 22.4781 6.63587 24.771C7.3331 25.1743 8.22528 24.9361 8.62861 24.2388C9.03194 23.5416 8.79368 22.6494 8.09645 22.2461C4.99699 20.4532 2.91692 17.1056 2.91692 13.2738C2.91692 7.55388 7.55388 2.91692 13.2739 2.91692C17.9867 2.91692 21.9677 6.06589 23.2207 10.3774C23.3734 10.9026 23.7954 11.2763 24.2928 11.3917C24.5663 11.4881 24.8712 11.5041 25.1716 11.4195C25.7073 11.2688 26.2737 11.1877 26.8615 11.1877C30.2976 11.1877 33.0831 13.9732 33.0831 17.4092C33.0831 19.9023 31.6167 22.0557 29.4933 23.0487C28.7637 23.3899 28.4488 24.258 28.79 24.9877C29.1312 25.7173 29.9993 26.0322 30.729 25.691C33.8398 24.2362 36 21.0765 36 17.4092C36 12.3622 31.9086 8.27075 26.8615 8.27075C26.4363 8.27075 26.0173 8.29989 25.6066 8.35639C23.6528 3.46095 18.8692 0 13.2739 0Z" fill="currentColor"/>
<path d="M10.9719 25.3371C10.4562 25.9559 10.5398 26.8755 11.1586 27.3912C11.7774 27.9068 12.697 27.8232 13.2127 27.2044L16.5416 23.2098V34.5415C16.5416 35.347 17.1945 36 18 36C18.8055 36 19.4585 35.347 19.4585 34.5415V23.2099L22.7873 27.2044C23.3029 27.8232 24.2226 27.9068 24.8414 27.3912C25.4602 26.8755 25.5438 25.9559 25.0281 25.3371L19.129 18.2582C18.8745 17.9473 18.4941 17.7435 18.0657 17.7245C18.0439 17.7235 18.0219 17.7231 18 17.7231C17.6708 17.7231 17.3546 17.8342 17.1001 18.0337C17.02 18.0966 16.9459 18.1682 16.8796 18.2478L10.9719 25.3371Z" fill="currentColor"/>
</svg>
