<svg id="" width="36" height="36" viewBox="0 0 36 36" fill="currentColor" xmlns="http://www.w3.org/2000/svg">
<g clip-path="url(#clip0_505_1146)">
<path d="M10.6522 5.21884C10.6522 4.45414 10.0323 3.83423 9.26757 3.83423C6.09798 3.83423 3.89895 5.00583 2.44724 6.62461C1.03802 8.19601 0.421705 10.0862 0.162408 11.4429C-0.0240396 12.4185 -0.0166091 13.3631 0.0226425 14.3899C0.0322259 14.6406 0.0438639 14.8987 0.055971 15.1671C0.0943955 16.0193 0.13781 16.9827 0.137792 18.1869C0.137787 18.5432 0.275172 18.8858 0.521363 19.1435C0.664909 19.2937 0.879323 19.5397 1.17453 19.8786C1.34994 20.0799 1.55216 20.312 1.78135 20.5719C2.37006 21.2393 3.09689 22.0423 3.87753 22.817C4.16932 23.1065 4.47333 23.3969 4.7849 23.6779V26.9332L1.20254 28.1971C0.481405 28.4515 0.103067 29.2424 0.357494 29.9635C0.61192 30.6846 1.40277 31.063 2.1239 30.8085L6.63019 29.2187C7.18385 29.0233 7.55412 28.5 7.55412 27.9129V25.636C8.09355 25.8844 8.67507 26.0555 9.26757 26.0555C10.2639 26.0555 11.2223 25.5723 11.99 25.0668C12.7985 24.5345 13.608 23.8328 14.3461 23.1217C14.8968 22.5911 14.9131 21.7146 14.3825 21.1639C13.852 20.6132 12.9754 20.5969 12.4247 21.1274C11.7439 21.7834 11.0735 22.3548 10.4673 22.7539C9.81977 23.1802 9.42887 23.2863 9.26757 23.2863C9.08799 23.2863 8.65376 23.1584 7.94127 22.6687C7.27768 22.2126 6.55083 21.5685 5.82811 20.8513C5.11136 20.1401 4.43115 19.3897 3.85808 18.74C3.67123 18.5282 3.49042 18.3207 3.32185 18.1274L3.32013 18.1254C3.17048 17.9537 3.03011 17.7927 2.90424 17.6501C2.89601 16.8496 2.8706 16.1481 2.84414 15.5308C3.35073 14.9672 4.07519 14.2988 4.92668 13.7305C5.93882 13.055 7.03802 12.5821 8.10056 12.5048C8.86324 12.4494 9.43656 11.7861 9.3811 11.0235C9.32565 10.2608 8.66241 9.68746 7.89973 9.74292C6.19378 9.86696 4.63403 10.5965 3.38942 11.4272C3.23103 11.5329 3.07629 11.6412 2.9255 11.7514C3.15022 10.7148 3.6173 9.46763 4.50887 8.47346C5.41946 7.45807 6.86068 6.60344 9.26757 6.60344C10.0323 6.60344 10.6522 5.98353 10.6522 5.21884Z" fill="currentColor"/>
<path fill-rule="evenodd" clip-rule="evenodd" d="M27.4944 2.79038C26.0427 1.1716 23.8436 0 20.6741 0C17.5045 0 15.3054 1.1716 13.8537 2.79038C12.4445 4.36178 11.8282 6.25199 11.5689 7.60871C11.3824 8.58427 11.3899 9.52892 11.4291 10.5557C11.4387 10.8059 11.4503 11.0635 11.4624 11.3314L11.4625 11.3332C11.5009 12.1854 11.5443 13.1485 11.5443 14.3526C11.5443 14.709 11.6817 15.0516 11.9279 15.3093C12.0714 15.4595 12.2865 15.7063 12.5817 16.0452C12.757 16.2463 12.959 16.4782 13.1878 16.7376C13.7765 17.405 14.5034 18.2081 15.284 18.9827C15.5758 19.2723 15.8798 19.5627 16.1914 19.8437V23.1571L9.29623 26.0434C9.05949 26.1425 8.85495 26.3054 8.70544 26.514C7.85206 27.7047 6.04065 30.8608 5.3728 34.3552C5.22925 35.1063 5.72177 35.8316 6.47287 35.9751C7.22397 36.1187 7.94923 35.6261 8.09278 34.875C8.61095 32.1638 9.97263 29.617 10.743 28.4398L18.1107 25.3558C18.6255 25.1403 18.9606 24.6367 18.9606 24.0786V21.8017C19.5001 22.0501 20.0816 22.2213 20.6741 22.2213C21.2666 22.2213 21.8481 22.0501 22.3875 21.8017V24.0786C22.3875 24.6367 22.7227 25.1403 23.2375 25.3558L30.6051 28.4398C31.3755 29.617 32.7372 32.1638 33.2554 34.875C33.3989 35.6261 34.1242 36.1187 34.8753 35.9751C35.6264 35.8316 36.1189 35.1063 35.9754 34.3552C35.3075 30.8608 33.4961 27.7047 32.6427 26.514C32.4932 26.3054 32.2887 26.1425 32.0519 26.0434L25.1568 23.1571V19.8436C25.4683 19.5626 25.7723 19.2723 26.0641 18.9828C26.8448 18.2081 27.5716 17.405 28.1603 16.7376C28.3893 16.478 28.5918 16.2456 28.7672 16.0443C29.0623 15.7055 29.2768 15.4595 29.4203 15.3093C29.6665 15.0516 29.8039 14.709 29.8039 14.3527C29.8039 13.1487 29.8473 12.1857 29.8857 11.3337L29.8857 11.3325C29.8978 11.0642 29.9094 10.8062 29.919 10.5557C29.9582 9.5289 29.9657 8.58425 29.7792 7.60871C29.5199 6.25199 28.9036 4.36178 27.4944 2.79038ZM20.6741 2.76921C23.0809 2.76921 24.5222 3.62384 25.4327 4.63923C26.3858 5.70199 26.8538 7.05382 27.0592 8.12856C27.0637 8.15195 27.068 8.17538 27.0722 8.19886C26.983 8.18613 26.8866 8.17011 26.7828 8.15018C25.927 7.98582 24.636 7.56853 22.865 6.64187C20.4752 5.39146 18.0467 5.87853 16.1527 6.80807C15.4996 7.12862 14.888 7.51093 14.332 7.91715C14.5567 6.88053 15.0238 5.6334 15.9154 4.63923C16.826 3.62384 18.2672 2.76921 20.6741 2.76921ZM17.3728 9.29403C18.8082 8.58953 20.2526 8.40034 21.5812 9.09551C23.5278 10.1141 25.0767 10.6423 26.2605 10.8697C26.5705 10.9292 26.8601 10.969 27.129 10.9909L27.1204 11.1815C27.0872 11.9157 27.048 12.7838 27.0374 13.8158C26.9116 13.9584 26.7706 14.1202 26.6209 14.2918L26.6201 14.2928C26.4514 14.4863 26.2706 14.6938 26.0836 14.9058C25.5105 15.5554 24.8303 16.3058 24.1135 17.0171C23.3908 17.7343 22.6639 18.3784 22.0004 18.8344C21.2879 19.3241 20.8536 19.4521 20.6741 19.4521C20.4945 19.4521 20.0602 19.3241 19.3478 18.8344C18.6842 18.3784 17.9573 17.7343 17.2346 17.0171C16.5178 16.3058 15.8376 15.5554 15.2646 14.9058C15.0775 14.6937 14.896 14.4855 14.7273 14.2919C14.5775 14.1201 14.4366 13.9585 14.3107 13.8158C14.3025 13.0154 14.2771 12.3138 14.2506 11.6965C14.9641 10.9026 16.0892 9.92401 17.3728 9.29403Z" fill="currentColor"/>
</g>
<defs>
<clipPath id="clip0_505_1146">
<rect width="36" height="36" fill="currentColor"/>
</clipPath>
</defs>
</svg>
