<svg width="36" height="36" viewBox="0 0 36 36" fill="none" xmlns="http://www.w3.org/2000/svg">
<g clip-path="url(#clip0_505_1908)">
<path d="M20.3075 1.2793C19.3473 -0.426425 16.8774 -0.426437 15.9172 1.27929L14.3532 4.05763L11.6009 2.42867C9.91115 1.42858 7.77211 2.65591 7.79875 4.61022L7.84213 7.79348L4.639 7.75037C2.67249 7.7239 1.4375 9.84966 2.44383 11.5289L4.08296 14.2642L1.28728 15.8184C-0.429087 16.7727 -0.429099 19.2273 1.28728 20.1816L4.08296 21.7358L2.44383 24.4711C1.4375 26.1503 2.67249 28.2761 4.639 28.2496L7.84213 28.2065L7.79875 31.3898C7.77211 33.3441 9.91115 34.5714 11.6009 33.5713L14.3532 31.9424L15.9172 34.7207C16.8774 36.4264 19.3473 36.4264 20.3075 34.7207L21.8715 31.9424L24.6238 33.5713C26.3136 34.5714 28.4526 33.3441 28.426 31.3898L28.3826 28.2065L31.5857 28.2496C33.5522 28.2761 34.7872 26.1503 33.7809 24.4711L32.1418 21.7358L34.7126 20.3065C36.5288 19.2968 36.3959 16.6571 34.4875 15.8325L32.0413 14.7756C31.3335 14.4698 30.5103 14.7921 30.2026 15.4955C29.8949 16.1989 30.2192 17.017 30.9269 17.3228L32.8559 18.1562L30.5267 19.4512C29.291 20.1382 28.8691 21.7029 29.5936 22.9118L31.124 25.4657L28.1333 25.4254C26.7176 25.4064 25.565 26.5518 25.5841 27.9588L25.6247 30.931L23.0549 29.41C21.8384 28.69 20.2639 29.1093 19.5726 30.3373L18.1124 32.9314L16.6521 30.3373C15.9608 29.1093 14.3863 28.69 13.1699 29.41L10.6001 30.931L10.6406 27.9588C10.6597 26.5518 9.50714 25.4064 8.09141 25.4254L5.10069 25.4657L6.63113 22.9118C7.3556 21.7029 6.93371 20.1382 5.69807 19.4512L3.08777 18L5.69807 16.5488C6.93371 15.8618 7.35559 14.2971 6.63113 13.0882L5.10069 10.5343L8.09141 10.5746C9.50714 10.5936 10.6597 9.44816 10.6406 8.04121L10.6001 5.06905L13.1699 6.58999C14.3863 7.30997 15.9608 6.8907 16.6521 5.66272L18.1124 3.06862L19.5726 5.66272C20.2639 6.8907 21.8384 7.30996 23.0549 6.58999L25.6247 5.06904L25.6044 6.55387C25.594 7.32078 26.2111 7.9509 26.9828 7.96129C27.7545 7.97167 28.3885 7.35839 28.399 6.59148L28.426 4.61022C28.4526 2.65591 26.3136 1.42858 24.6238 2.42867L21.8715 4.05763L20.3075 1.2793Z" fill="black"/>
<path d="M34.4346 5.59308C33.8902 5.04944 33.0055 5.04732 32.4584 5.58835L17.446 20.4359L11.4326 14.4885C10.8855 13.9474 10.0008 13.9496 9.45635 14.4932C8.91195 15.0368 8.91408 15.9161 9.46111 16.4572L16.4603 23.3795C17.0055 23.9187 17.8866 23.9187 18.4318 23.3795L34.4299 7.55705C34.9769 7.01602 34.979 6.13672 34.4346 5.59308Z" fill="black"/>
</g>
<defs>
<clipPath id="clip0_505_1908">
<rect width="36" height="36" fill="white"/>
</clipPath>
</defs>
</svg>
