<svg width="36" height="36" viewBox="0 0 36 36" fill="none" xmlns="http://www.w3.org/2000/svg">
<g clip-path="url(#clip0_512_1524)">
<path d="M19.2782 20.0489C14.9684 20.0489 10.7279 18.7405 7.36063 17.143C5.67013 16.341 4.17367 15.454 2.97169 14.5954C1.79264 13.7532 0.818639 12.883 0.248512 12.0949C-0.188509 11.4908 -0.0340812 10.66 0.593436 10.2392C1.22095 9.81852 2.08393 9.96719 2.52095 10.5713C2.8409 11.0136 3.53979 11.6815 4.62175 12.4544C5.6807 13.2108 7.03315 14.0156 8.5847 14.7516C11.7015 16.2303 15.5176 17.3829 19.2782 17.3829C26.3683 17.3829 30.627 13.2888 33.2723 10.7405L33.2748 10.738C33.3998 10.6177 33.5213 10.5006 33.6392 10.3878C34.1816 9.86873 35.0582 9.87123 35.5974 10.3933C36.1365 10.9155 36.1339 11.7595 35.5915 12.2785C35.4652 12.3994 35.3326 12.5275 35.1931 12.6622L35.1854 12.6697C32.5354 15.2299 27.5473 20.0489 19.2782 20.0489Z" fill="black"/>
<path d="M31.3222 15.163C30.7815 14.6424 29.9048 14.6424 29.3641 15.163C28.8234 15.6836 28.8234 16.5276 29.3641 17.0481L33.2201 20.7604C33.7608 21.281 34.6375 21.281 35.1782 20.7604C35.719 20.2399 35.719 19.3959 35.1782 18.8753L31.3222 15.163Z" fill="black"/>
<path d="M7.3696 16.3935C7.91032 15.8729 8.78701 15.8729 9.32773 16.3935C9.86845 16.9141 9.86845 17.7581 9.32773 18.2786L5.47171 21.9909C4.93099 22.5115 4.0543 22.5115 3.51358 21.9909C2.97285 21.4703 2.97285 20.6263 3.51358 20.1058L7.3696 16.3935Z" fill="black"/>
<path d="M13.7422 19.2506C13.9402 18.5394 14.6994 18.1174 15.438 18.308C16.1767 18.4985 16.615 19.2295 16.4171 19.9406L15.0057 25.0116C14.8078 25.7227 14.0486 26.1447 13.3099 25.9542C12.5713 25.7637 12.1329 25.0327 12.3308 24.3216L13.7422 19.2506Z" fill="black"/>
<path d="M24.8143 19.2506C24.6164 18.5394 23.8572 18.1174 23.1186 18.308C22.3799 18.4985 21.9416 19.2295 22.1395 19.9406L23.5509 25.0116C23.7488 25.7227 24.508 26.1447 25.2467 25.9542C25.9853 25.7637 26.4237 25.0327 26.2257 24.3216L24.8143 19.2506Z" fill="black"/>
</g>
<defs>
<clipPath id="clip0_512_1524">
<rect width="36" height="36" fill="white"/>
</clipPath>
</defs>
</svg>
