<svg width="36" height="36" viewBox="0 0 36 36" fill="none" xmlns="http://www.w3.org/2000/svg">
<g clip-path="url(#clip0_520_1184)">
<path fill-rule="evenodd" clip-rule="evenodd" d="M22.9226 2.58642C25.9039 1.14093 29.4892 2.46378 30.8173 5.49926L33.4539 11.5259C33.7616 12.2291 33.4409 13.0487 32.7377 13.3563C32.0344 13.664 31.2149 13.3433 30.9073 12.6401L29.2098 8.76011L17.455 15.2252C16.7824 15.5951 15.9373 15.3498 15.5674 14.6772C15.1975 14.0046 15.4428 13.1595 16.1154 12.7896L28.0628 6.21853C27.2502 4.9137 25.5608 4.39648 24.1353 5.08765L7.12801 13.3336C6.71725 13.5328 6.25674 13.5115 5.88048 13.3162C5.39206 13.5702 4.77779 13.5185 4.33419 13.1383C3.75139 12.6387 3.68389 11.7613 4.18344 11.1785L9.72521 4.71309C11.4043 2.75411 14.1703 2.12984 16.5281 3.17773L19.228 4.37771L22.9226 2.58642ZM15.9547 5.96478L15.3991 5.71787C14.1641 5.16898 12.7153 5.49597 11.8357 6.5221L9.72409 8.98568L15.9547 5.96478Z" fill="black"/>
<path d="M6.52161 25.9175C5.65954 25.9175 4.96069 26.6163 4.96069 27.4784C4.96069 28.3405 5.65954 29.0393 6.52161 29.0393C7.38368 29.0393 8.08253 28.3405 8.08253 27.4784C8.08253 26.6163 7.38368 25.9175 6.52161 25.9175Z" fill="black"/>
<path d="M10.3705 25.9175C9.50838 25.9175 8.80953 26.6163 8.80953 27.4784C8.80953 28.3405 9.50838 29.0393 10.3705 29.0393C11.2325 29.0393 11.9314 28.3405 11.9314 27.4784C11.9314 26.6163 11.2325 25.9175 10.3705 25.9175Z" fill="black"/>
<path d="M12.6584 27.4784C12.6584 26.6163 13.3572 25.9175 14.2193 25.9175C15.0814 25.9175 15.7802 26.6163 15.7802 27.4784C15.7802 28.3405 15.0814 29.0393 14.2193 29.0393C13.3572 29.0393 12.6584 28.3405 12.6584 27.4784Z" fill="black"/>
<path d="M18.0681 25.9175C17.2061 25.9175 16.5072 26.6163 16.5072 27.4784C16.5072 28.3405 17.2061 29.0393 18.0681 29.0393C18.9302 29.0393 19.6291 28.3405 19.6291 27.4784C19.6291 26.6163 18.9302 25.9175 18.0681 25.9175Z" fill="black"/>
<path d="M20.3561 27.4784C20.3561 26.6163 21.0549 25.9175 21.917 25.9175C22.779 25.9175 23.4779 26.6163 23.4779 27.4784C23.4779 28.3405 22.779 29.0393 21.917 29.0393C21.0549 29.0393 20.3561 28.3405 20.3561 27.4784Z" fill="black"/>
<path d="M25.7658 25.9175C24.9037 25.9175 24.2049 26.6163 24.2049 27.4784C24.2049 28.3405 24.9037 29.0393 25.7658 29.0393C26.6279 29.0393 27.3267 28.3405 27.3267 27.4784C27.3267 26.6163 26.6279 25.9175 25.7658 25.9175Z" fill="black"/>
<path d="M28.0537 27.4784C28.0537 26.6163 28.7526 25.9175 29.6147 25.9175C30.4767 25.9175 31.1756 26.6163 31.1756 27.4784C31.1756 28.3405 30.4767 29.0393 29.6147 29.0393C28.7526 29.0393 28.0537 28.3405 28.0537 27.4784Z" fill="black"/>
<path fill-rule="evenodd" clip-rule="evenodd" d="M0 16.5305C0 13.3066 2.6135 10.6931 5.83741 10.6931H15.6856C16.1227 10.6931 16.5128 10.8953 16.7672 11.2101C16.8382 11.2763 16.8997 11.3423 16.9518 11.4037C17.197 11.6924 17.3715 12.0333 17.4957 12.3024C17.6216 12.5752 17.7434 12.8825 17.8549 13.1641L17.8671 13.1946C17.9875 13.4985 18.1042 13.7919 18.2336 14.0809C18.5135 14.706 18.7815 15.1455 19.0675 15.4273C19.3434 15.6992 19.636 15.8249 19.9926 15.8249C20.7612 15.8249 21.4004 15.2402 22.1348 13.9581C22.3028 13.6647 22.4581 13.3676 22.6163 13.0642L22.631 13.0359C22.7787 12.7526 22.9367 12.4495 23.0938 12.1816C23.2499 11.9156 23.4541 11.5973 23.7112 11.3335C23.9569 11.0813 24.4326 10.6931 25.1244 10.6931C25.1397 10.6931 25.155 10.6934 25.1702 10.6939C25.1854 10.6934 25.2007 10.6931 25.216 10.6931H30.2989C33.5228 10.6931 36.1363 13.3066 36.1363 16.5305V28.1626C36.1363 31.3865 33.5228 34 30.2989 34H5.83741C2.6135 34 0 31.3865 0 28.1626V16.5305ZM5.83741 13.4728C4.14869 13.4728 2.77972 14.8418 2.77972 16.5305V28.1626C2.77972 29.8513 4.14869 31.2203 5.83741 31.2203H30.2989C31.9876 31.2203 33.3566 29.8513 33.3566 28.1626V16.5305C33.3566 14.8418 31.9876 13.4728 30.2989 13.4728H25.5612C25.5402 13.5064 25.517 13.5446 25.4915 13.588C25.3716 13.7924 25.2428 14.0392 25.0812 14.3492C24.9258 14.6472 24.7463 14.9915 24.5469 15.3397C23.8124 16.6219 22.4605 18.6046 19.9926 18.6046C17.4426 18.6046 16.2771 16.5134 15.6966 15.2169C15.5388 14.8646 15.4009 14.5166 15.2831 14.2192C15.1607 13.9105 15.0652 13.6703 14.9744 13.4728H5.83741Z" fill="black"/>
</g>
<defs>
<clipPath id="clip0_520_1184">
<rect width="36" height="36" fill="white"/>
</clipPath>
</defs>
</svg>
