<svg width="36" height="36" viewBox="0 0 36 36" fill="none" xmlns="http://www.w3.org/2000/svg">
<g clip-path="url(#clip0_505_1384)">
<path fill-rule="evenodd" clip-rule="evenodd" d="M22.1254 4.34922C20.2926 1.21709 15.7074 1.21709 13.8746 4.34922L0.644428 26.958C-1.18741 30.0884 1.10416 34.0001 4.76986 34.0001H31.2301C34.8958 34.0001 37.1874 30.0884 35.3556 26.958L22.1254 4.34922ZM16.3013 5.72951C17.056 4.43981 18.944 4.43981 19.6987 5.72951L32.9288 28.3383C33.6831 29.6273 32.7395 31.238 31.2301 31.238H4.76986C3.26046 31.238 2.31687 29.6273 3.07115 28.3383L16.3013 5.72951Z" fill="black"/>
<path d="M18 11.2035C18.7736 11.2035 19.4008 11.8218 19.4008 12.5845V21.3497C19.4008 22.1124 18.7736 22.7307 18 22.7307C17.2263 22.7307 16.5992 22.1124 16.5992 21.3497V12.5845C16.5992 11.8218 17.2263 11.2035 18 11.2035Z" fill="black"/>
<path d="M18 23.7248C18.7736 23.7248 19.4008 24.3431 19.4008 25.1058V26.358C19.4008 27.1207 18.7736 27.7391 18 27.7391C17.2263 27.7391 16.5992 27.1207 16.5992 26.358V25.1058C16.5992 24.3431 17.2263 23.7248 18 23.7248Z" fill="black"/>
</g>
<defs>
<clipPath id="clip0_505_1384">
<rect width="36" height="36" fill="white"/>
</clipPath>
</defs>
</svg>
