<svg id="arrow-right" width="36" height="36" viewBox="0 0 36 36" fill="currentColor" xmlns="http://www.w3.org/2000/svg">
<path d="M34 18.5C34 17.7963 33.4196 17.2258 32.7036 17.2258H3.29641C2.58042 17.2258 2 17.7963 2 18.5C2 19.2037 2.58042 19.7742 3.29641 19.7742L32.7036 19.7742C33.4196 19.7742 34 19.2037 34 18.5Z" fill="currentColor"/>
<path d="M25.1552 10.3153C24.6164 9.85188 23.7974 9.90555 23.3259 10.4351C22.8544 10.9647 22.909 11.7697 23.4479 12.2331L30.7349 18.5L23.4479 24.7669C22.909 25.2303 22.8544 26.0353 23.3259 26.5649C23.7974 27.0945 24.6164 27.1481 25.1552 26.6847L33.5573 19.4589C33.8386 19.217 34 18.8674 34 18.5C34 18.1326 33.8386 17.783 33.5573 17.5411L25.1552 10.3153Z" fill="currentColor"/>
</svg>
