<svg id="at" width="36" height="36" viewBox="0 0 36 36" fill="currentColor" xmlns="http://www.w3.org/2000/svg">
<path fill-rule="evenodd" clip-rule="evenodd" d="M18 0C8.05888 0 0 8.05888 0 18C0 27.9411 8.05888 36 18 36C20.4507 36 22.7904 35.5095 24.9235 34.6199C25.6293 34.3256 25.9628 33.5148 25.6685 32.809C25.3742 32.1033 24.5634 31.7697 23.8576 32.064C22.0562 32.8152 20.0784 33.2308 18 33.2308C9.58828 33.2308 2.76923 26.4117 2.76923 18C2.76923 9.58828 9.58828 2.76923 18 2.76923C26.4117 2.76923 33.2308 9.58828 33.2308 18C33.2308 18.0025 33.2308 18.0049 33.2308 18.0074C33.2286 22.5331 31.1802 24.0064 30.0926 24.0453C29.5336 24.0652 28.8324 23.7921 28.21 22.8807C27.5744 21.95 27.0533 20.3721 27.0533 18C27.0533 17.996 27.0533 17.9921 27.0532 17.9881C27.0468 12.9936 22.996 8.94672 18 8.94672C13 8.94672 8.94672 13 8.94672 18C8.94672 23 13 27.0532 18 27.0532C20.999 27.0532 23.6574 25.595 25.3049 23.3489C25.4887 23.7439 25.6953 24.1088 25.9232 24.4425C26.9775 25.9864 28.5126 26.8727 30.1915 26.8127C31.8782 26.7525 33.3387 25.8059 34.3677 24.2526C35.3949 22.7022 36 20.5398 36 18C36 17.9973 36 17.9946 36 17.9919C35.9957 8.05452 27.9384 0 18 0ZM11.716 18C11.716 14.5294 14.5294 11.716 18 11.716C21.4706 11.716 24.284 14.5294 24.284 18C24.284 21.4706 21.4706 24.284 18 24.284C14.5294 24.284 11.716 21.4706 11.716 18Z" fill="currentColor"/>
</svg>
