<svg width="36" height="36" viewBox="0 0 36 36" fill="currentColor" xmlns="http://www.w3.org/2000/svg">
<path fill-rule="evenodd" clip-rule="evenodd" d="M5 2.1761C5 1.52656 5.4978 1 6.11186 1H16.1607C20.8453 1 24.6429 5.017 24.6429 9.97222C24.6429 11.7363 24.1616 13.3814 23.3303 14.7687C27.2086 16.1578 30 20.0396 30 24.6111C30 30.3487 25.6028 35 20.1786 35H6.41509C5.63356 35 5 34.3298 5 33.5031V2.1761ZM9.46429 14.2222V5.72222H16.1607C18.3797 5.72222 20.1786 7.62501 20.1786 9.97222C20.1786 12.3194 18.3797 14.2222 16.1607 14.2222H9.46429ZM9.46429 18.9444V30.2778H20.1786C23.1372 30.2778 25.5357 27.7407 25.5357 24.6111C25.5357 21.4815 23.1372 18.9444 20.1786 18.9444H9.46429Z" fill="currentColor"/>
</svg>
