<svg id="burger" width="36" height="36" viewBox="0 0 36 36" fill="currentColor" xmlns="http://www.w3.org/2000/svg">
<path d="M3.25 6C2.55964 6 2 6.55964 2 7.25C2 7.94036 2.55964 8.5 3.25 8.5H33.25C33.9404 8.5 34.5 7.94036 34.5 7.25C34.5 6.55964 33.9404 6 33.25 6H3.25Z" fill="currentColor"/>
<path d="M3.25 16.5C2.55964 16.5 2 17.0596 2 17.75C2 18.4404 2.55964 19 3.25 19H33.25C33.9404 19 34.5 18.4404 34.5 17.75C34.5 17.0596 33.9404 16.5 33.25 16.5H3.25Z" fill="currentColor"/>
<path d="M3.25 27C2.55964 27 2 27.5596 2 28.25C2 28.9404 2.55964 29.5 3.25 29.5H33.25C33.9404 29.5 34.5 28.9404 34.5 28.25C34.5 27.5596 33.9404 27 33.25 27H3.25Z" fill="currentColor"/>
</svg>
