<svg id="close" width="36" height="36" viewBox="0 0 36 36" fill="currentColor" xmlns="http://www.w3.org/2000/svg">
<path d="M32.9765 32.9764C33.5418 32.4112 33.5418 31.4947 32.9765 30.9294L5.07049 3.02343C4.50523 2.45817 3.58876 2.45817 3.0235 3.02344C2.45823 3.5887 2.45823 4.50517 3.0235 5.07043L30.9295 32.9764C31.4948 33.5417 32.4112 33.5417 32.9765 32.9764Z" fill="currentColor"/>
<path d="M3.02356 32.9764C3.58882 33.5417 4.50529 33.5417 5.07056 32.9764L32.9765 5.07043C33.5418 4.50517 33.5418 3.5887 32.9765 3.02344C32.4113 2.45817 31.4948 2.45817 30.9295 3.02343L3.02356 30.9294C2.45829 31.4947 2.45829 32.4112 3.02356 32.9764Z" fill="currentColor"/>
</svg>
