<svg id="code" width="36" height="36" viewBox="0 0 36 36" fill="currentColor" xmlns="http://www.w3.org/2000/svg">
<g clip-path="url(#clip0_576_1912)">
<path d="M13.3717 28.0811C13.9981 28.5197 14.8615 28.3673 15.3 27.7408C15.7385 27.1144 15.5862 26.251 14.9597 25.8125L3.7991 18.0001L14.9597 10.1876C15.5862 9.74911 15.7385 8.88576 15.3 8.25929C14.8615 7.63282 13.9981 7.48046 13.3717 7.91899L0.59059 16.8657C0.220446 17.1248 3.94992e-08 17.5482 0 18.0001C-3.94992e-08 18.4519 0.220446 18.8753 0.59059 19.1344L13.3717 28.0811Z" fill="currentColor"/>
<path d="M22.6283 28.0811C22.0019 28.5197 21.1385 28.3673 20.7 27.7408C20.2615 27.1144 20.4138 26.251 21.0403 25.8125L32.2009 18.0001L21.0403 10.1876C20.4138 9.74911 20.2615 8.88576 20.7 8.25929C21.1385 7.63282 22.0019 7.48046 22.6283 7.91899L35.4094 16.8657C35.7796 17.1248 36 17.5482 36 18.0001C36 18.4519 35.7796 18.8753 35.4094 19.1344L22.6283 28.0811Z" fill="currentColor"/>
</g>
<defs>
<clipPath id="clip0_576_1912">
<rect width="36" height="36" fill="currentColor"/>
</clipPath>
</defs>
</svg>
