<svg id="contract" width="36" height="36" viewBox="0 0 36 36" fill="currentColor" xmlns="http://www.w3.org/2000/svg">
<path d="M0 6.14177C0 2.74976 2.74977 0 6.14177 0H29.8582C33.2502 0 36 2.74976 36 6.14177V10.3672C36 11.1748 35.3453 11.8296 34.5377 11.8296C33.7301 11.8296 33.0753 11.1748 33.0753 10.3672V6.14177C33.0753 4.36501 31.635 2.92465 29.8582 2.92465H6.14177C4.36501 2.92465 2.92465 4.36501 2.92465 6.14177V29.8582C2.92465 31.635 4.36501 33.0753 6.14177 33.0753H12.9115C13.7191 33.0753 14.3738 33.7301 14.3738 34.5377C14.3738 35.3453 13.7191 36 12.9115 36H6.14177C2.74977 36 0 33.2502 0 29.8582V6.14177Z" fill="currentColor"/>
<path d="M33.0753 28.177C33.0753 27.3694 33.7301 26.7147 34.5377 26.7147C35.3453 26.7147 36 27.3694 36 28.177V29.8582C36 33.2502 33.2502 36 29.8582 36H28.177C27.3694 36 26.7147 35.3453 26.7147 34.5377C26.7147 33.7301 27.3694 33.0753 28.177 33.0753H29.8582C31.635 33.0753 33.0753 31.635 33.0753 29.8582V28.177Z" fill="currentColor"/>
<path d="M7.82286 6.3606C7.01524 6.3606 6.36053 7.0153 6.36053 7.82292C6.36053 8.63054 7.01524 9.28525 7.82286 9.28525H12.9114C13.719 9.28525 14.3737 8.63054 14.3737 7.82292C14.3737 7.0153 13.719 6.3606 12.9114 6.3606H7.82286Z" fill="currentColor"/>
<path d="M7.82286 10.177C7.01524 10.177 6.36053 10.8317 6.36053 11.6393C6.36053 12.4469 7.01524 13.1016 7.82286 13.1016H12.9114C13.719 13.1016 14.3737 12.4469 14.3737 11.6393C14.3737 10.8317 13.719 10.177 12.9114 10.177H7.82286Z" fill="currentColor"/>
<path d="M6.36053 16.7277C6.36053 15.9201 7.01524 15.2654 7.82286 15.2654H20.5441C21.3518 15.2654 22.0065 15.9201 22.0065 16.7277C22.0065 17.5353 21.3518 18.19 20.5441 18.19H9.28519V22.8981H16.7278C17.5354 22.8981 18.1901 23.5528 18.1901 24.3605C18.1901 25.1681 17.5354 25.8228 16.7278 25.8228H7.82286C7.01524 25.8228 6.36053 25.1681 6.36053 24.3605V16.7277Z" fill="currentColor"/>
<path fill-rule="evenodd" clip-rule="evenodd" d="M31.8481 18.0663L32.0195 18.1652L27.5465 25.9126C27.1427 26.612 27.3823 27.5064 28.0818 27.9102C28.7812 28.314 29.6755 28.0743 30.0793 27.3749L35.2834 18.3612C35.6873 17.6617 35.4476 16.7674 34.7482 16.3636L33.257 15.5027C33.4014 14.8907 33.1369 14.2315 32.5644 13.901L28.9589 11.8193C28.2595 11.4155 27.3651 11.6552 26.9613 12.3546L18.6561 26.7397C18.5953 26.8383 18.5455 26.9453 18.509 27.0594C18.4896 27.1193 18.4743 27.1799 18.463 27.2409L17.1487 33.6634C17.0225 34.2801 17.3051 34.9083 17.8502 35.223C18.3953 35.5377 19.0806 35.4683 19.5516 35.0507L24.4439 30.7124C24.5394 30.6327 24.6259 30.5398 24.7003 30.4344C24.731 30.391 24.7592 30.3463 24.7847 30.3005L31.8481 18.0663ZM21.0182 29.8412L20.8935 29.9518L20.9269 29.7885L21.0182 29.8412ZM22.9714 27.5918L29.8357 15.7026L28.763 15.0833L21.8988 26.9725L22.9714 27.5918Z" fill="currentColor"/>
</svg>
