<svg width="36" height="36" viewBox="0 0 36 36" fill="currentColor" xmlns="http://www.w3.org/2000/svg">
<path fill-rule="evenodd" clip-rule="evenodd" d="M0 2C0 0.89543 0.895431 0 2 0H14C15.1046 0 16 0.895431 16 2V18C16 19.1046 15.1046 20 14 20H2C0.89543 20 0 19.1046 0 18V2ZM2.6 17.4V2.6H13.4V17.4H2.6Z" fill="currentColor"/>
<path fill-rule="evenodd" clip-rule="evenodd" d="M19 17C19 15.8954 19.8954 15 21 15H34C35.1046 15 36 15.8954 36 17V34C36 35.1046 35.1046 36 34 36H21C19.8954 36 19 35.1046 19 34V17ZM21.6 33.4V17.6H33.4V33.4H21.6Z" fill="currentColor"/>
<path fill-rule="evenodd" clip-rule="evenodd" d="M21 0C19.8954 0 19 0.89543 19 2V10C19 11.1046 19.8954 12 21 12H34C35.1046 12 36 11.1046 36 10V2C36 0.895431 35.1046 0 34 0H21ZM21.6 2.6V9.4H33.4V2.6H21.6Z" fill="currentColor"/>
<path fill-rule="evenodd" clip-rule="evenodd" d="M0 25C0 23.8954 0.895431 23 2 23H14C15.1046 23 16 23.8954 16 25V34C16 35.1046 15.1046 36 14 36H2C0.89543 36 0 35.1046 0 34V25ZM2.6 33.4V25.6H13.4V33.4H2.6Z" fill="currentColor"/>
</svg>
