<svg id="" width="36" height="36" viewBox="0 0 36 36" fill="currentColor" xmlns="http://www.w3.org/2000/svg">
<path d="M11.7869 1.39344C11.7869 0.623866 11.163 0 10.3934 0C9.62387 0 9 0.623865 9 1.39344V32.6066C9 33.3761 9.62386 34 10.3934 34C11.163 34 11.7869 33.3761 11.7869 32.6066L11.7869 1.39344Z" fill="currentColor"/>
<path d="M17.7585 1.39344C17.7585 0.623866 17.1347 0 16.3651 0C15.5955 0 14.9717 0.623865 14.9717 1.39344L14.9717 32.6066C14.9717 33.3761 15.5955 34 16.3651 34C17.1347 34 17.7585 33.3761 17.7585 32.6066L17.7585 1.39344Z" fill="currentColor"/>
<path d="M23.7308 1.39344C23.7308 0.623866 23.1069 0 22.3373 0C21.5677 0 20.9439 0.623865 20.9439 1.39344L20.9439 32.6066C20.9439 33.3761 21.5677 34 22.3373 34C23.1069 34 23.7308 33.3761 23.7308 32.6066L23.7308 1.39344Z" fill="currentColor"/>
</svg>
