<svg id="feedback" width="36" height="36" viewBox="0 0 36 36" fill="currentColor" xmlns="http://www.w3.org/2000/svg">
<g clip-path="url(#clip0_565_1672)">
<path d="M15.6832 8.10219C14.7597 7.72334 13.6901 7.51294 12.4617 7.51294C9.88641 7.51294 8.06731 8.44016 6.85205 9.75763C5.6763 11.0323 5.16473 12.5624 4.95013 13.654C4.79261 14.4553 4.80071 15.2241 4.83206 16.0214C4.8398 16.2183 4.84918 16.4205 4.85884 16.629C4.88931 17.2861 4.92326 18.0188 4.92325 18.9389C4.92324 19.3125 5.06912 19.6708 5.32879 19.935C5.43767 20.0458 5.60014 20.227 5.83072 20.4844L5.83153 20.4853C5.97123 20.6412 6.13406 20.8229 6.3212 21.0292C6.79084 21.5468 7.37372 22.1731 8.00125 22.7785C8.19904 22.9693 8.40459 23.1613 8.61559 23.3496V25.4983L3.33216 27.6484C3.09638 27.7444 2.89108 27.9044 2.73871 28.1111C2.04176 29.0565 0.571916 31.5436 0.0271551 34.3148C-0.122814 35.0777 0.363482 35.8198 1.11333 35.9724C1.86317 36.125 2.59262 35.6302 2.74259 34.8673C3.13029 32.8951 4.13854 31.0244 4.7408 30.1095L10.5144 27.7599C11.0401 27.546 11.3848 27.028 11.3848 26.452V25.1626C11.7288 25.2812 12.0913 25.3563 12.4617 25.3563C12.8321 25.3563 13.1946 25.2812 13.5386 25.1626V26.452C13.5386 27.028 13.8833 27.546 14.409 27.7599L20.1826 30.1095C20.7849 31.0244 21.7931 32.8951 22.1808 34.8673C22.3308 35.6302 23.0603 36.125 23.8101 35.9724C24.5599 35.8198 25.0462 35.0777 24.8963 34.3148C24.3515 31.5436 22.8817 29.0565 22.1847 28.1111C22.0324 27.9044 21.827 27.7444 21.5913 27.6484L16.3078 25.4983V23.3495C16.5188 23.1613 16.7243 22.9693 16.9221 22.7785C17.5496 22.1731 18.1325 21.5468 18.6021 21.0292C18.7894 20.8228 18.9526 20.6407 19.0923 20.4847C19.3229 20.2274 19.4857 20.0458 19.5946 19.935C20.1353 19.3849 20.1353 18.493 19.5946 17.9428C19.0538 17.3927 18.1771 17.3927 17.6364 17.9428C17.4823 18.0997 17.2506 18.358 16.9922 18.6462L16.9864 18.6527C16.8531 18.8014 16.7117 18.9591 16.5673 19.1182C16.1139 19.618 15.5788 20.1917 15.0166 20.7341C14.4486 21.2821 13.8855 21.7661 13.3785 22.1049C13.1088 22.2851 12.8966 22.3957 12.7395 22.4603C12.5775 22.5271 12.4887 22.5389 12.4617 22.5389C12.4346 22.5389 12.3459 22.5271 12.1838 22.4603C12.0267 22.3957 11.8145 22.2851 11.5448 22.1049C11.0378 21.7661 10.4747 21.2821 9.90672 20.7341C9.34452 20.1917 8.80946 19.618 8.35602 19.1182C8.21178 18.9592 8.07012 18.8013 7.93697 18.6528C7.85014 18.5559 7.76667 18.4628 7.68845 18.3761C7.68141 17.8791 7.66595 17.432 7.64907 17.0306C8.19696 16.4613 9.01713 15.7878 9.9419 15.3466C11.0407 14.8223 12.1087 14.6996 13.0732 15.1903C14.5856 15.9596 15.8071 16.375 16.7605 16.5649C17.5109 16.7144 18.2384 16.2166 18.3853 15.4531C18.5323 14.6896 18.0431 13.9495 17.2926 13.8C16.6383 13.6697 15.6556 13.354 14.3116 12.6704C12.3216 11.658 10.3123 12.058 8.76606 12.7958C8.47939 12.9326 8.20266 13.0834 7.9376 13.2437C8.1396 12.7053 8.43869 12.1546 8.87132 11.6856C9.53305 10.9682 10.6063 10.3303 12.4617 10.3303C13.3757 10.3303 14.0888 10.4859 14.6475 10.7151C15.3567 11.0061 16.1635 10.657 16.4495 9.93548C16.7355 9.21394 16.3924 8.39314 15.6832 8.10219Z" fill="currentColor"/>
<path fill-rule="evenodd" clip-rule="evenodd" d="M18.4617 3.66258C18.4617 1.63979 20.0734 0 22.0616 0H32.4C34.3882 0 36 1.6398 36 3.66258V10.9609C36 12.9837 34.3882 14.6235 32.4 14.6235H27.5746C27.1971 15.2221 26.6561 15.7855 26.0577 16.2482C25.0574 17.0217 23.699 17.6731 22.0939 17.8364C21.5611 17.8906 21.0453 17.6274 20.7695 17.1605C20.4936 16.6935 20.5071 16.1066 20.8041 15.6533C20.9958 15.3608 21.1469 14.9887 21.1901 14.5154C19.623 14.119 18.4617 12.6779 18.4617 10.9609V3.66258ZM22.7831 11.8392C22.6789 11.8156 22.5711 11.8042 22.4614 11.8061H22.0616C21.6028 11.8061 21.2309 11.4277 21.2309 10.9609V3.66258C21.2309 3.19578 21.6028 2.81737 22.0616 2.81737H32.4C32.8588 2.81737 33.2308 3.19578 33.2308 3.66258V10.9609C33.2308 11.4277 32.8588 11.8061 32.4 11.8061H26.7385C26.7358 11.8061 26.7331 11.8061 26.7304 11.8061C26.0991 11.793 25.5198 12.2235 25.3601 12.8732C25.351 12.9104 25.2895 13.0555 25.1252 13.2722C24.9672 13.4808 24.7262 13.739 24.3821 14.0051C24.2543 14.1039 24.1171 14.1998 23.9714 14.2908C23.9752 13.8671 23.9351 13.4249 23.8467 12.9661C23.8249 12.8413 23.7869 12.7222 23.735 12.6111C23.5541 12.2238 23.2047 11.9337 22.7831 11.8392Z" fill="currentColor"/>
</g>
<defs>
<clipPath id="clip0_565_1672">
<rect width="36" height="36" fill="currentColor"/>
</clipPath>
</defs>
</svg>
