<svg id="" width="36" height="36" viewBox="0 0 36 36" fill="currentColor" xmlns="http://www.w3.org/2000/svg">
<path fill-rule="evenodd" clip-rule="evenodd" d="M2.49228 0C1.11583 0 0 1.11583 0 2.49227V13.2526C0 14.629 1.11583 15.7449 2.49227 15.7449H13.2526C14.629 15.7449 15.7449 14.629 15.7449 13.2526V2.49228C15.7449 1.11583 14.629 0 13.2526 0H2.49228ZM2.76919 12.9757L2.7692 2.7692H12.9757L12.9757 12.9757L2.76919 12.9757Z" fill="currentColor"/>
<path fill-rule="evenodd" clip-rule="evenodd" d="M22.7474 0C21.371 0 20.2551 1.11583 20.2551 2.49227V13.2526C20.2551 14.629 21.371 15.7449 22.7474 15.7449H33.5077C34.8841 15.7449 36 14.629 36 13.2526V2.49228C36 1.11583 34.8841 0 33.5077 0H22.7474ZM23.0243 12.9757L23.0243 2.7692H33.2308L33.2308 12.9757L23.0243 12.9757Z" fill="currentColor"/>
<path fill-rule="evenodd" clip-rule="evenodd" d="M22.7474 20.2551C21.371 20.2551 20.2551 21.371 20.2551 22.7474V33.5077C20.2551 34.8841 21.371 36 22.7474 36H33.5077C34.8841 36 36 34.8841 36 33.5077V22.7474C36 21.371 34.8841 20.2551 33.5077 20.2551H22.7474ZM23.0243 33.2308L23.0243 23.0243H33.2308L33.2308 33.2308L23.0243 33.2308Z" fill="currentColor"/>
<path fill-rule="evenodd" clip-rule="evenodd" d="M2.49228 20.2551C1.11583 20.2551 0 21.371 0 22.7474V33.5077C0 34.8841 1.11583 36 2.49227 36H13.2526C14.629 36 15.7449 34.8841 15.7449 33.5077V22.7474C15.7449 21.371 14.629 20.2551 13.2526 20.2551H2.49228ZM2.76919 33.2308L2.7692 23.0243H12.9757L12.9757 33.2308L2.76919 33.2308Z" fill="currentColor"/>
</svg>
