<svg id="" width="36" height="36" viewBox="0 0 36 36" fill="currentColor" xmlns="http://www.w3.org/2000/svg">
<g clip-path="url(#clip0_539_927)">
<path fill-rule="evenodd" clip-rule="evenodd" d="M13.5664 2.01337C15.9058 -0.671121 20.0942 -0.671125 22.4336 2.01337L35.6587 17.1892C36.164 17.769 36.101 18.6463 35.518 19.1488C34.935 19.6513 34.0527 19.5886 33.5475 19.0088L32.1685 17.4264V30.1653C32.1685 33.3877 29.5418 36 26.3015 36H9.69844C6.45821 36 3.83148 33.3877 3.83148 30.1653V17.4265L2.45253 19.0088C1.94727 19.5886 1.06505 19.6513 0.482048 19.1488C-0.100954 18.6463 -0.16397 17.769 0.341298 17.1892L13.5664 2.01337ZM6.62371 14.2224C6.62475 14.2444 6.62527 14.2664 6.62527 14.2886V30.1653C6.62527 31.8532 8.00118 33.2216 9.69844 33.2216H26.3015C27.9988 33.2216 29.3747 31.8532 29.3747 30.1653V14.2886C29.3747 14.2664 29.3752 14.2443 29.3762 14.2224L20.3224 3.83304C19.0969 2.42688 16.9031 2.42688 15.6776 3.83304L6.62371 14.2224Z" fill="currentColor"/>
<path fill-rule="evenodd" clip-rule="evenodd" d="M13.8492 15.2809C12.4606 15.2809 11.3348 16.4004 11.3348 17.7815V26.0373C11.3348 27.4184 12.4606 28.5379 13.8493 28.5379H22.1508C23.5395 28.5379 24.6652 27.4184 24.6652 26.0373V17.7815C24.6652 16.4004 23.5395 15.2809 22.1508 15.2809H13.8492ZM14.1286 25.7595V18.0593H21.8714V25.7595H14.1286Z" fill="currentColor"/>
</g>
<defs>
<clipPath id="clip0_539_927">
<rect width="36" height="36" fill="currentColor"/>
</clipPath>
</defs>
</svg>
