<svg width="36" height="36" viewBox="0 0 36 36" fill="currenColor" xmlns="http://www.w3.org/2000/svg">
<path d="M29.6552 1H14.4138C13.6711 1 13.069 1.63425 13.069 2.41664C13.069 3.19902 13.6711 3.83327 14.4138 3.83327H20.4908L12.3403 32.166H6.34483C5.6021 32.166 5 32.8002 5 33.5826C5 34.365 5.6021 34.9993 6.34483 34.9993H13.2949C13.324 35.0003 13.353 35.0002 13.3819 34.9993H21.5862C22.3289 34.9993 22.931 34.365 22.931 33.5826C22.931 32.8002 22.3289 32.166 21.5862 32.166H15.1508L23.3012 3.83327H29.6552C30.3979 3.83327 31 3.19902 31 2.41664C31 1.63425 30.3979 1 29.6552 1Z" fill="currenColor"/>
</svg>
