<svg id="" width="36" height="36" viewBox="0 0 36 36" fill="currentColor" xmlns="http://www.w3.org/2000/svg">
<path d="M1.37163 0C0.6141 0 0 0.619914 0 1.38462C0 2.14932 0.6141 2.76923 1.37163 2.76923H34.6284C35.3859 2.76923 36 2.14932 36 1.38462C36 0.619913 35.3859 0 34.6284 0H1.37163Z" fill="currentColor"/>
<path d="M1.37163 33.2308C0.6141 33.2308 0 33.8507 0 34.6154C0 35.3801 0.6141 36 1.37163 36H34.6284C35.3859 36 36 35.3801 36 34.6154C36 33.8507 35.3859 33.2308 34.6284 33.2308H1.37163Z" fill="currentColor"/>
<path d="M1.37163 21.7276C0.6141 21.7276 0 22.3476 0 23.1123C0 23.877 0.6141 24.4969 1.37163 24.4969H34.6284C35.3859 24.4969 36 23.877 36 23.1123C36 22.3476 35.3859 21.7276 34.6284 21.7276H1.37163Z" fill="currentColor"/>
<path d="M1.37163 11.5031C0.6141 11.5031 0 12.123 0 12.8877C0 13.6524 0.6141 14.2724 1.37163 14.2724H34.6284C35.3859 14.2724 36 13.6524 36 12.8877C36 12.123 35.3859 11.5031 34.6284 11.5031H1.37163Z" fill="currentColor"/>
</svg>
