<svg id="" width="36" height="36" viewBox="0 0 36 36" fill="currentColor" xmlns="http://www.w3.org/2000/svg">
<path fill-rule="evenodd" clip-rule="evenodd" d="M18 0C11.3875 0 6 5.13366 6 11.4983C6 12.3596 6.09946 13.5084 6.28193 14.6123C6.4596 15.6871 6.73895 16.8659 7.15814 17.7103C7.16599 17.7261 7.17415 17.7418 7.18261 17.7573L16.7343 35.2618C16.9821 35.7159 17.4692 36 18 36C18.5307 36 19.0178 35.7159 19.2656 35.2618L28.8174 17.7573C28.8258 17.7418 28.834 17.7261 28.8419 17.7103C29.2611 16.8659 29.5404 15.6871 29.7181 14.6123C29.9005 13.5084 30 12.3596 30 11.4983C30 5.13366 24.6125 0 18 0ZM8.86239 11.4983C8.86239 6.6915 12.9388 2.76923 18 2.76923C23.0612 2.76923 27.1376 6.6915 27.1376 11.4983C27.1376 12.1882 27.0546 13.1888 26.8916 14.175C26.7263 15.1747 26.5015 16.0164 26.272 16.4903L18 31.6495L9.72804 16.4903C9.49847 16.0164 9.27366 15.1747 9.1084 14.175C8.94538 13.1888 8.86239 12.1882 8.86239 11.4983Z" fill="currentColor"/>
<path fill-rule="evenodd" clip-rule="evenodd" d="M18.0001 6.39038C15.0208 6.39038 12.6056 8.72698 12.6056 11.6093C12.6056 14.4917 15.0208 16.8282 18.0001 16.8282C20.9794 16.8282 23.3946 14.4917 23.3946 11.6093C23.3946 8.72698 20.9794 6.39038 18.0001 6.39038ZM15.468 11.6093C15.468 10.2564 16.6016 9.15961 18.0001 9.15961C19.3985 9.15961 20.5322 10.2564 20.5322 11.6093C20.5322 12.9622 19.3985 14.059 18.0001 14.059C16.6016 14.059 15.468 12.9622 15.468 11.6093Z" fill="currentColor"/>
</svg>
