<svg id="" width="36" height="36" viewBox="0 0 36 36" fill="currentColor" xmlns="http://www.w3.org/2000/svg">
<path fill-rule="evenodd" clip-rule="evenodd" d="M17.9998 20.4497C15.8488 20.4497 14.1051 22.2141 14.1051 24.3905V26.9467C14.1051 29.1232 15.8488 30.8876 17.9998 30.8876C20.1508 30.8876 21.8946 29.1232 21.8946 26.9467V24.3905C21.8946 22.2141 20.1508 20.4497 17.9998 20.4497ZM16.8419 24.3905C16.8419 23.7435 17.3604 23.2189 17.9998 23.2189C18.6393 23.2189 19.1577 23.7435 19.1577 24.3905V26.9467C19.1577 27.5938 18.6393 28.1183 17.9998 28.1183C17.3604 28.1183 16.8419 27.5938 16.8419 26.9467V24.3905Z" fill="currentColor"/>
<path fill-rule="evenodd" clip-rule="evenodd" d="M9.05261 9.05325C9.05261 4.05328 13.0585 0 18 0C22.9415 0 26.9473 4.05328 26.9473 9.05326V15.3373H27.3474C29.9169 15.3373 32 17.445 32 20.045V27.9692C32 32.4045 28.4466 36 24.0632 36H11.9368C7.55345 36 4 32.4045 4 27.9692V20.045C4 17.445 6.08305 15.3373 8.65263 15.3373H9.05261V9.05325ZM8.65263 18.1065C7.59457 18.1065 6.73684 18.9744 6.73684 20.045V27.9692C6.73684 30.8751 9.06497 33.2308 11.9368 33.2308H24.0632C26.935 33.2308 29.2632 30.8751 29.2632 27.9692V20.045C29.2632 18.9744 28.4054 18.1065 27.3474 18.1065H8.65263ZM24.2105 15.3373H11.7895V9.05325C11.7895 5.58268 14.57 2.76923 18 2.76923C21.43 2.76923 24.2105 5.58268 24.2105 9.05326V15.3373Z" fill="currentColor"/>
</svg>
