<svg id="" width="36" height="36" viewBox="0 0 36 36" fill="currentColor" xmlns="http://www.w3.org/2000/svg">
<path d="M31 15C32.6569 15 34 16.3431 34 18C34 19.6569 32.6569 21 31 21C29.3431 21 28 19.6569 28 18C28 16.3431 29.3431 15 31 15Z" fill="currentColor"/>
<path d="M18 15C19.6569 15 21 16.3431 21 18C21 19.6569 19.6569 21 18 21C16.3431 21 15 19.6569 15 18C15 16.3431 16.3431 15 18 15Z" fill="currentColor"/>
<path d="M8 18C8 16.3431 6.65685 15 5 15C3.34315 15 2 16.3431 2 18C2 19.6569 3.34315 21 5 21C6.65685 21 8 19.6569 8 18Z" fill="currentColor"/>
</svg>
