<svg id="" width="36" height="36" viewBox="0 0 36 36" fill="currentColor" xmlns="http://www.w3.org/2000/svg">
<g clip-path="url(#clip0_571_1859)">
<path fill-rule="evenodd" clip-rule="evenodd" d="M14.0946 16.5969C14.194 16.04 14.6874 15.6525 15.2366 15.67L15.246 15.6697C15.2562 15.6695 15.2663 15.6693 15.2766 15.6693H21.1276C21.1449 15.6693 21.1621 15.6697 21.1791 15.6705C21.2603 15.667 21.3431 15.6723 21.4264 15.6872C22.038 15.7964 22.4453 16.3808 22.3361 16.9924L21.6904 20.6085C21.5879 21.1823 21.0672 21.5763 20.4981 21.5326C20.4938 21.5329 20.4895 21.5332 20.4851 21.5335C20.4605 21.5351 20.4357 21.5359 20.4107 21.5359H14.7348C14.7047 21.5359 14.6749 21.5348 14.6455 21.5325C14.5517 21.5398 14.4555 21.5355 14.3586 21.5182C13.7469 21.409 13.3396 20.8246 13.4489 20.2129L14.0946 16.5969ZM15.9 19.2859H19.641L19.885 17.9193H16.144L15.9 19.2859Z" fill="currentColor"/>
<path fill-rule="evenodd" clip-rule="evenodd" d="M12.6519 0C11.0168 0 9.61687 1.17208 9.32943 2.78171L8.31952 8.43719H3.375C1.51104 8.43719 0 9.94823 0 11.8122V14.5443C0 16.4083 1.51104 17.9193 3.375 17.9193L6.62521 17.9193L6.38005 19.2859H3.3747C1.51055 19.2859 0 20.7972 0 22.6609V25.3931C0 27.2571 1.51104 28.7681 3.375 28.7681H4.68901L4.10622 32.0317C3.73682 34.1003 5.32729 36 7.42866 36H10.0896C11.7247 36 13.1246 34.8279 13.4121 33.2183L14.2067 28.7681H17.9477L17.3649 32.0317C16.9955 34.1003 18.586 36 20.6874 36H23.3483C24.9834 36 26.3833 34.8279 26.6708 33.2183L27.4655 28.7681H32.625C34.489 28.7681 36 27.2571 36 25.3931V22.6609C36 20.797 34.489 19.2859 32.625 19.2859H29.1587L29.4027 17.9193H32.625C34.489 17.9193 36 16.4083 36 14.5443V11.812C36 9.94816 34.4891 8.43716 32.6252 8.43703L31.096 8.43691L31.894 3.96829C32.2634 1.89965 30.6729 0 28.5715 0H25.9106C24.2755 0 22.8756 1.17208 22.5881 2.78171L21.5782 8.43719H17.8373L18.6353 3.96829C19.0047 1.89965 17.4142 0 15.3128 0H12.6519ZM27.9467 21.5283C27.8397 21.5409 27.7289 21.5381 27.6173 21.5182C27.0056 21.409 26.5983 20.8246 26.7076 20.2129L27.3533 16.5969C27.4539 16.0337 27.9573 15.6437 28.514 15.6708C28.5281 15.6701 28.5423 15.6696 28.5565 15.6694L28.5715 15.6693H32.625C33.2463 15.6693 33.75 15.1657 33.75 14.5443V11.812C33.75 11.1907 33.2464 10.6871 32.6251 10.687L29.7978 10.6868C29.7179 10.69 29.6364 10.6846 29.5545 10.67C29.5057 10.6613 29.4582 10.6495 29.4122 10.635C28.9562 10.4914 28.6256 10.0652 28.6256 9.56173C28.6256 9.47137 28.6363 9.38349 28.6564 9.2993L29.679 3.57276C29.8022 2.88322 29.272 2.25 28.5715 2.25H25.9106C25.3656 2.25 24.8989 2.64069 24.8031 3.17724L23.6276 9.76026C23.5282 10.3165 23.0359 10.7038 22.4875 10.6872L22.4818 10.6872H16.7946C16.7442 10.6872 16.6946 10.6839 16.6459 10.6774C16.5324 10.6929 16.4146 10.6912 16.2957 10.67C15.6841 10.5608 15.2768 9.97638 15.386 9.36474L16.4203 3.57276C16.5434 2.88322 16.0133 2.25 15.3128 2.25H12.6519C12.1068 2.25 11.6402 2.64069 11.5444 3.17724L10.3908 9.63719C10.3541 10.196 9.9093 10.6433 9.35164 10.6841C9.31123 10.6874 9.27036 10.6884 9.22916 10.6872H3.375C2.75368 10.6872 2.25 11.1909 2.25 11.8122V14.5443C2.25 15.1656 2.75368 15.6693 3.375 15.6693H7.98099C8.60231 15.6693 9.10599 16.173 9.10599 16.7943C9.10599 16.9174 9.08624 17.0358 9.04975 17.1466L8.4293 20.6053C8.32839 21.1678 7.82554 21.5571 7.26958 21.5305C7.23302 21.5341 7.19595 21.5359 7.15846 21.5359H3.3747C2.75358 21.5359 2.25 22.0394 2.25 22.6609V25.3931C2.25 26.0144 2.75368 26.5181 3.375 26.5181H5.94643C5.95891 26.5181 5.97134 26.5183 5.98372 26.5187C6.06473 26.5152 6.14736 26.5205 6.2305 26.5354C6.84215 26.6446 7.24944 27.229 7.14022 27.8406L6.32118 32.4272C6.19805 33.1168 6.72821 33.75 7.42866 33.75H10.0896C10.6346 33.75 11.1013 33.3593 11.1971 32.8228L12.1574 27.4451C12.2625 26.8565 12.8076 26.4572 13.3935 26.5252C13.4353 26.5205 13.4777 26.5181 13.5207 26.5181H19.2054C19.2115 26.5181 19.2176 26.5181 19.2238 26.5182C19.23 26.5183 19.2363 26.5185 19.2425 26.5187C19.3235 26.5152 19.4061 26.5205 19.4892 26.5354C20.1009 26.6446 20.5082 27.229 20.3989 27.8406L19.5799 32.4272C19.4568 33.1168 19.9869 33.75 20.6874 33.75H23.3483C23.8934 33.75 24.36 33.3593 24.4558 32.8228L25.4161 27.4451C25.5161 26.8852 26.0143 26.4965 26.567 26.5186C26.5779 26.5182 26.5887 26.5181 26.5997 26.5181H32.625C33.2463 26.5181 33.75 26.0144 33.75 25.3931V22.6609C33.75 22.0396 33.2463 21.5359 32.625 21.5359H28.0788C28.0341 21.5359 27.9901 21.5333 27.9467 21.5283Z" fill="currentColor"/>
</g>
<defs>
<clipPath id="clip0_571_1859">
<rect width="36" height="36" fill="currentColor"/>
</clipPath>
</defs>
</svg>
