<svg width="36" height="36" viewBox="0 0 36 36" fill="currentColor" xmlns="http://www.w3.org/2000/svg">
<g clip-path="url(#clip0_63_131)">
<path d="M1.326 2.392V0H5.33V9.503H2.665V2.392H1.326Z" fill="currentColor"/>
<path d="M0.026 34.089C0.866667 33.4303 1.55567 32.8627 2.093 32.386C2.63033 31.9093 3.081 31.4197 3.445 30.917C3.809 30.4057 3.991 29.9203 3.991 29.461C3.991 29.1837 3.926 28.967 3.796 28.811C3.67467 28.655 3.49267 28.577 3.25 28.577C2.99867 28.577 2.80367 28.6853 2.665 28.902C2.52633 29.11 2.46133 29.4177 2.47 29.825H0C0.026 29.0537 0.195 28.4167 0.507 27.914C0.819 27.4027 1.22633 27.03 1.729 26.796C2.23167 26.5533 2.79067 26.432 3.406 26.432C4.472 26.432 5.265 26.6963 5.785 27.225C6.305 27.7537 6.565 28.4383 6.565 29.279C6.565 30.1803 6.26167 31.0253 5.655 31.814C5.057 32.6027 4.30733 33.309 3.406 33.933H6.656V36H0.026V34.089Z" fill="currentColor"/>
<path d="M10 7.5C10 6.67157 10.6716 6 11.5 6H34.5C35.3284 6 36 6.67157 36 7.5C36 8.32843 35.3284 9 34.5 9H11.5C10.6716 9 10 8.32843 10 7.5Z" fill="currentColor"/>
<path d="M10 20.5C10 19.6716 10.6716 19 11.5 19H34.5C35.3284 19 36 19.6716 36 20.5C36 21.3284 35.3284 22 34.5 22H11.5C10.6716 22 10 21.3284 10 20.5Z" fill="currentColor"/>
<path d="M10 34.5C10 33.6716 10.6716 33 11.5 33H34.5C35.3284 33 36 33.6716 36 34.5C36 35.3284 35.3284 36 34.5 36H11.5C10.6716 36 10 35.3284 10 34.5Z" fill="currentColor"/>
</g>
<defs>
<clipPath id="clip0_63_131">
<rect width="36" height="36" fill="currentColor"/>
</clipPath>
</defs>
</svg>
