<svg id="" width="36" height="36" viewBox="0 0 36 36" fill="currentColor" xmlns="http://www.w3.org/2000/svg">
<g clip-path="url(#clip0_505_1451)">
<path d="M20.2294 15.5519C19.1627 14.4825 19.1627 12.7486 20.2294 11.6791C21.2962 10.6097 23.0257 10.6097 24.0924 11.6791C25.1592 12.7486 25.1592 14.4824 24.0924 15.5519C23.0257 16.6213 21.2962 16.6213 20.2294 15.5519Z" fill="currentColor"/>
<path fill-rule="evenodd" clip-rule="evenodd" d="M3.10805 14.3098C1.07946 16.3435 1.07946 19.6408 3.10805 21.6745L6.71931 25.2949C8.74791 27.3286 12.0369 27.3286 14.0655 25.2949L14.2228 25.1372L14.5724 25.4876C16.4948 27.4149 19.6117 27.4149 21.5341 25.4876L22.4775 24.5418L22.4904 24.5291L22.503 24.5162L33.5895 13.4018L33.6022 13.3892L33.6147 13.3765L34.5583 12.4305C36.4807 10.5033 36.4807 7.37854 34.5583 5.45127L33.8525 4.74363L33.8503 4.74145L33.8481 4.73928L31.2708 2.15543L31.269 2.15364L30.5626 1.44546C28.6402 -0.481817 25.5233 -0.481821 23.6009 1.44546L23.2513 1.79591L23.094 1.63818C21.0654 -0.395532 17.7764 -0.395531 15.7478 1.63818L3.10805 14.3098ZM30.7851 12.3453L21.4491 21.7048C20.7993 21.2425 19.9885 20.8335 19.0292 20.6985C17.6933 20.5105 16.2958 20.8805 14.8929 21.9409L14.1146 21.1607C15.1724 19.7542 15.5414 18.3532 15.3539 17.0139C15.2193 16.0522 14.8112 15.2392 14.35 14.5878L23.6859 5.22827C24.3357 5.69066 25.1466 6.09977 26.1059 6.23475C27.4418 6.42271 28.8393 6.05279 30.2423 4.99235L31.0205 5.77256C29.9627 7.17904 29.5938 8.58006 29.7812 9.91932C29.9159 10.881 30.3239 11.6939 30.7851 12.3453ZM18.65 23.4071C18.2345 23.3486 17.6533 23.3984 16.9003 23.8704C17.694 24.3626 18.7328 24.3001 19.4644 23.683C19.2016 23.5435 18.9294 23.4464 18.65 23.4071ZM12.6522 17.3941C12.7105 17.8107 12.6608 18.3933 12.1899 19.1483C11.6988 18.3525 11.7611 17.3109 12.3768 16.5774C12.516 16.841 12.6129 17.1139 12.6522 17.3941ZM12.2937 23.2032L10.5767 21.4818C8.65424 19.5545 8.65424 16.4298 10.5767 14.5025L21.3222 3.72992L21.1648 3.57219C20.2017 2.60661 18.6401 2.60661 17.6769 3.5722L5.0372 16.2438C4.07405 17.2094 4.07405 18.7749 5.0372 19.7405L8.64846 23.3609C9.61161 24.3265 11.1732 24.3265 12.1363 23.3609L12.2937 23.2032ZM26.4851 3.52618C26.2057 3.48687 25.9334 3.38967 25.6706 3.25015C26.4022 2.63292 27.4411 2.57046 28.2349 3.06278C27.4818 3.53483 26.9007 3.58465 26.4851 3.52618ZM32.483 9.53919C32.4247 9.12258 32.4744 8.53997 32.9452 7.78502C33.4361 8.58077 33.3738 9.62221 32.7582 10.3556C32.6191 10.0921 32.5222 9.81927 32.483 9.53919Z" fill="currentColor"/>
<path d="M30.3521 24.6431C29.7851 24.1457 28.9233 24.2033 28.4272 24.7717C27.9311 25.3401 27.9885 26.2041 28.5555 26.7015L30.9305 28.7848L24.3467 28.7848C23.5933 28.7848 22.9826 29.3971 22.9826 30.1524C22.9826 30.9076 23.5933 31.5199 24.3467 31.5199L30.9305 31.5199L28.5555 33.6033C27.9885 34.1006 27.9311 34.9646 28.4272 35.533C28.9233 36.1014 29.7851 36.159 30.3521 35.6617L35.4445 31.1945L35.4455 31.1937C35.7388 30.9431 35.9253 30.5695 35.9253 30.1524C35.9253 29.7353 35.7388 29.3616 35.4455 29.1111L35.4445 29.1102L30.3521 24.6431Z" fill="currentColor"/>
<path d="M1.36417 28.7848C0.610796 28.7848 6.10352e-05 29.3971 6.10352e-05 30.1524C6.10352e-05 30.9076 0.610796 31.5199 1.36417 31.5199L6.4714 31.5199C7.22478 31.5199 7.83552 30.9076 7.83552 30.1524C7.83552 29.3971 7.22478 28.7848 6.4714 28.7848L1.36417 28.7848Z" fill="currentColor"/>
<path d="M12.8554 28.7848C12.1021 28.7848 11.4913 29.3971 11.4913 30.1524C11.4913 30.9076 12.1021 31.5199 12.8554 31.5199L17.9627 31.5199C18.716 31.5199 19.3268 30.9076 19.3268 30.1524C19.3268 29.3971 18.716 28.7848 17.9627 28.7848L12.8554 28.7848Z" fill="currentColor"/>
</g>
<defs>
<clipPath id="clip0_505_1451">
<rect width="36" height="36" fill="currentColor"/>
</clipPath>
</defs>
</svg>
