<svg id="" width="36" height="36" viewBox="0 0 36 36" fill="currentColor" xmlns="http://www.w3.org/2000/svg">
<g clip-path="url(#clip0_514_1804)">
<path fill-rule="evenodd" clip-rule="evenodd" d="M24.7407 1.23797C25.6312 -0.196131 27.6253 -0.426177 28.8189 0.767515L32.6893 4.63849C32.742 4.69118 32.7894 4.74753 32.8315 4.80682L33.6838 5.6593C36.5774 8.55354 36.4064 12.734 35.0029 16.6003C33.5822 20.5141 30.7741 24.5312 27.651 27.6548L27.6497 27.6561L27.638 27.668C24.5212 30.7852 20.5048 33.5934 16.5903 35.0159C12.7241 36.4208 8.54024 36.5963 5.6457 33.7016L2.64387 30.6994C2.6397 30.6952 2.63556 30.691 2.63146 30.6868L0.767526 28.8226C-0.425995 27.6289 -0.195979 25.6344 1.23791 24.7438L8.81914 20.0351C9.72702 19.4712 10.8863 19.5154 11.7487 20.1467L17.432 24.3074C18.6558 23.7767 20.2311 22.9672 21.3378 21.8604C21.3819 21.8164 21.4283 21.7761 21.4767 21.7396C21.5132 21.6912 21.5535 21.6447 21.5976 21.6006C22.8259 20.3721 23.6879 18.5661 24.2091 17.3043L20.1442 11.7503C19.513 10.8878 19.4688 9.7283 20.0327 8.82029L24.7407 1.23797ZM26.8025 17.8804C26.2866 19.1891 25.2045 21.6988 23.4501 23.4534C23.406 23.4975 23.3596 23.5378 23.3112 23.5743C23.2747 23.6227 23.2344 23.6691 23.1903 23.7132C21.2443 25.6596 18.3692 26.7786 17.2348 27.2151C17.1502 27.2476 17.0643 27.2708 16.9782 27.2851L7.7641 32.0964C9.58133 33.6702 12.3436 33.7713 15.6956 32.5532C19.1673 31.2916 22.8695 28.7316 25.7855 25.8152L25.7868 25.8138L25.7985 25.802C28.7212 22.8788 31.2806 19.1762 32.5403 15.7061C33.7553 12.3592 33.6535 9.6007 32.083 7.78275L26.8784 17.7531C26.8553 17.7973 26.83 17.8397 26.8025 17.8804ZM28.7853 4.43957C28.8388 4.51038 28.8978 4.57812 28.9616 4.64198L30.1478 5.82832L25.5305 14.6736L22.2583 10.2026L26.9663 2.62031L28.7853 4.43957ZM14.6716 25.5337L10.2013 22.2611L2.62005 26.9698L5.81045 30.1606L14.6716 25.5337Z" fill="currentColor"/>
</g>
<defs>
<clipPath id="clip0_514_1804">
<rect width="36" height="36" fill="currentColor"/>
</clipPath>
</defs>
</svg>
