<svg id="" width="36" height="36" viewBox="0 0 36 36" fill="currentColor" xmlns="http://www.w3.org/2000/svg">
<path d="M17.9999 34C18.6797 34 19.2307 33.449 19.2307 32.7692L19.2307 3.23077C19.2307 2.55103 18.6797 2 17.9999 2C17.3202 2 16.7692 2.55103 16.7692 3.23077L16.7692 32.7692C16.7692 33.449 17.3202 34 17.9999 34Z" fill="currentColor"/>
<path d="M1.99997 17.9999C1.99997 18.6797 2.551 19.2307 3.23074 19.2307L32.7692 19.2307C33.4489 19.2307 34 18.6797 34 17.9999C34 17.3202 33.4489 16.7692 32.7692 16.7692L3.23074 16.7692C2.551 16.7692 1.99997 17.3202 1.99997 17.9999Z" fill="currentColor"/>
</svg>
