<svg id="" width="36" height="36" viewBox="0 0 36 36" fill="currentColor" xmlns="http://www.w3.org/2000/svg">
<path d="M16.6154 1.38462C16.6154 0.619913 17.2353 0 18 0C27.9411 0 36 8.05888 36 18C36 27.9411 27.9411 36 18 36C17.2353 36 16.6154 35.3801 16.6154 34.6154C16.6154 33.8507 17.2353 33.2308 18 33.2308C26.4117 33.2308 33.2307 26.4117 33.2307 18C33.2307 9.58828 26.4117 2.76923 18 2.76923C17.2353 2.76923 16.6154 2.14932 16.6154 1.38462Z" fill="currentColor"/>
<path d="M22.6946 8.15896C23.1885 7.5752 24.0622 7.5024 24.6459 7.99635C25.2297 8.4903 25.3025 9.36397 24.8085 9.94773L17.779 18.2554C17.2876 18.8361 16.4199 18.9117 15.8356 18.4247L12.0012 15.2295C11.4138 14.7399 11.3344 13.8668 11.8239 13.2794C12.3135 12.6919 13.1866 12.6125 13.7741 13.1021L16.5526 15.4176L22.6946 8.15896Z" fill="currentColor"/>
<path d="M18 0C17.8107 0 17.6221 0.00292673 17.4341 0.00874024C16.6697 0.0323789 16.0693 0.671159 16.0929 1.4355C16.1166 2.19983 16.7553 2.80029 17.5197 2.77665C17.6791 2.77172 17.8393 2.76923 18 2.76923C18.7647 2.76923 19.3846 2.14932 19.3846 1.38462C19.3846 0.619913 18.7647 0 18 0Z" fill="currentColor"/>
<path d="M14.6924 1.65467C14.4794 0.920237 13.7113 0.497564 12.9769 0.710599C12.6134 0.816043 12.2546 0.932632 11.901 1.05997C11.1815 1.31905 10.8082 2.11232 11.0673 2.8318C11.3264 3.55128 12.1197 3.92451 12.8392 3.66543C13.138 3.55782 13.4412 3.4593 13.7483 3.3702C14.4828 3.15717 14.9054 2.38909 14.6924 1.65467Z" fill="currentColor"/>
<path d="M7.88079 3.11175C8.51288 2.68136 9.37419 2.84487 9.80458 3.47696C10.235 4.10905 10.0714 4.97036 9.43936 5.40074C9.17532 5.58053 8.9172 5.76841 8.66535 5.96404C8.06144 6.43315 7.19159 6.32388 6.72248 5.71997C6.25337 5.11606 6.36265 4.24621 6.96655 3.7771C7.26397 3.54607 7.56886 3.32414 7.88079 3.11175Z" fill="currentColor"/>
<path d="M5.71997 6.72248C5.11606 6.25337 4.24621 6.36265 3.7771 6.96656C3.54606 7.26397 3.32414 7.56886 3.11174 7.88079C2.68136 8.51288 2.84487 9.37419 3.47696 9.80458C4.10905 10.235 4.97036 10.0714 5.40074 9.43936C5.58053 9.17532 5.76841 8.9172 5.96404 8.66535C6.43315 8.06144 6.32388 7.19159 5.71997 6.72248Z" fill="currentColor"/>
<path d="M1.05997 11.901C1.31905 11.1815 2.11232 10.8082 2.8318 11.0673C3.55128 11.3264 3.92451 12.1197 3.66543 12.8392C3.55782 13.138 3.4593 13.4412 3.3702 13.7483C3.15717 14.4828 2.38909 14.9054 1.65467 14.6924C0.920238 14.4794 0.497565 13.7113 0.7106 12.9769C0.816043 12.6134 0.932632 12.2546 1.05997 11.901Z" fill="currentColor"/>
<path d="M1.4355 16.0929C0.671159 16.0693 0.0323791 16.6697 0.0087403 17.4341C0.00292673 17.6221 0 17.8107 0 18C0 18.1893 0.00292673 18.3779 0.00874024 18.5659C0.0323789 19.3303 0.671159 19.9307 1.4355 19.9071C2.19983 19.8834 2.80029 19.2447 2.77665 18.4803C2.77172 18.3209 2.76923 18.1607 2.76923 18C2.76923 17.8393 2.77172 17.6791 2.77665 17.5197C2.80029 16.7553 2.19983 16.1166 1.4355 16.0929Z" fill="currentColor"/>
<path d="M1.65466 21.3076C2.38909 21.0946 3.15717 21.5172 3.3702 22.2517C3.4593 22.5588 3.55782 22.862 3.66543 23.1608C3.92451 23.8803 3.55128 24.6736 2.8318 24.9327C2.11232 25.1918 1.31905 24.8185 1.05997 24.099C0.932632 23.7454 0.816043 23.3866 0.710599 23.0231C0.497564 22.2887 0.920237 21.5206 1.65466 21.3076Z" fill="currentColor"/>
<path d="M5.40074 26.5606C4.97036 25.9286 4.10905 25.765 3.47696 26.1954C2.84487 26.6258 2.68136 27.4871 3.11174 28.1192C3.32414 28.4311 3.54606 28.736 3.7771 29.0334C4.24621 29.6374 5.11606 29.7466 5.71997 29.2775C6.32388 28.8084 6.43315 27.9386 5.96404 27.3347C5.76841 27.0828 5.58053 26.8247 5.40074 26.5606Z" fill="currentColor"/>
<path d="M6.72248 30.28C7.19159 29.6761 8.06144 29.5668 8.66535 30.036C8.9172 30.2316 9.17532 30.4195 9.43936 30.5993C10.0714 31.0296 10.235 31.891 9.80458 32.523C9.37419 33.1551 8.51288 33.3186 7.88079 32.8883C7.56886 32.6759 7.26397 32.4539 6.96655 32.2229C6.36265 31.7538 6.25337 30.8839 6.72248 30.28Z" fill="currentColor"/>
<path d="M12.8392 32.3346C12.1197 32.0755 11.3264 32.4487 11.0673 33.1682C10.8082 33.8877 11.1815 34.681 11.901 34.94C12.2546 35.0674 12.6134 35.184 12.9769 35.2894C13.7113 35.5024 14.4794 35.0798 14.6924 34.3453C14.9054 33.6109 14.4828 32.8428 13.7483 32.6298C13.4412 32.5407 13.138 32.4422 12.8392 32.3346Z" fill="currentColor"/>
<path d="M16.0929 34.5645C16.1166 33.8002 16.7553 33.1997 17.5197 33.2234C17.6791 33.2283 17.8393 33.2308 18 33.2308C18.7647 33.2308 19.3846 33.8507 19.3846 34.6154C19.3846 35.3801 18.7647 36 18 36C17.8107 36 17.6221 35.9971 17.4341 35.9913C16.6697 35.9676 16.0693 35.3288 16.0929 34.5645Z" fill="currentColor"/>
<path d="M22.6945 17.1056C23.1885 16.5219 24.0622 16.4491 24.6459 16.943C25.2297 17.437 25.3025 18.3106 24.8085 18.8944L24.4571 19.3098C23.9631 19.8935 23.0895 19.9663 22.5057 19.4724C21.9219 18.9784 21.8491 18.1048 22.3431 17.521L22.6945 17.1056Z" fill="currentColor"/>
<path d="M19.5312 20.8441C20.0252 20.2603 20.8989 20.1875 21.4826 20.6815C22.0664 21.1754 22.1392 22.0491 21.6452 22.6328L20.9423 23.4636C20.4483 24.0474 19.5747 24.1202 18.9909 23.6262C18.4071 23.1323 18.3343 22.2586 18.8283 21.6749L19.5312 20.8441Z" fill="currentColor"/>
<path d="M13.774 22.0487C13.1866 21.5592 12.3135 21.6386 11.8239 22.226C11.3344 22.8135 11.4138 23.6866 12.0012 24.1761L12.3847 24.4956C12.9721 24.9852 13.8452 24.9058 14.3348 24.3184C14.8243 23.7309 14.7449 22.8578 14.1575 22.3683L13.774 22.0487Z" fill="currentColor"/>
<path d="M16.5332 24.6172C16.9984 24.4205 17.5553 24.4862 17.9678 24.8353C18.5516 25.3293 18.6244 26.2029 18.1304 26.7867L17.779 27.2021C17.2876 27.7827 16.4199 27.8583 15.8356 27.3714L15.4521 27.0519C14.8647 26.5623 14.7853 25.6892 15.2748 25.1018C15.5936 24.7192 16.0749 24.5525 16.5332 24.6172Z" fill="currentColor"/>
</svg>
