<svg id="" width="36" height="36" viewBox="0 0 36 36" fill="currentColor" xmlns="http://www.w3.org/2000/svg">
<g clip-path="url(#clip0_679_1210)">
<path d="M17.9998 -0.000244141C11.3573 -0.000244141 5.99976 5.13957 5.99976 11.4478C5.99976 12.4439 6.85214 13.2513 7.90361 13.2513C8.95508 13.2513 9.80747 12.4439 9.80747 11.4478C9.80747 7.10322 13.4901 3.60683 17.9998 3.60683C22.5094 3.60683 26.192 7.10322 26.192 11.4478C26.192 12.701 26.0685 13.4248 25.8945 13.8826C25.747 14.2706 25.5455 14.519 25.1829 14.778C24.7469 15.0894 24.1168 15.3901 23.0568 15.841C22.8683 15.9211 22.6694 16.0048 22.4599 16.093L22.4585 16.0935C21.5446 16.4781 20.4347 16.945 19.1618 17.553C18.8497 17.7021 18.5835 17.815 18.3379 17.9174L18.2508 17.9536C18.0463 18.0385 17.799 18.1412 17.5844 18.2481C17.3236 18.378 16.9727 18.5789 16.6587 18.9064C16.3223 19.2573 16.1241 19.6515 16.011 20.0464C15.828 20.685 15.8429 21.4796 15.8581 22.2376C15.8621 22.4383 15.8673 22.6544 15.873 22.8882L15.8731 22.8894C15.8919 23.6638 15.9156 24.637 15.9156 25.9146C15.9156 26.9107 16.768 27.7181 17.8195 27.7181C18.8709 27.7181 19.7233 26.9107 19.7233 25.9146C19.7233 24.5909 19.6983 23.5649 19.6794 22.7881C19.6738 22.5605 19.6688 22.3549 19.6651 22.1691C19.6575 21.788 19.6558 21.5142 19.6625 21.3061L19.8713 21.219C20.1365 21.1085 20.4744 20.9657 20.8761 20.7738C22.0582 20.2092 23.0719 19.7825 23.9826 19.3992L23.987 19.3974C24.2022 19.3068 24.4119 19.2186 24.6164 19.1316C25.6394 18.6965 26.6495 18.248 27.4753 17.6581C28.3745 17.0158 29.0566 16.2107 29.477 15.1047C29.8709 14.0686 29.9998 12.8581 29.9998 11.4478C29.9998 5.13957 24.6423 -0.000244141 17.9998 -0.000244141Z" fill="currentColor"/>
<path d="M19.5 33.0646C19.5 32.0686 18.6476 31.2611 17.5962 31.2611C16.5447 31.2611 15.6923 32.0686 15.6923 33.0646V34.1963C15.6923 35.1924 16.5447 35.9998 17.5962 35.9998C18.6476 35.9998 19.5 35.1924 19.5 34.1963V33.0646Z" fill="currentColor"/>
</g>
<defs>
<clipPath id="clip0_679_1210">
<rect width="36" height="36" fill="currentColor"/>
</clipPath>
</defs>
</svg>
