<svg id="" width="36" height="36" viewBox="0 0 36 36" fill="currentColor" xmlns="http://www.w3.org/2000/svg">
<g clip-path="url(#clip0_598_926)">
<path fill-rule="evenodd" clip-rule="evenodd" d="M3.18846 0.232548C2.75652 -0.050704 2.20114 -0.0771121 1.74344 0.163837C1.28573 0.404787 1 0.873978 1 1.38462V30.1846C1 33.3964 3.64693 36 6.9121 36H29.0879C32.3531 36 35 33.3964 35 30.1846V1.38462C35 0.873978 34.7143 0.404787 34.2566 0.163837C33.7989 -0.0771122 33.2435 -0.0507039 32.8115 0.232548L29.6943 2.27673L26.577 0.232548C26.1042 -0.077513 25.4882 -0.077513 25.0154 0.232548L21.8981 2.27673L18.7808 0.232548C18.308 -0.077513 17.692 -0.077513 17.2192 0.232548L14.1019 2.27673L10.9846 0.232548C10.5118 -0.077513 9.89583 -0.077513 9.423 0.232548L6.30573 2.27673L3.18846 0.232548ZM22.6789 5.0929L25.7962 3.04872L28.9134 5.0929C29.3863 5.40296 30.0023 5.40296 30.4751 5.0929L32.1847 3.9718V30.1846C32.1847 31.867 30.7982 33.2308 29.0879 33.2308H6.9121C5.20178 33.2308 3.81529 31.867 3.81529 30.1846V3.9718L5.52491 5.0929C5.99774 5.40296 6.61373 5.40296 7.08655 5.0929L10.2038 3.04872L13.3211 5.0929C13.7939 5.40296 14.4099 5.40296 14.8827 5.0929L18 3.04872L21.1173 5.0929C21.5901 5.40296 22.2061 5.40296 22.6789 5.0929Z" fill="currentColor"/>
<path d="M7.60497 6.39014C6.82755 6.39014 6.19733 7.01005 6.19733 7.77475C6.19733 8.53945 6.82755 9.15937 7.60497 9.15937H12.8024C13.5798 9.15937 14.2101 8.53945 14.2101 7.77475C14.2101 7.01005 13.5798 6.39014 12.8024 6.39014H7.60497Z" fill="currentColor"/>
<path d="M7.60497 10.2245C6.82755 10.2245 6.19733 10.8444 6.19733 11.6091C6.19733 12.3738 6.82755 12.9937 7.60497 12.9937H12.8024C13.5798 12.9937 14.2101 12.3738 14.2101 11.6091C14.2101 10.8444 13.5798 10.2245 12.8024 10.2245H7.60497Z" fill="currentColor"/>
<path d="M19.2992 28.1187C18.5218 28.1187 17.8915 28.7386 17.8915 29.5033C17.8915 30.268 18.5218 30.8879 19.2992 30.8879H28.3947C29.1721 30.8879 29.8024 30.268 29.8024 29.5033C29.8024 28.7386 29.1721 28.1187 28.3947 28.1187H19.2992Z" fill="currentColor"/>
<path fill-rule="evenodd" clip-rule="evenodd" d="M6.19733 16.722C6.19733 15.9573 6.82755 15.3374 7.60497 15.3374H28.3948C29.1722 15.3374 29.8024 15.9573 29.8024 16.722V24.3907C29.8024 25.1554 29.1722 25.7753 28.3948 25.7753H7.60497C6.82755 25.7753 6.19733 25.1554 6.19733 24.3907V16.722ZM9.01261 18.1066V23.006H26.9871V18.1066H9.01261Z" fill="currentColor"/>
</g>
<defs>
<clipPath id="clip0_598_926">
<rect width="36" height="36" fill="currentColor"/>
</clipPath>
</defs>
</svg>
