<svg id="" width="36" height="36" viewBox="0 0 36 36" fill="currentColor" xmlns="http://www.w3.org/2000/svg">
<path d="M13.9139 0C8.87528 0 4.79065 4.58736 4.79065 10.2462V18C4.79065 18.7647 5.34263 19.3846 6.02353 19.3846C6.70443 19.3846 7.2564 18.7647 7.2564 18V10.2462C7.2564 6.11676 10.2371 2.76923 13.9139 2.76923H22.0861C25.763 2.76923 28.7437 6.11676 28.7437 10.2462V11.6095C28.7437 12.3742 29.2957 12.9941 29.9766 12.9941C30.6575 12.9941 31.2094 12.3742 31.2094 11.6095V10.2462C31.2094 4.58736 27.1248 0 22.0861 0H13.9139Z" fill="currentColor"/>
<path d="M29.9766 16.6154C29.2957 16.6154 28.7437 17.2353 28.7437 18V25.7538C28.7437 29.8832 25.763 33.2308 22.0862 33.2308H13.9139C10.2371 33.2308 7.2564 29.8832 7.2564 25.7538V24.3905C7.2564 23.6258 6.70443 23.0059 6.02353 23.0059C5.34263 23.0059 4.79065 23.6258 4.79065 24.3905V25.7538C4.79065 31.4126 8.87529 36 13.9139 36H22.0862C27.1248 36 31.2094 31.4126 31.2094 25.7538V18C31.2094 17.2353 30.6575 16.6154 29.9766 16.6154Z" fill="currentColor"/>
<path d="M11.6732 12.8529C12.1616 13.3857 12.1729 14.2623 11.6984 14.8108L6.90783 20.3493C6.67568 20.6177 6.35669 20.7691 6.02352 20.7691C5.69034 20.7691 5.37135 20.6177 5.1392 20.3493L0.348592 14.8108C-0.12585 14.2623 -0.114538 13.3857 0.373857 12.8529C0.862252 12.3201 1.64278 12.3328 2.11722 12.8813L6.02352 17.3974L9.92981 12.8813C10.4042 12.3328 11.1848 12.3201 11.6732 12.8529Z" fill="currentColor"/>
<path d="M24.3268 23.1473C23.8384 22.6144 23.8271 21.7378 24.3016 21.1893L29.0922 15.6509C29.3243 15.3825 29.6433 15.231 29.9765 15.231C30.3097 15.231 30.6287 15.3825 30.8608 15.6509L35.6514 21.1893C36.1259 21.7378 36.1145 22.6144 35.6261 23.1472C35.1377 23.6801 34.3572 23.6674 33.8828 23.1189L29.9765 18.6028L26.0702 23.1189C25.5958 23.6674 24.8152 23.6801 24.3268 23.1473Z" fill="currentColor"/>
</svg>
