<svg id="" width="36" height="36" viewBox="0 0 36 36" fill="currentColor" xmlns="http://www.w3.org/2000/svg">
<path d="M36 10.9278C36 7.71606 33.3964 5.11243 30.1846 5.11243H21.104C20.3393 5.11243 19.7194 5.73234 19.7194 6.49704C19.7194 7.26174 20.3393 7.88166 21.104 7.88166H30.1846C31.867 7.88166 33.2308 9.24546 33.2308 10.9278V30.1846C33.2308 31.867 31.867 33.2308 30.1846 33.2308H16.0402C14.3579 33.2308 12.9941 31.867 12.9941 30.1846V21.8343C12.9941 21.0696 12.3742 20.4497 11.6095 20.4497C10.8448 20.4497 10.2249 21.0696 10.2249 21.8343V30.1846C10.2249 33.3964 12.8285 36 16.0402 36H30.1846C33.3964 36 36 33.3964 36 30.1846V10.9278Z" fill="currentColor"/>
<path d="M29.439 28.3954C29.439 29.1601 28.8191 29.78 28.0544 29.78C27.2897 29.78 26.6698 29.1601 26.6698 28.3954V12.7173C26.6698 11.9526 27.2897 11.3326 28.0544 11.3326C28.8191 11.3326 29.439 11.9526 29.439 12.7173V28.3954Z" fill="currentColor"/>
<path d="M24.3266 28.3954C24.3266 29.1601 23.7067 29.78 22.942 29.78C22.1773 29.78 21.5574 29.1601 21.5574 28.3954L21.5574 17.8297C21.5574 17.065 22.1773 16.4451 22.942 16.4451C23.7067 16.4451 24.3266 17.065 24.3266 17.8297V28.3954Z" fill="currentColor"/>
<path d="M17.8296 29.78C18.5943 29.78 19.2142 29.1601 19.2142 28.3954V22.9421C19.2142 22.1774 18.5943 21.5575 17.8296 21.5575C17.0649 21.5575 16.4449 22.1774 16.4449 22.9421V28.3954C16.4449 29.1601 17.0649 29.78 17.8296 29.78Z" fill="currentColor"/>
<path fill-rule="evenodd" clip-rule="evenodd" d="M18.1065 9.05325C18.1065 4.05328 14.0532 0 9.05325 0C4.05328 0 0 4.05328 0 9.05325C0 14.0532 4.05328 18.1065 9.05325 18.1065C14.0532 18.1065 18.1065 14.0532 18.1065 9.05325ZM15.1842 7.6687H9.90903L7.5498 2.95022C8.03151 2.83195 8.53506 2.76923 9.05325 2.76923C12.0481 2.76923 14.5536 4.86426 15.1842 7.6687ZM5.07351 4.18983L7.47493 8.99267L4.71233 13.597C3.51503 12.4528 2.76923 10.8401 2.76923 9.05325C2.76923 7.09293 3.66685 5.34225 5.07351 4.18983ZM7.08605 15.0232L9.83722 10.4379H15.1842C14.5536 13.2423 12.0481 15.3373 9.05325 15.3373C8.36619 15.3373 7.70487 15.227 7.08605 15.0232Z" fill="currentColor"/>
</svg>
