<svg id="research" width="36" height="36" viewBox="0 0 36 36" fill="currentColor" xmlns="http://www.w3.org/2000/svg">
<g clip-path="url(#clip0_505_1087)">
<path d="M0 12.1407C0 8.97643 2.56252 6.41132 5.72355 6.41132H14.0273C15.4766 6.41132 16.8719 6.96165 17.9316 7.95125L18.4512 8.43643C19.0026 8.95139 19.0326 9.81634 18.5182 10.3684C18.0037 10.9204 17.1397 10.9504 16.5882 10.4354L16.0687 9.95027C15.5146 9.43286 14.7851 9.14513 14.0273 9.14513H5.72355C4.07084 9.14513 2.73105 10.4863 2.73105 12.1407V30.2707C2.73105 31.9251 4.07084 33.2663 5.72356 33.2663H19.3748C21.0275 33.2663 22.3673 31.9251 22.3673 30.2707V18.7643C22.3673 18.0094 22.9787 17.3974 23.7328 17.3974C24.487 17.3974 25.0984 18.0094 25.0984 18.7643V30.2707C25.0984 33.435 22.5358 36.0001 19.3748 36.0001H5.72356C2.56252 36.0001 0 33.435 0 30.2707V12.1407Z" fill="currentColor"/>
<path d="M6.18291 13.8654C5.42875 13.8654 4.81738 14.4773 4.81738 15.2323C4.81738 15.9872 5.42875 16.5992 6.18291 16.5992H15.1875C15.9417 16.5992 16.5531 15.9872 16.5531 15.2323C16.5531 14.4773 15.9417 13.8654 15.1875 13.8654H6.18291Z" fill="currentColor"/>
<path d="M6.18291 19.9688C5.42875 19.9688 4.81738 20.5808 4.81738 21.3357C4.81738 22.0906 5.42875 22.7026 6.18291 22.7026H18.9154C19.6696 22.7026 20.281 22.0906 20.281 21.3357C20.281 20.5808 19.6696 19.9688 18.9154 19.9688H6.18291Z" fill="currentColor"/>
<path d="M4.81738 27.4392C4.81738 26.6843 5.42875 26.0723 6.18291 26.0723H18.9154C19.6696 26.0723 20.281 26.6843 20.281 27.4392C20.281 28.1942 19.6696 28.8061 18.9154 28.8061H6.18291C5.42875 28.8061 4.81738 28.1942 4.81738 27.4392Z" fill="currentColor"/>
<path fill-rule="evenodd" clip-rule="evenodd" d="M33.066 2.4852C31.6688 1.11268 29.4035 1.11268 28.0063 2.4852L21.4514 8.92433C20.9936 9.37404 20.6858 9.9153 20.528 10.4881L18.7536 14.5553C18.5457 15.0318 18.6258 15.585 18.9604 15.9828C19.2949 16.3805 19.8259 16.5538 20.3303 16.4299L25.3008 15.2092C25.3564 15.1956 25.4103 15.1787 25.4624 15.1589C25.9939 14.9946 26.494 14.7056 26.9153 14.2917L33.4702 7.85262C34.8674 6.48009 34.8674 4.2548 33.4702 2.88227L33.066 2.4852ZM24.7371 12.5357C24.8199 12.4972 24.8975 12.4443 24.9661 12.3769L31.521 5.93781C31.8416 5.62281 31.8416 5.11209 31.521 4.79708L31.1167 4.40001C30.7961 4.08501 30.2762 4.08501 29.9555 4.40001L23.4006 10.8391C23.0799 11.1541 23.0799 11.6649 23.4006 11.9799L23.8048 12.3769C23.9717 12.5409 24.1926 12.6195 24.4113 12.6128L24.6501 12.5542C24.6791 12.547 24.7081 12.5409 24.7371 12.5357Z" fill="currentColor"/>
</g>
<defs>
<clipPath id="clip0_505_1087">
<rect width="36" height="36" fill="currentColor"/>
</clipPath>
</defs>
</svg>
