<svg id="respondents" width="36" height="36" viewBox="0 0 36 36" fill="currentColor" xmlns="http://www.w3.org/2000/svg">
<g clip-path="url(#clip0_505_1296)">
<path d="M33.6005 6.36228C32.0454 4.86376 29.6681 3.96857 26.1698 4.33084C25.4089 4.40963 24.8538 5.11226 24.9299 5.9002C25.006 6.68814 25.6845 7.26301 26.4454 7.18422C29.3372 6.88475 30.8653 7.6437 31.714 8.46155C32.3293 9.0545 32.6958 9.78146 32.919 10.459C32.8057 10.387 32.6904 10.3165 32.5731 10.2481C31.2956 9.50278 29.6497 8.91852 27.8932 9.20846C27.138 9.33311 26.6234 10.0681 26.7438 10.8501C26.8642 11.6321 27.5739 12.165 28.3291 12.0403C29.24 11.89 30.2386 12.1775 31.2138 12.7465C32.0164 13.2147 32.7105 13.8212 33.1873 14.3332C33.1816 14.468 33.1755 14.6033 33.1695 14.7379L33.1695 14.7396C33.1536 15.0956 33.138 15.4467 33.128 15.7624C33.0263 15.8766 32.9162 16.0015 32.7993 16.1343C32.0248 17.0137 30.937 18.2481 29.7973 19.2002C29.4457 19.494 29.2692 19.9293 29.2827 20.3635V24.2865C29.2827 24.8296 29.579 25.3261 30.0481 25.569L33.8824 27.5542C34.5664 27.9084 35.3981 27.6213 35.74 26.913C36.082 26.2048 35.8048 25.3435 35.1208 24.9894L32.0519 23.4004V20.9817C33.2156 19.9246 34.353 18.6319 35.0059 17.8899L35.0107 17.8844C35.2313 17.6337 35.3907 17.4527 35.4807 17.3595C35.7403 17.0906 35.8862 16.7259 35.8862 16.3456C35.8862 15.9736 35.9071 15.5098 35.9318 14.9659C35.9487 14.5922 35.9673 14.1822 35.9813 13.7464C36.0126 12.7733 36.0232 11.6192 35.8593 10.7704C35.6427 9.64869 35.1093 7.8162 33.6005 6.36228Z" fill="currentColor"/>
<path d="M2.39953 6.43552C3.95458 4.937 6.33193 4.04182 9.83018 4.40408C10.5911 4.48287 11.1462 5.1855 11.0701 5.97344C10.994 6.76138 10.3155 7.33626 9.55463 7.25746C6.66281 6.958 5.13472 7.71694 4.28602 8.53479C3.67071 9.12774 3.30422 9.85471 3.08106 10.5323C3.19428 10.4602 3.30961 10.3898 3.42693 10.3213C4.70439 9.57602 6.35027 8.99176 8.10682 9.28171C8.86198 9.40636 9.37658 10.1413 9.25621 10.9233C9.13583 11.7053 8.42607 12.2382 7.67092 12.1136C6.75998 11.9632 5.76147 12.2507 4.78621 12.8197C3.98358 13.288 3.28954 13.8945 2.81268 14.4064C2.81847 14.5412 2.8245 14.6766 2.83049 14.8111L2.83056 14.8129C2.84642 15.1688 2.86206 15.5199 2.87206 15.8356C2.97376 15.9499 3.08378 16.0748 3.20068 16.2075C3.97519 17.087 5.06299 18.3214 6.20273 19.2735C6.55432 19.5672 6.73075 20.0024 6.71729 20.4365V24.3598C6.71729 24.9029 6.42098 25.3993 5.9519 25.6422L2.11763 27.6275C1.43366 27.9816 0.601973 27.6945 0.259992 26.9863C-0.081989 26.278 0.195242 25.4167 0.879203 25.0626L3.94809 23.4736V21.0549C2.78443 19.9979 1.647 18.7051 0.994083 17.9631L0.989277 17.9576C0.768736 17.707 0.609336 17.5259 0.519357 17.4327C0.259692 17.1638 0.113816 16.7992 0.113816 16.4189C0.113816 16.0469 0.0928772 15.583 0.0682491 15.0392C0.0513225 14.6654 0.0327556 14.2554 0.0187288 13.8196C-0.0125934 12.8466 -0.0232268 11.6924 0.140704 10.8436C0.357344 9.72193 0.890764 7.88945 2.39953 6.43552Z" fill="currentColor"/>
<path fill-rule="evenodd" clip-rule="evenodd" d="M25.7482 9.44667C24.9827 5.4835 21.8759 3 18 3C14.1241 3 11.0173 5.4835 10.2518 9.44667C10.1136 10.1627 10.0351 10.8696 9.96266 11.5514L9.94937 11.6766C9.88145 12.3173 9.81615 12.9332 9.70895 13.5309C9.48214 14.7954 9.07175 15.9531 8.07431 16.986C7.97397 17.0899 7.84406 17.1902 7.69016 17.2988C7.6384 17.3354 7.5817 17.3743 7.52319 17.4145C7.41826 17.4865 7.30695 17.563 7.20535 17.6384C6.88589 17.8756 6.5356 18.1898 6.42772 18.663C6.31747 19.1467 6.4569 19.6549 6.79622 20.0063C7.51304 20.7486 8.34485 21.4274 9.45432 21.772C10.5648 22.117 11.7904 22.078 13.2235 21.707C13.5839 21.6137 13.8757 21.3819 14.0592 21.0801V21.9923L8.53913 24.2788C8.30334 24.3765 8.09804 24.5394 7.94567 24.7498C7.22506 25.7448 5.70315 28.3661 5.13946 31.2847C4.98949 32.0612 5.47579 32.8166 6.22563 32.9719C6.97547 33.1272 7.70491 32.6236 7.85488 31.8471C8.26121 29.7432 9.32002 27.7502 9.94711 26.7841L15.958 24.2943C16.4837 24.0766 16.8284 23.5494 16.8284 22.9631V21.5226C17.2019 21.6609 17.5968 21.7498 18 21.7498C18.4032 21.7498 18.7981 21.6609 19.1716 21.5226V22.9631C19.1716 23.5494 19.5163 24.0766 20.0419 24.2943L26.0529 26.7841C26.68 27.7502 27.7388 29.7432 28.1451 31.8471C28.2951 32.6236 29.0245 33.1272 29.7743 32.9719C30.5242 32.8166 31.0105 32.0612 30.8605 31.2847C30.2968 28.3661 28.7749 25.7448 28.0543 24.7498C27.9019 24.5394 27.6966 24.3765 27.4609 24.2788L21.9408 21.9923V21.0801C22.1243 21.3819 22.4161 21.6136 22.7766 21.707C24.2097 22.078 25.4353 22.117 26.5457 21.772C27.6455 21.4304 28.4724 20.7604 29.185 20.0257C29.5346 19.6777 29.6835 19.1521 29.5725 18.6633C29.4586 18.1614 29.1176 17.8533 28.7945 17.6211C28.6966 17.5507 28.5873 17.4787 28.4845 17.4109C28.4241 17.3712 28.3659 17.3328 28.3135 17.2971C28.161 17.1931 28.0303 17.0943 27.9257 16.986C26.9283 15.9531 26.5179 14.7954 26.2911 13.5309C26.1839 12.9332 26.1186 12.3174 26.0507 11.6768L26.0374 11.5514C25.9649 10.8696 25.8865 10.1627 25.7482 9.44667ZM22.6846 18.9521C23.301 18.3411 23.8725 17.7155 24.3375 17.1939L24.4635 17.0522L24.4813 17.0831C24.861 17.7386 25.3968 18.4155 25.9208 18.9649C25.8644 18.9874 25.8075 19.0075 25.75 19.0254C25.2627 19.1767 24.5712 19.2157 23.4482 18.925C23.1865 18.8572 22.9235 18.8715 22.6846 18.9521ZM13.3154 18.9521C13.0765 18.8715 12.8136 18.8572 12.5518 18.925C11.4288 19.2157 10.7373 19.1767 10.25 19.0254C10.1925 19.0075 10.1356 18.9874 10.0792 18.9649C10.6032 18.4155 11.139 17.7386 11.5187 17.0831L11.5366 17.0522L11.6625 17.1939C12.1276 17.7155 12.6991 18.3411 13.3154 18.9521ZM18 5.86761C19.9406 5.86761 21.0694 6.54753 21.7672 7.31753C22.3973 8.01281 22.7566 8.87396 22.9487 9.63227C22.2649 9.4866 21.2582 9.15012 19.8973 8.44547C17.8505 7.38568 15.7821 7.803 14.1849 8.57867C13.8419 8.74526 13.5126 8.93174 13.1998 9.1305C13.4109 8.51022 13.7386 7.86281 14.2328 7.31753C14.9306 6.54753 16.0594 5.86761 18 5.86761ZM15.3608 11.1749C16.5105 10.6166 17.6376 10.4815 18.6589 11.0103C20.2792 11.8493 21.5758 12.2883 22.5749 12.4782C22.7809 12.5174 22.977 12.5464 23.163 12.566L23.1707 12.6628C23.2069 13.1002 23.2646 13.5698 23.361 14.061C23.2037 14.228 22.9859 14.4752 22.7449 14.7488L22.7391 14.7553C22.6007 14.9125 22.4532 15.08 22.3027 15.2488C21.8315 15.7774 21.2749 16.3849 20.6898 16.9594C20.099 17.5397 19.5116 18.0538 18.9813 18.4144C18.7 18.6058 18.4764 18.7248 18.3085 18.7951C18.136 18.8674 18.0369 18.8822 18 18.8822C17.9632 18.8822 17.864 18.8674 17.6915 18.7951C17.5236 18.7248 17.3001 18.6058 17.0187 18.4144C16.4884 18.0538 15.9011 17.5397 15.3102 16.9594C14.7251 16.3849 14.1685 15.7774 13.6974 15.2488C13.5467 15.0798 13.3994 14.9126 13.2609 14.7553L13.2552 14.7489C13.0141 14.4752 12.7963 14.228 12.6391 14.061C12.6992 13.7548 12.7442 13.457 12.7784 13.1702C13.3395 12.5307 14.2807 11.6995 15.3608 11.1749Z" fill="currentColor"/>
</g>
<defs>
<clipPath id="clip0_505_1296">
<rect width="36" height="36" fill="currentColor"/>
</clipPath>
</defs>
</svg>
