<svg id="" width="36" height="36" viewBox="0 0 36 36" fill="currentColor" xmlns="http://www.w3.org/2000/svg">
<g clip-path="url(#clip0_508_1073)">
<path fill-rule="evenodd" clip-rule="evenodd" d="M15.5724 1.19358C17.0089 -0.397861 19.508 -0.397861 20.9445 1.19358C21.1677 1.44091 21.5153 1.53427 21.8316 1.4326C23.8805 0.77402 26.0255 2.05687 26.4742 4.12738C26.5473 4.4652 26.813 4.72875 27.1353 4.7999C29.2334 5.26308 30.4486 7.43899 29.8115 9.4584C29.7058 9.79352 29.8057 10.1602 30.0537 10.3883C31.6283 11.8364 31.6283 14.3213 30.0537 15.7694C29.8057 15.9975 29.7058 16.3642 29.8115 16.6993C30.4486 18.7187 29.2334 20.8946 27.1353 21.3578C26.912 21.4071 26.7159 21.5487 26.5922 21.7434L32.2708 29.9348C32.5552 30.3451 32.5962 30.878 32.3782 31.3291C32.1601 31.7802 31.7168 32.0793 31.2184 32.1118L25.3443 32.4942L22.7074 35.5229C22.3709 35.9094 21.8498 36.0794 21.3524 35.9648C20.855 35.8502 20.4622 35.4698 20.331 34.9754L18.2585 27.1681L16.186 34.9755C16.0548 35.4698 15.662 35.8502 15.1646 35.9648C14.6672 36.0794 14.1461 35.9095 13.8096 35.5229L11.1727 32.4942L5.2986 32.1118C4.80022 32.0794 4.35692 31.7802 4.13884 31.3291C3.92075 30.878 3.96177 30.3451 4.24615 29.9349L9.92477 21.7435C9.80102 21.5488 9.60489 21.4071 9.38156 21.3578C7.28347 20.8946 6.06828 18.7187 6.70535 16.6993C6.81107 16.3642 6.71114 15.9975 6.46317 15.7694C4.88854 14.3213 4.88854 11.8364 6.46317 10.3883C6.71114 10.1602 6.81107 9.79352 6.70535 9.4584C6.06828 7.43899 7.28347 5.26308 9.38156 4.7999C9.70386 4.72875 9.96951 4.4652 10.0427 4.12738C10.4913 2.05687 12.6364 0.77402 14.6853 1.4326C15.0016 1.53427 15.3492 1.44091 15.5724 1.19358ZM11.5501 24.2657L7.91768 29.5054L11.9167 29.7657C12.2853 29.7897 12.6296 29.9605 12.8729 30.2399L14.1801 31.7413L15.8952 25.2803C15.7827 25.183 15.6748 25.0776 15.5724 24.9641C15.3492 24.7168 15.0016 24.6234 14.6853 24.7251C13.5729 25.0826 12.4323 24.868 11.5501 24.2657ZM20.6218 25.2802L22.3369 31.7413L23.6441 30.2398C23.8874 29.9604 24.2317 29.7897 24.6002 29.7657L28.5993 29.5054L24.9669 24.2656C24.0847 24.868 22.944 25.0826 21.8316 24.7251C21.5153 24.6234 21.1677 24.7168 20.9445 24.9641C20.842 25.0776 20.7342 25.1829 20.6218 25.2802ZM18.8893 3.04862C18.5522 2.67523 17.9646 2.67523 17.6276 3.04862C16.6753 4.10367 15.1921 4.50359 13.8381 4.06836C13.3768 3.92011 12.8576 4.21031 12.7485 4.71363C12.4496 6.09301 11.3724 7.19564 9.97838 7.50338C9.49645 7.60978 9.18865 8.12776 9.34566 8.62547C9.77013 9.97099 9.38683 11.4609 8.33729 12.4261C7.95527 12.7774 7.95527 13.3803 8.33729 13.7316C9.38683 14.6968 9.77013 16.1867 9.34566 17.5322C9.18865 18.0299 9.49645 18.5479 9.97838 18.6543C11.3724 18.962 12.4496 20.0647 12.7485 21.4441C12.8576 21.9474 13.3768 22.2376 13.8381 22.0893C15.1921 21.6541 16.6753 22.054 17.6276 23.1091C17.9646 23.4825 18.5522 23.4825 18.8893 23.1091C19.8415 22.054 21.3248 21.6541 22.6788 22.0893C23.14 22.2376 23.6593 21.9474 23.7684 21.4441C24.0672 20.0647 25.1445 18.962 26.5385 18.6543C27.0204 18.5479 27.3282 18.0299 27.1712 17.5322C26.7467 16.1867 27.13 14.6968 28.1796 13.7316C28.5616 13.3803 28.5616 12.7774 28.1796 12.4261C27.13 11.4609 26.7467 9.97099 27.1712 8.62547C27.3282 8.12776 27.0204 7.60978 26.5385 7.50338C25.1445 7.19564 24.0672 6.09301 23.7684 4.71363C23.6593 4.21031 23.14 3.92011 22.6788 4.06836C21.3248 4.50359 19.8415 4.10367 18.8893 3.04862Z" fill="currentColor"/>
<path d="M13.4233 15.2784C13.3543 15.2784 13.2978 15.2583 13.2539 15.218C13.21 15.1777 13.188 15.126 13.188 15.0627V9.45588C13.188 9.39263 13.21 9.34087 13.2539 9.30062C13.2978 9.26036 13.3543 9.24023 13.4233 9.24023H15.9827C16.7919 9.24023 17.4287 9.41275 17.8929 9.75779C18.3633 10.0971 18.5986 10.5801 18.5986 11.2069C18.5986 11.6152 18.4888 11.9603 18.2693 12.2421C18.056 12.5238 17.7737 12.7366 17.4224 12.8804L18.7209 15.0024C18.7397 15.0369 18.7491 15.0685 18.7491 15.0972C18.7491 15.1432 18.7272 15.1864 18.6833 15.2266C18.6456 15.2611 18.5986 15.2784 18.5421 15.2784H17.3001C17.1809 15.2784 17.093 15.2525 17.0366 15.2007C16.9801 15.1432 16.9394 15.0915 16.9143 15.0455L15.8416 13.1478H14.8724V15.0627C14.8724 15.126 14.8504 15.1777 14.8065 15.218C14.7626 15.2583 14.7061 15.2784 14.6371 15.2784H13.4233ZM14.8724 11.9315H15.9639C16.2587 11.9315 16.4783 11.8654 16.6226 11.7331C16.7731 11.6009 16.8484 11.4197 16.8484 11.1897C16.8484 10.9654 16.7763 10.7843 16.632 10.6463C16.494 10.5082 16.2713 10.4392 15.9639 10.4392H14.8724V11.9315Z" fill="currentColor"/>
<path d="M19.8257 16.9173C19.7567 16.9173 19.7002 16.8972 19.6563 16.8569C19.6124 16.8167 19.5904 16.7649 19.5904 16.7017V11.0085C19.5904 10.9453 19.6124 10.8935 19.6563 10.8533C19.7002 10.813 19.7567 10.7929 19.8257 10.7929H20.889C20.9517 10.7929 21.005 10.813 21.0489 10.8533C21.0991 10.8935 21.1242 10.9453 21.1242 11.0085V11.3277C21.2685 11.1494 21.4598 11.0028 21.6982 10.8878C21.9366 10.767 22.2314 10.7066 22.5827 10.7066C22.8963 10.7066 23.1724 10.7526 23.4107 10.8447C23.6491 10.9309 23.853 11.0603 24.0224 11.2328C24.1917 11.4053 24.3235 11.6152 24.4176 11.8625C24.5179 12.1098 24.5744 12.3944 24.5869 12.7165C24.5932 12.8315 24.5963 12.9379 24.5963 13.0356C24.5963 13.1334 24.5932 13.2398 24.5869 13.3548C24.5744 13.6653 24.5211 13.9442 24.427 14.1915C24.3329 14.4388 24.2011 14.6487 24.0318 14.8212C23.8624 14.9937 23.6554 15.1289 23.4107 15.2266C23.1724 15.3186 22.8963 15.3646 22.5827 15.3646C22.2753 15.3646 22.0056 15.3158 21.7735 15.218C21.5476 15.1145 21.3594 14.9707 21.2089 14.7867V16.7017C21.2089 16.7649 21.1869 16.8167 21.143 16.8569C21.0991 16.8972 21.0426 16.9173 20.9736 16.9173H19.8257ZM22.0746 14.2088C22.2879 14.2088 22.4541 14.1685 22.5733 14.088C22.6925 14.0075 22.7772 13.8982 22.8273 13.7602C22.8838 13.6222 22.9183 13.4698 22.9308 13.303C22.9434 13.1248 22.9434 12.9465 22.9308 12.7682C22.9183 12.6015 22.8838 12.4491 22.8273 12.3111C22.7772 12.173 22.6925 12.0638 22.5733 11.9833C22.4541 11.9028 22.2879 11.8625 22.0746 11.8625C21.8676 11.8625 21.7013 11.9056 21.5759 11.9919C21.4504 12.0724 21.3594 12.1788 21.303 12.3111C21.2465 12.4433 21.2152 12.5871 21.2089 12.7424C21.2026 12.8516 21.1995 12.958 21.1995 13.0615C21.1995 13.165 21.2026 13.2743 21.2089 13.3893C21.2152 13.5331 21.2497 13.6682 21.3124 13.7947C21.3751 13.9155 21.4692 14.0161 21.5947 14.0966C21.7201 14.1714 21.8801 14.2088 22.0746 14.2088Z" fill="currentColor"/>
</g>
<defs>
<clipPath id="clip0_508_1073">
<rect width="36" height="36" fill="currentColor"/>
</clipPath>
</defs>
</svg>
