<svg id="sample" width="36" height="36" viewBox="0 0 36 36" fill="currentColor" xmlns="http://www.w3.org/2000/svg">
<g clip-path="url(#clip0_505_1331)">
<path d="M11.0747 1.38792C11.0747 0.621395 11.6961 0 12.4626 0C13.2292 0 13.8506 0.621395 13.8506 1.38792C13.8506 1.9806 14.331 2.46105 14.9237 2.46105C15.5164 2.46105 15.9968 1.9806 15.9968 1.38792C15.9968 0.621395 16.6182 0 17.3847 0C18.1513 0 18.7727 0.621395 18.7727 1.38792C18.7727 3.51365 17.0494 5.2369 14.9237 5.2369C12.798 5.2369 11.0747 3.51365 11.0747 1.38792Z" fill="currentColor"/>
<path fill-rule="evenodd" clip-rule="evenodd" d="M5.07944 1.23065C2.95371 1.23065 1.23047 2.9539 1.23047 5.07963C1.23047 7.20536 2.95371 8.9286 5.07944 8.9286C7.20517 8.9286 8.92842 7.20536 8.92842 5.07963C8.92842 2.9539 7.20517 1.23065 5.07944 1.23065ZM4.00632 5.07963C4.00632 4.48696 4.48677 4.0065 5.07944 4.0065C5.67211 4.0065 6.15257 4.48696 6.15257 5.07963C6.15257 5.6723 5.67211 6.15275 5.07944 6.15275C4.48677 6.15275 4.00632 5.6723 4.00632 5.07963Z" fill="currentColor"/>
<path d="M19.376 8.10414C17.3303 8.6818 16.1402 10.8085 16.7178 12.8542C16.9262 13.5919 17.693 14.0211 18.4307 13.8128C19.1684 13.6044 19.5975 12.8376 19.3892 12.0999C19.2282 11.5295 19.56 10.9366 20.1304 10.7755C20.7007 10.6145 21.2937 10.9463 21.4547 11.5167C21.663 12.2543 22.4299 12.6835 23.1676 12.4752C23.9053 12.2669 24.3344 11.5 24.1261 10.7623C23.5485 8.71659 21.4218 7.52648 19.376 8.10414Z" fill="currentColor"/>
<path fill-rule="evenodd" clip-rule="evenodd" d="M5.07944 28.3021C2.95371 28.3021 1.23047 30.0254 1.23047 32.1511C1.23047 34.2768 2.95371 36.0001 5.07944 36.0001C7.20517 36.0001 8.92842 34.2768 8.92842 32.1511C8.92842 30.0254 7.20517 28.3021 5.07944 28.3021ZM4.00632 32.1511C4.00632 31.5584 4.48677 31.078 5.07944 31.078C5.67211 31.078 6.15257 31.5584 6.15257 32.1511C6.15257 32.7438 5.67211 33.2242 5.07944 33.2242C4.48677 33.2242 4.00632 32.7438 4.00632 32.1511Z" fill="currentColor"/>
<path d="M0 19.8458C0 19.0793 0.621395 18.4579 1.38792 18.4579C3.51365 18.4579 5.2369 20.1811 5.2369 22.3069C5.2369 24.4326 3.51365 26.1558 1.38792 26.1558C0.621395 26.1558 0 25.5344 0 24.7679C0 24.0014 0.621395 23.38 1.38792 23.38C1.9806 23.38 2.46105 22.8995 2.46105 22.3069C2.46105 21.7142 1.9806 21.2337 1.38792 21.2337C0.621395 21.2337 0 20.6123 0 19.8458Z" fill="currentColor"/>
<path fill-rule="evenodd" clip-rule="evenodd" d="M8.77109 9.84424C6.64536 9.84424 4.92212 11.5675 4.92212 13.6932C4.92212 15.8189 6.64536 17.5422 8.77109 17.5422C10.8968 17.5422 12.6201 15.8189 12.6201 13.6932C12.6201 11.5675 10.8968 9.84424 8.77109 9.84424ZM7.69797 13.6932C7.69797 13.1005 8.17842 12.6201 8.77109 12.6201C9.36376 12.6201 9.84422 13.1005 9.84422 13.6932C9.84422 14.2859 9.36376 14.7663 8.77109 14.7663C8.17842 14.7663 7.69797 14.2859 7.69797 13.6932Z" fill="currentColor"/>
<path fill-rule="evenodd" clip-rule="evenodd" d="M28.3021 5.07963C28.3021 2.9539 30.0253 1.23065 32.151 1.23065C34.2768 1.23065 36 2.9539 36 5.07963C36 7.20536 34.2768 8.9286 32.151 8.9286C30.0253 8.9286 28.3021 7.20536 28.3021 5.07963ZM32.151 4.0065C31.5584 4.0065 31.0779 4.48696 31.0779 5.07963C31.0779 5.6723 31.5584 6.15275 32.151 6.15275C32.7437 6.15275 33.2242 5.6723 33.2242 5.07963C33.2242 4.48696 32.7437 4.0065 32.151 4.0065Z" fill="currentColor"/>
<path d="M19.5654 17.3846C19.5654 16.5501 20.2418 15.8737 21.0763 15.8737C21.9108 15.8737 22.5873 16.5501 22.5873 17.3846C22.5873 18.2191 21.9108 18.8956 21.0763 18.8956C20.2418 18.8956 19.5654 18.2191 19.5654 17.3846Z" fill="currentColor"/>
<path d="M26.9485 19.8457C26.9485 19.0112 27.625 18.3347 28.4595 18.3347C29.294 18.3347 29.9705 19.0112 29.9705 19.8457C29.9705 20.6802 29.294 21.3567 28.4595 21.3567C27.625 21.3567 26.9485 20.6802 26.9485 19.8457Z" fill="currentColor"/>
<path d="M18.6153 19.5652C17.7808 19.5652 17.1043 20.2417 17.1043 21.0762C17.1043 21.9107 17.7808 22.5872 18.6153 22.5872C19.4498 22.5872 20.1263 21.9107 20.1263 21.0762C20.1263 20.2417 19.4498 19.5652 18.6153 19.5652Z" fill="currentColor"/>
<path d="M22.0264 22.3067C22.0264 21.4722 22.7029 20.7958 23.5374 20.7958C24.3719 20.7958 25.0484 21.4722 25.0484 22.3067C25.0484 23.1412 24.3719 23.8177 23.5374 23.8177C22.7029 23.8177 22.0264 23.1412 22.0264 22.3067Z" fill="currentColor"/>
<path d="M21.0763 24.4873C20.2418 24.4873 19.5654 25.1638 19.5654 25.9983C19.5654 26.8328 20.2418 27.5093 21.0763 27.5093C21.9108 27.5093 22.5873 26.8328 22.5873 25.9983C22.5873 25.1638 21.9108 24.4873 21.0763 24.4873Z" fill="currentColor"/>
<path d="M25.718 25.9983C25.718 25.1638 26.3945 24.4873 27.229 24.4873C28.0634 24.4873 28.7399 25.1638 28.7399 25.9983C28.7399 26.8328 28.0634 27.5093 27.229 27.5093C26.3945 27.5093 25.718 26.8328 25.718 25.9983Z" fill="currentColor"/>
<path fill-rule="evenodd" clip-rule="evenodd" d="M23.5374 10.9517C17.2661 10.9517 12.1823 16.0355 12.1823 22.3068C12.1823 28.5781 17.2661 33.662 23.5374 33.662C25.8565 33.662 28.0132 32.9668 29.8105 31.7735L33.6305 35.5935C34.1725 36.1355 35.0513 36.1355 35.5933 35.5935C36.1354 35.0515 36.1354 34.1727 35.5933 33.6307L31.9245 29.9618C33.7681 27.943 34.8926 25.2563 34.8926 22.3068C34.8926 16.0355 29.8087 10.9517 23.5374 10.9517ZM14.9581 22.3068C14.9581 17.5686 18.7992 13.7275 23.5374 13.7275C28.2757 13.7275 32.1168 17.5686 32.1168 22.3068C32.1168 27.0451 28.2757 30.8862 23.5374 30.8862C18.7992 30.8862 14.9581 27.0451 14.9581 22.3068Z" fill="currentColor"/>
</g>
<defs>
<clipPath id="clip0_505_1331">
<rect width="36" height="36" fill="currentColor"/>
</clipPath>
</defs>
</svg>
