<svg id="" width="36" height="36" viewBox="0 0 36 36" fill="currentColor" xmlns="http://www.w3.org/2000/svg">
<g clip-path="url(#clip0_505_1025)">
<path fill-rule="evenodd" clip-rule="evenodd" d="M15.9596 -6.10352e-05C7.14536 -6.10352e-05 0 7.1453 0 15.9595C0 24.7738 7.14536 31.9191 15.9596 31.9191C24.7739 31.9191 31.9192 24.7738 31.9192 15.9595C31.9192 7.1453 24.7739 -6.10352e-05 15.9596 -6.10352e-05ZM2.87558 15.9595C2.87558 8.73343 8.7335 2.87552 15.9596 2.87552C23.1857 2.87552 29.0436 8.73343 29.0436 15.9595C29.0436 23.1857 23.1857 29.0436 15.9596 29.0436C8.7335 29.0436 2.87558 23.1857 2.87558 15.9595Z" fill="currentColor"/>
<path d="M28.0129 25.9795C27.4514 25.418 26.5411 25.418 25.9796 25.9795C25.4181 26.541 25.4181 27.4513 25.9796 28.0128L32.95 34.9833C33.5115 35.5448 34.4219 35.5448 34.9834 34.9833C35.5449 34.4218 35.5449 33.5115 34.9834 32.95L28.0129 25.9795Z" fill="currentColor"/>
</g>
<defs>
<clipPath id="clip0_505_1025">
<rect width="36" height="36" fill="currentColor"/>
</clipPath>
</defs>
</svg>
