<svg id="" width="36" height="36" viewBox="0 0 36 36" fill="currentColor" xmlns="http://www.w3.org/2000/svg">
<path d="M10.2031 16.9181C9.86389 16.2327 10.1445 15.4022 10.8298 15.063L23.9419 8.57307C24.6273 8.23385 25.4578 8.51445 25.7971 9.19979C26.1363 9.88514 25.8557 10.7157 25.1703 11.0549L12.0582 17.5448C11.3729 17.884 10.5423 17.6034 10.2031 16.9181Z" fill="currentColor"/>
<path d="M24.4438 25.0769C25.151 25.3679 25.4884 26.1771 25.1974 26.8843C24.9065 27.5914 24.0973 27.9288 23.3901 27.6379L11.5561 22.7685C10.8489 22.4776 10.5116 21.6684 10.8025 20.9612C11.0935 20.254 11.9027 19.9166 12.6099 20.2076L24.4438 25.0769Z" fill="currentColor"/>
<path fill-rule="evenodd" clip-rule="evenodd" d="M28.8213 0C25.6096 0 23.0059 2.60363 23.0059 5.81537V7.17868C23.0059 10.3904 25.6095 12.9941 28.8213 12.9941H30.1846C33.3963 12.9941 36 10.3904 36 7.17869V5.81537C36 2.60363 33.3963 0 30.1846 0H28.8213ZM25.7751 5.81537C25.7751 4.13303 27.139 2.76922 28.8213 2.76922H30.1846C31.8669 2.76922 33.2308 4.13303 33.2308 5.81537V7.17869C33.2308 8.86103 31.8669 10.2248 30.1846 10.2248H28.8213C27.139 10.2248 25.7751 8.86102 25.7751 7.17868V5.81537Z" fill="currentColor"/>
<path fill-rule="evenodd" clip-rule="evenodd" d="M28.8213 23.0059C25.6096 23.0059 23.0059 25.6095 23.0059 28.8213V30.1846C23.0059 33.3963 25.6095 36 28.8213 36H30.1846C33.3963 36 36 33.3963 36 30.1846V28.8213C36 25.6096 33.3963 23.0059 30.1846 23.0059H28.8213ZM25.7751 28.8213C25.7751 27.139 27.139 25.7751 28.8213 25.7751H30.1846C31.8669 25.7751 33.2308 27.139 33.2308 28.8213V30.1846C33.2308 31.8669 31.8669 33.2308 30.1846 33.2308H28.8213C27.139 33.2308 25.7751 31.8669 25.7751 30.1846V28.8213Z" fill="currentColor"/>
<path fill-rule="evenodd" clip-rule="evenodd" d="M0 18.5965C0 15.3848 2.60363 12.7811 5.81537 12.7811H7.17869C10.3904 12.7811 12.9941 15.3848 12.9941 18.5965V19.9598C12.9941 23.1716 10.3904 25.7752 7.17868 25.7752H5.81537C2.60363 25.7752 0 23.1716 0 19.9598V18.5965ZM5.81537 15.5504C4.13303 15.5504 2.76922 16.9142 2.76922 18.5965V19.9598C2.76922 21.6422 4.13303 23.006 5.81537 23.006H7.17868C8.86102 23.006 10.2248 21.6422 10.2248 19.9598V18.5965C10.2248 16.9142 8.86103 15.5504 7.17869 15.5504H5.81537Z" fill="currentColor"/>
</svg>
