<svg id="" width="36" height="36" viewBox="0 0 36 36" fill="currentColor" xmlns="http://www.w3.org/2000/svg">
<path fill-rule="evenodd" clip-rule="evenodd" d="M5.26288 5.8154C5.26288 2.60364 7.83606 0 11.0102 0H24.9892C28.1634 0 30.7366 2.60364 30.7366 5.8154V6.01114C31.5271 7.00729 32 8.27245 32 9.64939V30.1844C32 33.3961 29.4268 35.9998 26.2526 35.9998H9.74737C6.57319 35.9998 4 33.3961 4 30.1844V9.64939C4 8.27278 4.47272 7.00789 5.26288 6.01184V5.8154ZM8.63567 3.94269C8.99535 3.87136 9.36704 3.83398 9.74737 3.83398H26.2526C26.6327 3.83398 27.0042 3.87132 27.3637 3.94256C26.8127 3.22842 25.9539 2.76924 24.9892 2.76924H11.0102C10.0454 2.76924 9.18663 3.22847 8.63567 3.94269ZM9.74737 6.60322C8.0847 6.60322 6.73684 7.96704 6.73684 9.64939V30.1844C6.73684 31.8667 8.0847 33.2305 9.74737 33.2305H26.2526C27.9153 33.2305 29.2632 31.8667 29.2632 30.1844V9.64939C29.2632 7.96704 27.9153 6.60322 26.2526 6.60322H9.74737Z" fill="currentColor"/>
<path d="M17.9998 21.9408C14.4535 21.9408 11.5787 19.032 11.5787 15.4438V12.8875C11.5787 12.1228 12.1914 11.5029 12.9472 11.5029C13.7029 11.5029 14.3156 12.1228 14.3156 12.8875V15.4438C14.3156 17.5026 15.9651 19.1716 17.9998 19.1716C20.0345 19.1716 21.684 17.5026 21.684 15.4438V12.8875C21.684 12.1228 22.2967 11.5029 23.0524 11.5029C23.8082 11.5029 24.4208 12.1228 24.4208 12.8875V15.4438C24.4208 19.032 21.546 21.9408 17.9998 21.9408Z" fill="currentColor"/>
</svg>
