<svg width="36" height="36" viewBox="0 0 36 36" fill="currentColor" xmlns="http://www.w3.org/2000/svg">
<path fill-rule="evenodd" clip-rule="evenodd" d="M4 0C1.79086 0 0 1.79086 0 4V8C0 9.10457 0.895432 10 2 10H34C35.1046 10 36 9.10457 36 8V4C36 1.79086 34.2091 0 32 0H4ZM32 2.6H4C3.2268 2.6 2.6 3.2268 2.6 4V7.4H33.4V4C33.4 3.2268 32.7732 2.6 32 2.6Z" fill="currentColor"/>
<path fill-rule="evenodd" clip-rule="evenodd" d="M2 13C0.895431 13 0 13.8954 0 15V21C0 22.1046 0.89543 23 2 23H8C9.10457 23 10 22.1046 10 21V15C10 13.8954 9.10457 13 8 13H2ZM2.6 15.6V20.4H7.4V15.6H2.6Z" fill="currentColor"/>
<path fill-rule="evenodd" clip-rule="evenodd" d="M0 28C0 26.8954 0.895431 26 2 26H8C9.10457 26 10 26.8954 10 28V34C10 35.1046 9.10457 36 8 36H2C0.89543 36 0 35.1046 0 34V28ZM2.6 33.4V28.6H7.4V33.4H2.6Z" fill="currentColor"/>
<path fill-rule="evenodd" clip-rule="evenodd" d="M15 13C13.8954 13 13 13.8954 13 15V21C13 22.1046 13.8954 23 15 23H21C22.1046 23 23 22.1046 23 21V15C23 13.8954 22.1046 13 21 13H15ZM15.6 15.6V20.4H20.4V15.6H15.6Z" fill="currentColor"/>
<path fill-rule="evenodd" clip-rule="evenodd" d="M13 28C13 26.8954 13.8954 26 15 26H21C22.1046 26 23 26.8954 23 28V34C23 35.1046 22.1046 36 21 36H15C13.8954 36 13 35.1046 13 34V28ZM15.6 33.4V28.6H20.4V33.4H15.6Z" fill="currentColor"/>
<path fill-rule="evenodd" clip-rule="evenodd" d="M28 13C26.8954 13 26 13.8954 26 15V21C26 22.1046 26.8954 23 28 23H34C35.1046 23 36 22.1046 36 21V15C36 13.8954 35.1046 13 34 13H28ZM28.6 15.6V20.4H33.4V15.6H28.6Z" fill="currentColor"/>
<path fill-rule="evenodd" clip-rule="evenodd" d="M26 28C26 26.8954 26.8954 26 28 26H34C35.1046 26 36 26.8954 36 28V34C36 35.1046 35.1046 36 34 36H28C26.8954 36 26 35.1046 26 34V28ZM28.6 33.4V28.6H33.4V33.4H28.6Z" fill="currentColor"/>
</svg>
