<svg width="36" height="36" viewBox="0 0 36 36" fill="currentColor" xmlns="http://www.w3.org/2000/svg">
<path d="M18 1C14.48 1 12.1549 2.18225 10.7499 3.90941C9.39469 5.57531 9.05396 7.55442 9.05396 8.92308C9.05396 10.9012 9.55054 12.5304 10.3568 13.879C10.7502 14.5371 11.6173 14.7602 12.2937 14.3775C12.97 13.9947 13.1993 13.151 12.806 12.493C12.2582 11.5768 11.8873 10.4278 11.8873 8.92308C11.8873 7.92944 12.1451 6.6362 12.9715 5.62033C13.7481 4.66571 15.1877 3.75676 18 3.75676C20.7252 3.75676 22.2016 5.0524 23.0676 6.68592C23.4263 7.36248 24.2807 7.62804 24.9761 7.27907C25.6714 6.9301 25.9443 6.09875 25.5857 5.42219C24.317 3.02899 21.9559 1 18 1Z" fill="currentColor"/>
<path d="M25.8179 23.005C25.4596 22.3283 24.6053 22.0623 23.9098 22.4109C23.2142 22.7596 22.9409 23.5908 23.2992 24.2675C23.8031 25.2191 24.1389 26.434 24.1389 28.0666C24.1389 28.0615 24.1385 28.0649 24.1372 28.0761C24.1304 28.1326 24.0999 28.3884 23.9773 28.7674C23.838 29.1976 23.5991 29.7247 23.2047 30.2322C22.4603 31.1903 21.0395 32.2432 18.1715 32.2432C15.041 32.2432 13.568 31.103 12.7984 29.8462C12.398 29.1922 11.5285 28.9778 10.8563 29.3674C10.1842 29.7571 9.96388 30.6031 10.3643 31.2571C11.7085 33.4524 14.1736 35 18.1715 35C21.8936 35 24.1648 33.5679 25.4649 31.8947C26.6949 30.3117 26.9722 28.622 26.9722 28.0666C26.9722 26.0477 26.5521 24.3916 25.8179 23.005Z" fill="currentColor"/>
<path d="M2.41667 17.0811C1.63426 17.0811 1 17.6982 1 18.4595C1 19.2207 1.63426 19.8378 2.41667 19.8378H33.5833C34.3657 19.8378 35 19.2207 35 18.4595C35 17.6982 34.3657 17.0811 33.5833 17.0811H2.41667Z" fill="currentColor"/>
</svg>
