<svg id="" width="36" height="36" viewBox="0 0 36 36" fill="currentColor" xmlns="http://www.w3.org/2000/svg">
<path fill-rule="evenodd" clip-rule="evenodd" d="M31.2831 19.3846C33.8882 19.3846 36 17.2769 36 14.677V4.70775C36 2.10776 33.8882 5.72205e-05 31.2831 5.72205e-05H26.929C26.1628 5.72205e-05 25.5417 0.619972 25.5417 1.38467V18C25.5417 18.7647 26.1628 19.3846 26.929 19.3846H31.2831ZM33.2253 14.677C33.2253 15.7475 32.3558 16.6154 31.2831 16.6154H28.3163V2.76929H31.2831C32.3558 2.76929 33.2253 3.63717 33.2253 4.70775V14.677Z" fill="currentColor"/>
<path fill-rule="evenodd" clip-rule="evenodd" d="M16.684 36C18.1629 36 19.3834 35.6692 20.2116 34.5487C20.5673 34.0675 20.7899 33.516 20.9624 32.9913C21.0984 32.5777 21.2267 32.1026 21.359 31.6131L21.3603 31.6081C21.3945 31.4815 21.429 31.3538 21.4641 31.2253C22.1483 28.7216 23.358 24.7488 28.0178 18.858C28.2111 18.6136 28.3163 18.3114 28.3163 18V1.38462C28.3163 0.619911 27.6951 0 26.9289 0H8.52129C5.18598 0 2.02237 2.07084 1.12766 5.44796C-0.116756 10.1451 -0.219198 13.7368 0.279799 16.2326C0.52824 17.4752 0.938538 18.5083 1.48906 19.2674C2.01887 19.9979 2.83178 20.6627 3.87791 20.6627C9.49672 20.6627 12.2808 21.0942 13.5689 21.5437C13.7502 21.607 13.8855 21.6651 13.985 21.7142C12.5069 26.3552 12.1274 29.7227 12.5679 32.0306C12.7967 33.2294 13.265 34.2342 14.0113 34.948C14.7762 35.6797 15.7243 36 16.684 36ZM17.9788 32.9047C17.9273 32.9743 17.8677 33.0441 17.7086 33.105C17.5333 33.1721 17.2296 33.2308 16.684 33.2308C16.3636 33.2308 16.127 33.136 15.9311 32.9487C15.7168 32.7437 15.4489 32.3265 15.2935 31.5125C14.977 29.854 15.2069 26.951 16.6987 22.3366C16.929 21.8027 17.0045 21.0566 16.5344 20.3267C16.1044 19.6591 15.3523 19.2324 14.4847 18.9296C12.7298 18.3173 9.56182 17.8979 3.96605 17.8935C3.92573 17.8644 3.84645 17.795 3.73673 17.6437C3.48869 17.3017 3.19793 16.6765 3.00082 15.6907C2.60871 13.7295 2.63723 10.5831 3.81014 6.15585C4.34209 4.14796 6.27793 2.76923 8.52129 2.76923H25.5416V17.5226C20.8401 23.5698 19.5282 27.7851 18.7872 30.4966C18.7466 30.6451 18.7086 30.7858 18.6726 30.9191L18.6719 30.9215C18.5406 31.407 18.4365 31.7919 18.326 32.1281C18.1857 32.5549 18.0731 32.777 17.9788 32.9047Z" fill="currentColor"/>
</svg>
