<svg id="" width="36" height="36" viewBox="0 0 36 36" fill="currentColor" xmlns="http://www.w3.org/2000/svg">
<path fill-rule="evenodd" clip-rule="evenodd" d="M4.71693 16.6154C2.11184 16.6154 0 18.7231 0 21.323V31.2922C0 33.8922 2.11184 35.9999 4.71693 35.9999H9.071C9.83721 35.9999 10.4583 35.38 10.4583 34.6153V18C10.4583 17.2353 9.83721 16.6154 9.071 16.6154H4.71693ZM2.77466 21.323C2.77466 20.2525 3.64425 19.3846 4.71693 19.3846H7.68367V33.2307H4.71693C3.64425 33.2307 2.77466 32.3628 2.77466 31.2922V21.323Z" fill="currentColor"/>
<path fill-rule="evenodd" clip-rule="evenodd" d="M19.316 0C17.8372 0 16.6167 0.330806 15.7884 1.45132C15.4327 1.93254 15.2101 2.48404 15.0376 3.00868C14.9017 3.42234 14.7733 3.8974 14.6411 4.38693L14.6397 4.39193C14.6055 4.51848 14.571 4.64617 14.5359 4.77473C13.8518 7.27839 12.642 11.2512 7.98222 17.142C7.78892 17.3864 7.68378 17.6886 7.68378 18V34.6154C7.68378 35.3801 8.30491 36 9.07111 36H27.4787C30.8141 36 33.9777 33.9292 34.8724 30.552C36.1168 25.8549 36.2192 22.2632 35.7202 19.7674C35.4718 18.5248 35.0615 17.4917 34.511 16.7326C33.9812 16.0021 33.1682 15.3373 32.1221 15.3373C26.5033 15.3373 23.7192 14.9058 22.4312 14.4563C22.2499 14.393 22.1145 14.3349 22.0151 14.2858C23.4931 9.64482 23.8726 6.27734 23.4321 3.96935C23.2034 2.7706 22.735 1.76578 21.9887 1.05196C21.2238 0.320338 20.2757 0 19.316 0ZM18.0213 3.09527C18.0727 3.02565 18.1324 2.95595 18.2915 2.895C18.4667 2.82787 18.7704 2.76923 19.316 2.76923C19.6364 2.76923 19.873 2.86396 20.0689 3.05131C20.2832 3.25631 20.5511 3.67354 20.7065 4.4875C21.023 6.14598 20.7932 9.04897 19.3013 13.6634C19.071 14.1973 18.9955 14.9434 19.4656 15.6733C19.8957 16.3409 20.6477 16.7676 21.5154 17.0704C23.2702 17.6827 26.4382 18.1021 32.034 18.1065C32.0743 18.1356 32.1536 18.205 32.2633 18.3563C32.5113 18.6983 32.8021 19.3235 32.9992 20.3093C33.3913 22.2705 33.3628 25.4169 32.1899 29.8441C31.6579 31.852 29.7221 33.2308 27.4787 33.2308H10.4584V18.4774C15.1599 12.4302 16.4718 8.21494 17.2128 5.50336C17.2534 5.35487 17.2914 5.21423 17.3275 5.08088L17.3281 5.07855C17.4594 4.59296 17.5635 4.20808 17.674 3.87195C17.8143 3.44512 17.9269 3.22297 18.0213 3.09527Z" fill="currentColor"/>
</svg>
