<svg width="36" height="36" viewBox="0 0 36 36" fill="currentColor" xmlns="http://www.w3.org/2000/svg">
<path d="M3 7C4.65685 7 6 5.65685 6 4C6 2.34315 4.65685 1 3 1C1.34315 1 0 2.34315 0 4C0 5.65685 1.34315 7 3 7Z" fill="currentColor"/>
<path d="M3 21C4.65685 21 6 19.6569 6 18C6 16.3431 4.65685 15 3 15C1.34315 15 0 16.3431 0 18C0 19.6569 1.34315 21 3 21Z" fill="currentColor"/>
<path d="M6 33C6 34.6569 4.65685 36 3 36C1.34315 36 0 34.6569 0 33C0 31.3431 1.34315 30 3 30C4.65685 30 6 31.3431 6 33Z" fill="currentColor"/>
<path d="M10.5 4C9.67157 4 9 4.67157 9 5.5C9 6.32843 9.67157 7 10.5 7H34.5C35.3284 7 36 6.32843 36 5.5C36 4.67157 35.3284 4 34.5 4H10.5Z" fill="currentColor"/>
<path d="M9 19.5C9 18.6716 9.67157 18 10.5 18H34.5C35.3284 18 36 18.6716 36 19.5C36 20.3284 35.3284 21 34.5 21H10.5C9.67157 21 9 20.3284 9 19.5Z" fill="currentColor"/>
<path d="M10.5 33C9.67157 33 9 33.6716 9 34.5C9 35.3284 9.67157 36 10.5 36H34.5C35.3284 36 36 35.3284 36 34.5C36 33.6716 35.3284 33 34.5 33H10.5Z" fill="currentColor"/>
</svg>
