<svg id="" width="36" height="36" viewBox="0 0 36 36" fill="currentColor" xmlns="http://www.w3.org/2000/svg">
<path d="M14.9679 17.8309C14.2194 17.8309 13.6127 18.4508 13.6127 19.2155V23.1571L6.86427 26.0433C6.63257 26.1424 6.43238 26.3054 6.28606 26.514C5.45083 27.7047 3.67798 30.8607 3.02434 34.3552C2.88384 35.1063 3.36588 35.8315 4.101 35.9751C4.83612 36.1186 5.54594 35.6261 5.68644 34.875C6.19358 32.1638 7.52628 29.617 8.2803 28.4397L15.4911 25.3558C15.995 25.1403 16.323 24.6367 16.323 24.0786V19.2155C16.323 18.4508 15.7163 17.8309 14.9679 17.8309Z" fill="currentColor"/>
<path d="M21.0321 17.8309C20.2837 17.8309 19.677 18.4508 19.677 19.2155V24.0786C19.677 24.6367 20.005 25.1403 20.5089 25.3558L27.7197 28.4397C28.4737 29.617 29.8064 32.1638 30.3136 34.875C30.4541 35.6261 31.1639 36.1186 31.899 35.9751C32.6341 35.8315 33.1162 35.1063 32.9757 34.3552C32.322 30.8607 30.5492 27.7047 29.7139 26.514C29.5676 26.3054 29.3674 26.1424 29.1357 26.0433L22.3873 23.1571V19.2155C22.3873 18.4508 21.7806 17.8309 21.0321 17.8309Z" fill="currentColor"/>
<path fill-rule="evenodd" clip-rule="evenodd" d="M18 0C21.1022 0 23.2544 1.1716 24.6752 2.79038C26.0544 4.36177 26.6576 6.25198 26.9114 7.6087C27.0939 8.58424 27.0866 9.52889 27.0482 10.5556C27.0389 10.8062 27.0275 11.0642 27.0157 11.3325L27.0156 11.3336C26.978 12.1857 26.9356 13.1487 26.9356 14.3526C26.9356 14.709 26.8011 15.0516 26.5601 15.3092C26.4197 15.4594 26.2098 15.7054 25.9209 16.0443C25.7493 16.2455 25.5511 16.478 25.327 16.7376C24.7508 17.405 24.0394 18.2081 23.2754 18.9827C22.5171 19.7515 21.6746 20.5258 20.8332 21.1166C20.0392 21.6742 19.0368 22.2213 18 22.2213C16.9633 22.2213 15.9608 21.6742 15.1668 21.1166C14.3255 20.5258 13.4829 19.7515 12.7247 18.9827C11.9607 18.2081 11.2493 17.405 10.6731 16.7376C10.4491 16.4781 10.2514 16.2463 10.0799 16.0451C9.791 15.7063 9.58045 15.4594 9.43996 15.3092C9.199 15.0516 9.06454 14.709 9.06455 14.3526C9.06456 13.1485 9.02209 12.1854 8.98448 11.3332L8.9844 11.3314C8.97257 11.0634 8.96121 10.8058 8.95185 10.5557C8.91343 9.52891 8.90616 8.58426 9.08864 7.6087C9.34242 6.25198 9.94562 4.36177 11.3248 2.79038C12.7457 1.1716 14.8979 0 18 0ZM22.6575 4.63922C21.7662 3.62383 20.3557 2.76921 18 2.76921C15.6444 2.76921 14.2338 3.62383 13.3426 4.63922C12.47 5.6334 12.0129 6.88052 11.7929 7.91714C12.3371 7.51093 12.9357 7.12861 13.5749 6.80806C15.4286 5.87853 17.8054 5.39145 20.1443 6.64186C21.8777 7.56852 23.1412 7.98581 23.9788 8.15017C24.0803 8.1701 24.1747 8.18612 24.262 8.19886C24.2579 8.17537 24.2537 8.15194 24.2493 8.12855C24.0483 7.05381 23.5902 5.70199 22.6575 4.63922ZM18.8878 9.09549C17.5875 8.40033 16.1739 8.58952 14.769 9.29402C13.5127 9.924 12.4116 10.9026 11.7133 11.6965C11.7392 12.3138 11.7641 13.0154 11.7721 13.8158C11.8954 13.9585 12.0328 14.1196 12.1793 14.2913C12.3446 14.4851 12.5224 14.6935 12.7057 14.9057C13.2665 15.5554 13.9323 16.3058 14.6338 17.0171C15.3411 17.7343 16.0525 18.3783 16.702 18.8344C17.3993 19.3241 17.8243 19.4521 18 19.4521C18.1758 19.4521 18.6008 19.3241 19.2981 18.8344C19.9476 18.3783 20.659 17.7343 21.3663 17.0171C22.0678 16.3058 22.7336 15.5554 23.2944 14.9057C23.4777 14.6934 23.655 14.4856 23.8203 14.2918C23.9668 14.1201 24.1048 13.9584 24.228 13.8158C24.2384 12.7837 24.2767 11.9157 24.3092 11.1814L24.3176 10.9909C24.0544 10.969 23.771 10.9292 23.4676 10.8697C22.309 10.6423 20.7931 10.114 18.8878 9.09549Z" fill="currentColor"/>
</svg>
