<svg id="" width="36" height="36" viewBox="0 0 36 36" fill="currentColor" xmlns="http://www.w3.org/2000/svg">
<g clip-path="url(#clip0_512_1502)">
<path fill-rule="evenodd" clip-rule="evenodd" d="M18.0001 8C13.6046 8 9.63239 9.79057 6.57415 11.8605C3.54437 13.9111 1.28281 16.3231 0.268613 17.8133C0.21414 17.8897 0.167689 17.9711 0.129501 18.0558C0.0421359 18.2486 -0.000174316 18.4548 5.39717e-07 18.6593C-0.00017177 18.8639 0.0421384 19.07 0.129501 19.2629C0.167835 19.3479 0.214497 19.4296 0.269241 19.5063C1.32993 21.0603 3.64836 23.1539 6.66946 24.8579C9.74037 26.5899 13.6771 28 18.0001 28C26.6456 28 32.9617 22.3698 35.5915 19.6725C35.5935 19.6705 35.5954 19.6685 35.5974 19.6665C36.1345 19.109 36.1339 18.2089 35.5974 17.6522C35.5954 17.6502 35.5935 17.6482 35.5915 17.6462C35.4716 17.5232 35.343 17.3902 35.2055 17.2479L35.2006 17.2429C33.8942 15.8918 31.8161 13.7424 29.1476 11.8731C26.1896 9.80089 22.4087 8 18.0001 8ZM32.6317 18.6349C31.3653 17.3413 29.6731 15.6947 27.592 14.2368C24.9028 12.353 21.6618 10.8571 18.0001 10.8571C14.3252 10.8571 10.8798 12.3633 8.09308 14.2494C5.87802 15.7486 4.16164 17.4319 3.15845 18.6382C4.12827 19.707 5.79828 21.1103 7.99777 22.3509C10.7719 23.9155 14.2527 25.1429 18.0001 25.1429C24.6187 25.1429 29.7837 21.3069 32.6317 18.6349Z" fill="currentColor"/>
<path d="M18 12.0989C15.0236 12.0989 12.6107 14.5884 12.6107 17.6593C12.6107 20.7303 15.0236 23.2198 18 23.2198C20.9765 23.2198 23.3894 20.7303 23.3894 17.6593C23.3894 14.5884 20.9765 12.0989 18 12.0989Z" fill="currentColor"/>
</g>
<defs>
<clipPath id="clip0_512_1502">
<rect width="36" height="36" fill="currentColor"/>
</clipPath>
</defs>
</svg>
